<mxfile host="app.diagrams.net" modified="2023-06-28T08:24:38.388Z" agent="Mozilla/5.0 (X11; Linux x86_64; rv:109.0) Gecko/20100101 Firefox/114.0" etag="TmdZNaHRemEwGwbjAFhE" version="21.5.1">
  <diagram name="Page-1" id="mTDmK9_F8YnDU2XEsvhf">
    <mxGraphModel dx="2778" dy="1485" grid="1" gridSize="10" guides="1" tooltips="1" connect="1" arrows="1" fold="1" page="1" pageScale="1" pageWidth="850" pageHeight="1100" math="0" shadow="0">
      <root>
        <mxCell id="0" />
        <mxCell id="1" parent="0" />
        <mxCell id="Y0J4Bvf2A7eISHMYI4dC-1" value="" style="shape=image;verticalLabelPosition=bottom;labelBackgroundColor=default;verticalAlign=top;aspect=fixed;imageAspect=0;image=data:image/png,iVBORw0KGgoAAAANSUhEUgAAB2oAAAOmCAIAAACluoIRAAAACXBIWXMAAA7EAAAOxAGVKw4bAAAgAElEQVR4XuzdeZjN5f/H8deZ1W7sW7YSkVSWSDSKsZYlVCoiu0oRlfpWKE0bpShbdpK1kGVm7EmSsvNTRPZ1xgwzZj2/P85xPufzMecYspyZeT6uubru+32/z1zTO13XZ97uz33bEhMT/fz8bDab458CPJg8eXKXLl2s0fS89957gwcPtkaRARn8f7Bs2bIHDhywRn3e4MGDhwwZYo2mZ9KkSZ07d7ZG4Rm1vdEOHDhQvnx5azQ9oaGhq1evtkZ9XufOnadMmWKNpmfVqlUNGjSwRgGfZLfb09LSHP9MTU1NTU1NSUlJSUlJTk5OSkpKTExMTExs2e+ztNSUgH9/lbRv3z7rt4DP4wH1JsjaD6g+a/Xq1Y888og1mp7nn39+8uTJ1ig8o7Y3Qbly5Q4ePGiNpsdut1tDuFZZ/ncW3ASenp9ttI+9SEtLO3r0aN68eakMAABA5mK321NTU2NjY4sXL+4Y0z6+EXhgBgAAyBo8PT8HWBPh5ujRo6VLl7ZGAQAAkHns37+/ePHi1iiuEx6YAQAAshjL8zPtY2/y5s0r6dChQ/ny5bOupSc5OTkiIqJx48aBgYHWtWyP4nhBcbygOF5QHE+ojBcUxwuK40VmLI7dbo+JiSlXrlyePHmsa7h+eGC+XqiMFxTHEyrjCZXxguJ4QmU8oTKeZLXKpKbae/aMmTOnnGR5fqZ97I3jFbx8+fJl/Gk4V65c+fLlyyJ/bq4riuMFxfGC4nhBcTyhMl5QHC8ojheZsTiOU9uU4ZNbcW14YL5eqIwXFMcTKuMJlfGC4nhCZTyhMp5kqcrY7erVyz5nTpqky56f/dwnAAAAAAAAAIDswm7XwIEaN06S/P2tq7SPAQAAAAAAACCbGjpUw4dLks2mMWOsq7SPAQAAAAAAACA7GjFCgwc7x2PHqm1b90UH2scAAAAAAAAAkM2MH6/XXnOOP/9c3bqZVi+hfQwAAAAAAAAA2cnMmerZ0zkeOlSvvmpadUP7GAAAAAAAAACyjR9/VKdOstslacAA/e9/1gQ3PtQ+3rBhQ/fu3atUqZIvX77g4OBSpUq1bNly2rRpaWlp1tQMOH/+/PDhw0NDQ4sVKxYUFFSsWLHQ0NDhw4dfuHDBmgoAAAAAAAAA2UFUlJ58UqmpktSrlz75RDabNcdNgDVwKyQmJvbo0WPq1KnuwaNHjx49enTRokVffPHFokWLSpYs6b7q3YYNG9q2bXvs2DFX5OTJkydPnly7du2IESPmzZtXp04dt3QAAAAAAAAAyOrWr1erVkpKkqTnntPo0d57x/KR3ccdO3a09I7d/fHHHw8//HBcXJx1wYMdO3Y0btzYvXfs7ujRo2FhYTt27LAuAAAAAAAAAEBW9ccfat5c8fGS1Lq1Jk2S35Wbw1fOuNFWrFgxZ84c17Rhw4arV6/esWPH2LFj8+XL5wju27fvzTffdOV498ILL5w/f94xLlCgwIwZM3bv3j19+vSQkBBH8Pz58127djU+AAAAAAAAAABZ2K5datJEsbGS1LixZs1SQIbOpchQ0g01d+5c1zh37tzz5893dI3vvvvus2fPDho0yLE0adKkDz74oECBAq7kdK1du3bTpk2u6fDhw5955hlJd911V3x8fI8ePRzx3377bd26dfXr13dlAgAAAAAAAEAWtH+/wsJ0+rQk1aun+fMVHGzN8eDW7z4+cOCAa1y2bFnXjmNJ9957r2uckJCwdOlS19QT943MNputbdu2rmn79u1tbmd5uGcCAAAAmQLXTQMAAODqHDmihg119Kgk1aihxYuVO7c1x7Nb3z7OkSOHa3zkyJEkx8nNkqT9+/e7xpLctxV74p5TunRp92Z0SEhIqVKlXNOMfDcAAADARyQmJj7//PN169adMGHC7t274+LikpKSHHdNd+rUqVatWkcdvxJk2IYNGypWrDhgwIC1a9eePHkyOTnZcdf0gAEDKlas+Ouvv1o/AAAAgEzn5Ek1aiTH/t0qVbRsmfLnt6R4d+vbx7Vr13aNz50716NHj3///Tc+Pj4qKmrYsGFuiTp8+LD7NF3//POPa1y0aFG3FWvEPRMAAADwcVw3DQAAgKsTE6MmTbRnjyTdcYeiolS4sDXnSm792cfdunX79NNPz54965hOmTJlypQp5hSnc+fOWUOXcc/JmTOn24ok5cqVyzWOiYlxWzEkJiYmJiY6xrGxsZKSk5OTk5NNSR440jKYnN1QHC8ojhcUxwuK4wmV8YLieEFxvMiMxbHb7ZnrB/bu8uum33nnncKFC69fv37gwIGOp1bHddOjR482PuaZ5brpUaNGVa9effPmzS+99JLjOdlx3fTGjRtNHwMAAEBmcf68mjfXli2SdNttiopSiRLWnAy49e3jwoUL//jjjy1btoyOjrauSX5+fq5z3NyPucgIu91+xcjlwsPDhwwZ4h6JiIhw7ztfUWRkpDWESyiOFxTHC4rjBcXxhMp4QXG8oDheZK7i2O32rHSAL9dNAwAA4CpcvKhWrbRhgyQVLaqoKJUrZ0nJoFvfPpZUr169HTt2fPzxx/Pnz3ecUOHn51e9evVXXnll5MiRv//+uyOtUKFCpo+lJ3/+/CdPnnSMExISzIumSEhIiNuKYdCgQf3793eMY2NjS5cu3bhxY/czlL1ITk6OjIwMCwsLDAy0rmV7FMcLiuMFxfGC4nhCZbygOF5QHC8yY3Hsdrunt80yo6u6btrRC/bC+3XTPXv2dO26mDNnDu1jAACATCY5WU8+qZUrJSkkRBERqlTJmpNhPtE+llSyZMmRI0eOHDkyNjY2Li6uQIECuXLlunjxomvvg6Rq1aq5fSJ95cuXd7WPXQOXEydOuMbly5d3WzEEBwcHBwe7RwIDA6/qN6Wrzc9WKI4XFMcLiuMFxfGEynhBcbygOF5kruLY7fZM9NNe0eXXTQcFBTmml183fcX28RWvm3ZdOsJ10wAAAJlMaqo6ddKiRZKUO7eWLpXbboNr4CvtY5d8+fK5nl/nzZvnvl/4kUcecY09qVWrluuAtsOHD587dy7/pcsEo6Ojjxw54p7pGgMAAAC+rHbt2j/88INj7LhueujQoYULF/7ll19uxHXTrm+S7nXTXBZyI1AZLyiOJ1TGEyrjBcXxhMp4QmU88dHK2O3+vXv7zZolyZ4jR+qCBfYaNZSxH9LT3SE+0T4+depUkSJFLMFDhw4NHDjQNa1Tp859993nGB84cMB97/CqVasaNGjgGLdv337UqFGOsd1unzt3bteuXR3T2bNnOwYO7du3d58CAAAAPsunrpvmspAbh8p4QXE8oTKeUBkvKI4nVMYTKuOJb1XGbq86ceIdixZJSvP3/23AgBPx8VqyxJrmgae7Q3yifTx8+PAlS5Y888wz9erVK1as2Llz51atWvXpp5+eOnXKkeDn5/fRRx+ZP5S+hx9+uFatWq6X7AYOHJgjR46aNWv+/vvvb7zxhivtgQce4BA3AAAAZBY+dd00l4XcCFTGC4rjCZXxhMp4QXE8oTKeUBlPfLAyfkOG+C9aJMnu55c2dWqNq9w76+nuEJ9oH0vavn2768Loy4WHh4eGhlqjHkycOLFOnTqOZnl0dPRzzz1nSciTJ8+3335rCQIAAAC+zHeum+aykBuHynhBcTyhMp5QGS8ojidUxhMq44kPVeazz3TpTDPbhAkBV7oM43Ke7g7xswZ8TEhIyOTJk19//XXrgmdVq1aNjIwsUaKEdUGSVKJEiYiIiKpVq1oXAAAAAN/muG760KFD586dO3z4cFxc3KZNm9q1a7dz505XTgavm3aNr+26aQAAAPiQMWPkOgR45Eh16WJa/W98Yvfx888/nzNnzjVr1vzzzz9nzpxJTEwsVKhQlSpVmjZt2rVr1wIFClg/cCUPPvjg3r17x4wZs3Dhwt27d8fExISEhFSuXLlly5a9evXKkyeP9QMAAABA5sF10wAAAHCaPl19+jjHH3ygvn1Nq/+ZT7SPK1eu/N5771mjnpUrV+6KJ7LlyZNnwIABAwYMsC4AAAAAmRDXTQMAAMBqwQJ17ixHp/SNN/TWW9aE/8wn2scAAAAAvOO6aQAAAJhEROjpp5WaKkl9+ig8XDabNec/o30MAAAAZA5cNw0AAACnn39W69ZKSpKkTp301Vc3oncs3786DwAAAIB3XDcNAACQvWzerBYt5LgAo21bffut/G5Um5fdxwAAAEAmwHXTAAAAkKSdO9WkiWJjJalpU82YoYAb2OO9gd8aAAAAwPXCddMAAADQ33+rUSOdOSNJDz+sefMUHGzNua5u1K5mAAAAAAAAAMB1c+iQGjXS8eOSVKuWFi1SrlzWnOuN9jEAAAAAAAAA+LYTJ9SokQ4elKSqVbV0qfLls+bcALSPAQAAAAAAAMCHRUercWPt3StJFSooMlKFCllzbgzaxwAAAAAAAADgq+Li1KyZtm2TpNKlFRWl4sWtOTcM7WMAAAAAAAAA8EkJCWrZUhs3SlKxYlqxQmXLWnNuJNrHAAAAAAAAAOB7kpLUvr1Wr5akAgUUGak777Sk3Gi0jwEAAHCj/PyzatZUwYIqXlxdu+riRWsCAAAAgPSlpqpjR/30kyTlyaNly3TPPdacG4/2MQAAAC45fFi//24NXqu0NHXooM2bFR2tEyc0caK+/tqaAwAAACAdaWnq3l2zZ0tSjhxavFgPPGDNuSloHwMAAECSdPq0wsLUoIFWrLAuXZOTJ3X4sCmyebNpCgAAACAddrv69dOkSZIUGKj58xUaas25WWgfAwAAQIqLU/Pm2rNHFy6ob1+lpFgTvIqJUcuWCg6WzWZ8lShhTZs505RwQ7/8/FSwoPUHAAAAADKBd97Rl19Kkp+fvvtOzZpZE26iAGsAAAAA2U1iop54Qps2SVKJElq8WAFX95T4xRdatMgaBAAAAODy22+aOVNxcSpWTN27q3x5a4LTxx9r2DDneOJEtW1rWr3pru4XAwAAAGQ1qal67jlFRUlSSIiWL/f8JJu+pCTnXdAAAAAA0rV3rx5+WImJzumUKdq/X8HBphxJ+vprvfmmczxqlJ5/3rR6K3B4BQAAQDZmt6tPH82dK0m5cmnJkqu6zdlu15tvKl8+rVljXQIAAADgsmyZ0TuWdPSo890/k6lT9eKLznF4uDG+pdh9DAAAkI29/bbGjZOkgADNm6cHH7QmeLVzpz7+2BoMD9fjjxtTm023366zZxUdbQRvArtdcXGqW9caBwAAAG6+o0etkdOnzfN589Sli3P81lvGHuRbjfYxAABAdjV8uMLDJclm09SpatrUmuBZfLyOH9eqVda4pIYNdffd1mDJkipZ0hq8oex2xcRYgwAAAMAtcfmui7Fj1br1pcmyZerQQWlpkvTyy/rgAyPvVqN9DAAAkC1NnqwBA5zjUaPUoYNp1auvv1a/fkpKssb9/dWjh2rWtMYBAACAbK5iRe3da4qEhFwarV2rNm2UnCxJnTvriy9ksxl5txrtYwAAgOznxx/VrZtzPGSI+vQxrXp18aJefz2d3vF992ndOuXJY40DAAAAsPSOJe3eLUnatEmPPaaLFyWpfXtNmCA/37qsjvYxAABANrNmjZ56SqmpkvTyy3rnHWtCelJTbdu3y27XkSO6cMG6KqlJE3rHAAAAQDoczWGLrVul7dvVpIni4iSpeXNNny5/f2verUb7GAAAIDv58089/rjz1udnn83gm3H796tnz0anTwdaFyRJNptCQ/Xaa9Y4AAAAAEnbt1sjkiroL3tYmM1xwXRoqObOVVCQNckH0D4GAADINvbuNXY3tGihSZMy+GbcN9/4nT6dyxqVihTRwYPy9/fNB10AAADAJ5w6ZY2U1r8r1NB24oQkPfCAFi1SzpzWJN9A+xgAACB7OHxYYWHOR9eHHtLs2QpMfzexu9RUbdumcePS7zLff7/PPuUCAAAAvmLiRNO0mI6vUMMyOiRJ1app6VLlzWvK8CW0jwEAALKBM2fUpIn+/VeSqlXT4sXKlc5uYovUVDVrpshIScYBFwEBCgiQzab77tNXXxnJAAAAANJVuLAxLqCzEWp8p/6WFFP0zpCICBUsaCz7nvQ3kgAAACDrOH9eLVpo1y5Juv12LVumkBBrTno2bnT0jk0mT1ZCguLj9csvqljRugoAAADAIirKOcir2GVqWk3bJR1UmZGPRalYMfdMLz78UIUKyWZTzpzq2DH96/huBNrHAAAAWVpiop54Qhs3SlLx4oqMVIkS1pz0/Puvhg+3BiXVqmWNAAAAAPBi3z5Jyqn4RXr8AW2SdEzFG2rFZ7PLWDI92bVLb7+ts2cl6eJFTZ+uadOsOTcI7WMAAICsKzVVnTo5txCHhGj5ct1+uzUnPcuXq0IFzZ9vClapYh8/nh3HAAAAwFWw2xUYqEAlzVW7UK2VdEYFwxS5TxXuvtuUGR+vY8cUG2sKOmzdao2sX2+NpOv8eR07prQ0a9whOlrHjunYMZ05Y11yoX0MAACQRdntevFFzZ4tSTlzavFiVatmzfHgq6+UnGyK1Kp1bMuWlG7dTEEAAAAA3sXHKy05Zaaeaa6lkhIC8zbR8p2qKikmxkh76y2FhKhkSYWEqEMH69P4kiWmqaQpU/TUU0pKssZd0tLUo4fzexYtaj2V7tw5NWyoggVVsqRKllThwqpdWydOmHIcaB8DAABkUe+8o7FjJSkgQHPn6qGHrAmX2blT48drzJh0djdUrnzWGgIAAABwJevXpU1Qt3aaJyleOX9566fNqulYio525uzbp/BwZ8vYbtesWVq2zLnkMH26aeowe7aWLrUGXTZs0PjxSk2VpDNn1K+faXXKFK1caYps2qQJE0wRhwBrAAAAAFnA559r2DDneMoUNW9uWk3PwoVq0yb999r690+tW3efxLkVAAAAwNWw28sO79tYUyQlKbCNFrzfvL6GOBdjYmS3y2bTnj3un5GkPXv0+OPGtGBB58HHFrt3q1UrSUpO1p49SkkxliIijLGknTt19KhKlnROf/nFtOqwebM1InYfAwAAZEFTp6p/f+f4q6/0zDOmVQ/GjUu/d/zLL/roo7SAALt1AQAAAIB3b71VKWq0pBT5P61ZEWpSsKCxmJSkhARJ2rLFCDp8+aUxjotLv3csadAgJSVp1y6VKaNq1VS9uvE1dKg1uVQpvfSSJH31lb7/3roqafVqa0S0jwEAALKaRYv0wgvO8eDBzidEz9LS9MMPCg9P55lVUv78uu8+axAAAADAlYWH66OPHMMumrRAT7RqpQIFTCmO8yssR1VIOnzYGDtuM3Fp2NA0XbVKI0bo+HFT0JPRo/XXX3r7bWvcCw6vAAAAyELWrtWTTzpPOHvpJb37rjXhMgMG6PPPrcEqVVSwoEqU0MCBypnTenEHAAAAgCv46iu99ZZj2FtfT1dHSfv3K39+U1ZMjEqVUtGipqDDxYvKkUOS/v3XFG/XTitWGNOFC7VpkzG9ogkTFBdnDXrB7mMAAICs4s8/9fjjunhRkjp00MiRstmsOZeZONEakTR2rNat0+zZqlXLugQAAADgCiZNUt++juHr+niMejvG3bsrIEB58xqJjlOP5883Ii6LFzsH7sdQFCumLl2MqaSvv9a2bcbU319BQcbX5T75xDTt31+9nT9d+mgfAwAAZAl//aWmTRUbK0nNmmnyZPml/6S3fbuGDNHrr+v11zVggM6dsyYULKiazrugAQAAAFylOXPUrZtjeKzr/z7V666VsmUlmc6vWLUq/QtIdOn44337TMEOHRQcrE6dTEF3P/ygxETjy26X3e5xU0jevBo+XJ99Zo274/AKAACAzO/IEYWF6eRJSapbV3Pnpr/TQNq7V3XqKD7eGndo2lSlS6tvX+dbcgAAAACuzpIleuYZZ0v4lVc21B+qb41Fxy4N98MogoI8HiXhiB88aArWri1Jdepo6lRT3MHPL/2NILVrp3/AheO75cqlqlW1Y4d11YH2MQAAQCZ39qyaNHE+V95zjxYvVq5c1pxLFi702Dv299fChQoMtMYBAAAAZMjq1WrbVikpkvTCCxoxonsR02lyJUtKUocO+u47ZyQmxnl73uUcV1tPm2YKPvmkJHXvrn37tHChEhONpSJF9MYbKl7ciLh88IHOndPPPzsvSXG45x6NHu0cz5qlqlWNJXe0jwEAADKzCxfUooV27pSk8uW1fLn1Lmc327Zp4EBr0KVFC3rHAAAAwLXauNG4ieSppzRuXEqa39mzxnqDBs7BXXcZwehoxcQYU4vTp/XLL8a0enXnAXUBAfrssyscOuEuf/70dyu73H23mjTR8uXWuGgfAwAAZGJJSXriCf36qyQVK6bISJUoYc255NgxPfSQKVK5sh54wDmuWFEvv2xaBQAAAJBR27apWTOdPy9Jjz2madPk73/ujCmlShXnwH2/R3S0afexv79pg/CRI6bm8hnzN7y+QkNpHwMAAGQlqanq1EkREZKUP7+WL9cdd1hz3KxY4XyadXn6ab37rikCAAAA4Krt3auwMGcb+JFHNHu247W+r74yZYWHOwchIUYwJkaRkca0XDnTXXkvvui838RhxAhjfN0NGKDoaH36qTWe/n3cAAAA8Gl2u156Sd9/L0k5cmjxYt17rzXHzfHj6tzZFAkKUqtWpggAAACAq3bwoBo1cnZ569TRwoXKmdOxsnChe57y5nUOLLuPDxwwpjlzqkwZY7p+vTHWpaOTb5CAAA0aZA2K9jEAAECm9N57GjNGkvz9NXeu6tWzJpi1bGl6CU7S+vXeG84AAAAAruTYMTVsqEOHJOnee7VkifLkcS3++adrKEm2S7foWXYfuz+o79ihwoWNqcX991sjNwHtYwAAgMxm5Ei9/75zPGWKWrQwrV7mzBlt2mSK9O6tmjVNEQAAAABXJTA2NqBZM+dhE5UqKSLCfV+x5Ql89mxj7L77ODbWtDR0qMaNM6buSpdWcLA1eBNw9jEAAECmMn26Xn3VOR45Us8+6ximpOjDD7VunXPzQrlyeucdlS+vpCS9+KIz3eWZZ6wRAAAAAFchNvbBoUNtf/8tSeXKKSpKRYu6r1tOrrj9dmPs3j62yJ3b4wkVt+rdQdrHAAAAmcfixcYZxu++q759XSvh4XrvPddMkn77Tdu3a/Bg5wnJLn/8cWveegMAAACyiPh4/9atCzh6xyVKKCpKt93mWjx3Tp98og8/dAUk6b77jLH74RUW99yjEiWsQYeqVa2Rm4PDKwAAADKJdevUvr1zd3GfPho82H0xKsp9Jkk7d+rkSa1YYQqWL0/vGAAAAPgPEhPVpo3fzz9LshcqpKgo3XGH+3qnTtbecZcu8vc3pjlzKijImLqrVk2S2rWzxiV17WqN3BzsPgYAAMgMtmzRY4/p4kVJevppffWVcfWGFBmptWtdM0ODBvrnH1OkVy/TFAAAAMBVSElRhw6KiJCUnCuXliwJrFLFfd1u19Kl7gHpsivvbDbrvdYujo3JbluZDUWKWCM3B7uPAQAAfN7ff6tpU8XGSlLTppoyRX7GU9zZs3rsMdfMZM8eJSYa0yFD9PrrxhQAAADAVUhL0wsvaMECSfZcuX595x3df/+mTWrbVnXrOr/8/JScbPpQSIhatjRFJI/tY8fleM2bW+OS8ue3Rm4Odh8DAAD4tqNHFRamEyck6cEHNXeu5VW3TZuUlOQe8KhDB2sEAAAAQIbY7XrpJU2bJklBQalz555NSrp4UY0bKybGmuvy7rvq1Elly1rjPXtq7FhrMCzMOahf3xSX1KOHNXLTsPsYAADAh509qyZNdOCAJFWtqsWLlTu3+3pKirp1cw941KKF7rzTGgQAAABwZXa73nxT33wjSf7+mj3b3qiRpG3bbF56x7lz6913LQcjOxUoYI1IKlrUOciRw5pw++2m6c3E7mMAAABfdeGCHntMO3ZIUrlyWr5cBQtaUiZO1OHDpkhiovbu1bZtstuNYMmSqlfPmAIAAAC4CsOG6ZNPJMlm05QpatXKcUTFn38a95Fcrndv04157tJtHzsOPnZ4+WUNHeocFy6sJ580lm4y2scAAAA+KSlJ7dppwwZJKlpUkZEqWdKaI23caJp26KCgIFWtqqpVTXEAAAAA12jkSL3zjnM8Zoyefda18vLLRnu4VCkdOeKaSXI2nNPl3il2ce8pDx6ssDDt3q1cudSwoYoXN5ZuMtrHAAAAvictTc8/r2XLJClfPi1frgoVrDlSRIQmTjRF+vY1TQEAAAD8JxMn6tVXnePPPnM/hNhuV2CgPTnZuQG5UCGVLKlNm5yrX34pm+etyXnyWCOSihQxxjab6tXziTcIOfsYAADAx9jt6ttXs2ZJUo4cWrxY991nzZFSUvTMM6bIO++oTh1TBAAAAMA12/6/79O6Om8aWVn/PXv/19xXz5zJ4eodS+rdW2+84Tyt4vbbr3DcRGioNSLp6aetEV/A7mMAAAAfM2SIRo+WJH9/zZmT8mB9pVhTJP3zj86cMUVq1jRNAQAAAFyz1B8X3zXsOT/ZJY1Qv9fWvbdytR55xEiYNq2KMZHat1ehQjpwQPv2qWZNy43XVq5b8lwCAtIJ+gJ2HwMAAPiSL7/UkCGO4YH3JlV5/bHAQKX7VbGi6XOhoWrc2BQBAAAA4O7iRcXE6OJFazwdK1f6PdUuUCmSxqn7axou2bZsMaWcPZvDfeo4zvi22xQaeoXesaTAQJUta4r47OUltI8BAAB8xowZeuUV5/iLL55b3nH3btO6F6tWKYfp8RUAAACAU0qKXnhBefOqQAHlzatOnZSUZM0xbNigli1tiYmSZqpDb30j2ST176/z542s7duNs4ofeMB5bEXGDRtmfCQoyLWHxOfQPgYAAPANP/2kzp2d4//972zHV9avd1/2pm5db/dyAAAAANlcRIQmTVJKiiSlpGjaNP30kzXHacsWNW+uCxck/aiWz2tKmrjETIIAACAASURBVIzG8NSpzsGBA66YJA0aZJpmxLPP6swZbdqk33/X6dNq2dKa4CNoHwMAAPiAn39Wu3aO59lzHXpVmTu0UCFriif582vYMGsQAAAAyIYuXNDu3Tp1yhRMS9OPP5oikpYuld1uDWrPHjVurJgYSVFq+JS+T1Gg+/rWrc7B7t2m7RuVK7vPMip/ftWsqRo1lDevdcl3cHUeAADArbZtmx57zHkG21NPveI/avce617itWvTv0nDZlP58go0PdMCAAAA2dGkSerZU8nJktSrl775RpL27VOjRtbNwpLGj9e2bVq2zHlmsST9848aNXL0nrfmrtvqwo+Jsh4PN26cOnTQgw+qVStTW7VSJfdZlkL7GAAA4Jbat09NmujcOUkXHmp8+O2pfzxrPTWtYEE9+KACeHADAAAAPEhN1cCBzt6xpDFj1LevKlfW55+n0zt22LhRM2eqTx9J0tGjatRIR45ISql2f+i2n+KV/v13776r1183RerXN02zGA6vAAAAuHWOHVPjxjp+XNJGvzpF18+/q1rQ9u2mlHz5NGoUvWMAAABAdrt279aqVfrnH+tSTIzOnDFFpk/XyZP69ltT0OKXXyRJp08rLEz790tS5cq7Riw/J9eeZBUxbsiTpK1btXevKVKtmmmaxdA+BgAAuEWio9WkieMh9e/gu5ulpbPB4fvvdfasOnSwhAEAAIDsqFMnVamiRx/V7bfrvfdMSz/8YJpK+vBDFSvmPCLOkxkztOS7c2rSRLt2SVL58oqMfHGwqWH822+qU8eYxsbqtdeMqaT//c80zWJoHwMAANwK8fF67DFt3y4psXjZsLTl0SpoSbHZFBoqf+tRFgAAAEB2tG+fpk83ph9/rPh4Y/rFF8bYk9mzZbdryBAjkksXSvVooT/+kKSSJbViRULBUj//bCRUqKBy5TRtmhGx6NZNxYtbg1kJr0ECAADcdMnJatfO8abcCRWtdzzygEpZUgoX1uDBKlbMEgYAAACyKcuBFYmJOnFC5cs7p+fOmVbTVauWJD3wgHMarIsL1Obe8+slXcxbOOrVqNgN5U+fNvIlVa4sSeXKmYLuHN8zC6N9DAAAcHOlpalzZy1dKumc8jXVsr91p/v60aMqUkT+/rLZ3MMAAABAtjZjhjUSFaXu3SUpIUGHDllXLSZOdHaBmzRR8+aKWJI8S083VqSkGOV/JC5iy+uVzZ+QpLFjJSkgQC1a6KefrKuSunSxRrIYDq8AAAC4iex2e99XNHOmpIu2HI9r0Rbd775eurSKF1dAAL1jAAAAwGTNGmtkwQLnYOVKU7xtW9NU0po1Rp/XZtOIz9Imq3Nr/SjpvHI31xLLY7lD4cIqUcI5vvx7SqpQwR4YaA1mMew+BgAAuImGDrWNHiUpRf5P2r9fp4cd4eBgBQbqjjs0ahSNYwAAAGRrO3dq5UolJalCBbVooYBL/cvLn5MvXHAOLFuP+/TRvHnGNFcuVa9uTGW33/lFn0qaKemiglvpxw2q67ZsqF/fGD/0kDF2yZXLGsl6aB8DAADcLKNGafBgx/AFTVyklq6VBQvUrJlrBgAAAGRTa9eqUSMlJzunXbtqwgTneP/+S0mXrF2rtDT5+Zmu1MufX48+qgkTNGmS4uJUvLgGDVKePJeW7XYNHOg3bqykVJv/62XnnM7XsJrxaSebTffeq88+MyIVK6pKFe3aZUQkjRmTmuX7q1n8Xw8AAMBXzJypl192DPtpxDR1cq34+6tmTdcMAAAAyL6mTTN6x5KmTtXo0QoO1r//GkF327fr3nsVH29EGjeWpK5d1bWrETS8/76GD5ckm81/xrQvOzxuTfCsVy/17WuKlC5tN82zIs4+BgAAuPGWLtXzzzuGw/TWF+onyc9PZcqoZk19/72KFDGlAwAAANnTP/+YpsnJOntWko4fN8Vdjh2TpKQkI3LqlDG2+vxzvfeeczxunDp0MK1eyaOPys+tmVq27LmiRY1pVsXuYwAAgBvsl1/Utq1SUiSNUc//6QNHuGzZdN6/AwAAALKzFSuskR9+UO/e6cQdfvhBTZtq504j0qePMTYZP179+zvHI0aoWzfTagbcfbcWL9akSYqNVZkyqQ88sNFme8SalOXQPgYAALiRtm1TixZKSJA0W+1f1GjJeeWH+0UcAAAAANw3EbusX6/evXXggDXuEB2tkydNkQIFTFOn775Tz57O8ZAh6tfPtJphzZo57yxJTk5bsiTBupwVcXgFAADADbN/v5o0UUyMpAiFddS0NPk7Vjp21MiRplwAAAAgm4uOtkYk5+EVaWnWuMP58zpxwhSpU8c0laSFC9Wxo+x2SRowQO+8Y02AZ+w+BgAAuDGOH1dYmOOQtj+DHngiaX6Sgh0rOXNq6lRTLgAAAIA//7RGJC1dKsmxJcMpOFiJic7xkiUqUcJYkpQnj2mqqCi1b6/UVEnq2VOffCKb83VAZATtYwAAgP8qPl5z5ujgQSMSnBDz/KQmxU/sl3SqSOUmZ5ZckPEY27ChkQkAAADA4f/+zxpxSEszbUwuVcp0iciRI8Y4f35jLEm//KJWrZyHYjz7rL7+mt7x1aJ9DAAA8F+1b68lS4xpTsUv1+PFtU3SQZV56FTEKRVyrbZoocmTXTMAAAAATrGx1ohDXJw2bzamYWEaO9aYbtlijAMDjbH++EPNmys+XpJat9bkyfLjIN+rRskAAAD+k1OnTL3jACXP1pP19bOkkyoSpsgjus1YlmbMUCGjmQwAAADAafBga8Rh5kzT4RW1axtjyXFcnNPw4ZdGu3apSROdOydJYWGaNUsB7KO9FrSPAQAArt369XrhBWNqU9okdXlMP0mKVd6mWvaXKhrLUt26l71PBwAAAECSdN991ohDZKRpevvtpqk758P2/v0KC9Pp05JUr54WLFCw8xoSXC2a7gAAANdo3To98ojzEg5Jkv1Lv1efS5shKckv+LOHFpYvUr28ka7bb9fAgW5zAAAAAG7i4qwRh19/NU0fesg0dVevnnTkiBo10tGjklS9uhYvVu7c1jxkGO1jAACAazR/vnvvWP/TBy+lfSVJfn5B878f2qqBsQYAAADgStzvx6tfX+vWOcfHjhnxgAAFBOjxx7VokRF0KZhyUo0a6Z9/JKlKFS1fztt//xHtYwAAgKtw/LhGj9ahQ5L0889GvLe+fl/vOifffqtWrYw1AAAAAFdit5sOOC5c2Bi7K1NGks6ft8Yl5VeMrWkT7dkjSXfcochIj98FGUb7GAAAIKPsdjVtqq1brfGnNGuUXnJOhg9X587uqwAAAACu6MIFpaQY09attWCBMXUJCZGkmjW1apUpnlvno4Kaa8sWSSpVSlFRKlnSlIFrwtV5AAAAGfXvv+n0jpto2TR19JNdkgYNUv/+1gwAAAAAV7Jhg2lao4Zp6lKggCSFhpqCwbr4o1rVTNogSUWKKCpK5cqZMnCtaB8DAABc2d9/q3dv1a1rjT+oX+apbaBSJKl7dw0bZs0AAAAAkAHuBxxLuuMO09Tl+HFJKu92RXWAkmfryYZaKUkhIYqM1F13Gcv4bzi8AgAA4ArS0tSokQ4eNAVz59bQ9tt7fdciV2K8JLVtq2++kc1mSgIAAACQMe4HH0vKkcM0dXnoIUmqXNk59VPqVHVqqUWS7Llz25Yu1b33Gtn4z9h9DAAAcAV79lh7x5Lq3/ZP/+VNciXGSFLDhpoxQ/7+1iQAAAAAGRMdbYzbtJGksDAj4lK/viTZbGrUSJJ9jHp10CxJibZg28KFqlPHnI7/it3HAAAA6du5U8OG6dAhxcVZl4rqxHenw3TmmCTVqqUFCxQcbE0CAAAAkGHuu48d9+NdvGhEXCpWdA7uqmRvHtW/uyZISlZAeI15gx991D0T1wXtYwAAgHSkpqppUx0+bI1LGvFuTLfpTfLu3ydJlStryRLlzWtNAgAAAHA13HcfO+7H691b69YZQYeaNZ2DoX6DC+gLSany65NvRs9vWrin4XqhfQwAAJCOv/9Ov3ccWiu+36qW2r9VksqUUUSEChe2JgEAAAC4SpfvPr7/fiPiULu2/Bxn8X72WYGvhjqCZz8aP2bAk5wkd4Nw9jEAAIDJgQNq2zb9u5oDlDw9+SnnFojChRURodtusyYBAAAAuHqX7z4uV065cxtBSVWrSpLGjtXAgc7QyJFF3niB3vGNQ/sYAADA5JlnNH++KVKggL75RmO/STvR/IXbtiyWpDx5tGyZKlUy5QEAAAC4VmvXGmNH+zhHDo0ZY7zsV7Om3n1Xmj5dvXs7Qx98oL59nWPcGBxeAQAAYEhN1YYN1mClSurV065+/bVkuiQFBWnhQtWoYc0DAAAAcE3i401Tx+EVkp57Ts88o4QE+fkpZ05pwQJ17iy7XZJef11vveX2IdwQtI8BAAAMo0ZZ383y81O/ftKHH2rkSOf8++/1yCOWNAAAAADX7Ngx07RiRWPs53fpCIuICD39tFJTJalPH330kWw2Iw83hvUXJAAAgGzrxIlcAweaTk2bPFl79+rJs2P0v/85QxMmqHVr9xwAAAAA/9HevaZphQqmqST9/LNat1ZSkiR17KivvqJ3fHPQPgYAAHD6669L78hJkgoXVqdOuuP379WnjzP06afq0sU9BwAAAMB/t2aNMS5S5LLO8ObNatFCCQmS9MQTmjhRfnQ1bxIKDQAAIEnnz+uzz2q5R955R7aI5erY0Xm22htvaMAA9wQAAAAA14V7N/jUKWMsSTt3qkkTxcZKUtOmmjlTAZzHe/NQawAAAOmyU4+rVFHfB35VwyeUnCxJXbsqPNw9AQAAAMD18umnxrhNG2OsffsUFqYzZySpfn3Nm6fgYLdl3HDsPgYAAJCkP/80vSDXodpONW/uvAH6iSc0Zsxlb9ABAAAAuD7ce8J33HFpdOiQGjZ0XqtXs6YWL1auXEYebgraxwAAAFq7VgsWGM9FZXXgzZWNFR0tSQ0b8n4cAAAAcENduGCMnY/eJ0+qUSMdPChJVatq2TLly2ck4WahfQwAAGDcjSepqE5sLRoWcPKoJNWsqQULeD8OAAAAuHEc24td2raVoqPVuLH27pWkChUUEaFChUxJuFnYRwMAALKjhATn3mJJaWnatcs5zqdzy9Q0/8m/JalSJS1dqrx5nWsAAAAAboCffjJNCwfHqVkzbd0qSaVLKypKJUqYMnATsfsYAABkO4MHK39+lSrl/CpdWna7JOVQwkK1vF9bJKl0aUVGqnBh80cBAAAAXGeOAyocciih7CuttHGjJBUrpqgolS1rLOOmY/cxAADIXg4f1pAh1qAkf6V8r6dCtVaSChVSRIRKl7YmAQAAALjePvjAOQhU0spC7W2rVklSgQKKiFDFim6JuAXYfQwAALKR2FjNn28NSrIpbYK6tdQiSfY8ebRsme66y5oEAAAA4HpzvAgoyU+p09TxwTM/SZLjmbxaNbdE3BrsPgYAANnF6NF65RWlplrjkv0zDeisKZJSA4L8f/xRNWtaUwAAAIBs7OhRhYfrn39UoYLefltFilgTMu70aQ0bpr/+ck5PnZIkm9LGqcdTmi1JOXJo8WI98IDrI7iFaB8DAIBsISlJgwZZe8c1aigyUjlGhOf84HNJdj8/+4xpevRRUxIAAACQ7bVqpd9/d463bNHq1e6LV+epp7RypSVm/1z9umqiJHtgoG3+fIWGWjJwq3B4BQAAyPqSk7V0qeLirPHq1VVg9ticH7ztmG7p3dvepo05BQAAAMjuzp41eseS1qxRQoIxvSqJiZf3jjVU776iLyWlys8+faaaNbNm4NahfQwAALK4EydUtapatzYFbTaFhuqjGnPUu7cjkvrhh/+GhZmSAAAAAEibN9sske3bLYGMurx3PFCfvCPn3XkfV5zo92Q78zpuMdrHAAAgi5s+XXv3miL58ystTavfjiz48rPOqzoGDkwbMMCUBAAAAECS1KKF9fzb5s0tgQxJSbF+sLe+/kRvOMYv6atnI543LcMH0D4GAABZVlqafv9dX3xhjdeoIW3cqDZtlJwsSS+8oI8/tiYBAAAAkBIT/a0h6cwZ67UiGeG6Ls+ho6Z+rRcd40H6cHzQS0WLmhLgC2gfAwCALOvZZ1Wrlg4fNgUbNNDEAbvUvLkuXJCkNm00dqxs1tfxAAAAAEiKiQmyhiRJR49aI1e0dasxbqP5k21dHOMPNegjDerVSzlzGgnwEbSPAQBA1nTggGbNsgbDw7Vq8sGy3Rvr7FlJeuQRzZypAOu7eAAAAAAcFi26wxqSJF3D2W+dOzsHTbRslp72s6dJOtjypdsmD1u3Lp23BuEL+GUJAABkNXa71q/XpEnWuKSH7zqpsDAdOSJJNWrohx+UI4c1CQAAAMAlCQnp9w9PnLBGrihPHiUmqr7WztcTQUqWpM6dy347spMf7wL6LnYfAwCArGbgQNWvr4kTTcF779XXH8U+OLSp88S1ihW1dKny5TMlAQAAADBbsaKsNSRJWrPGGpF0+rSaNlVQkEqU0LhxpqWYGJ05o5ratFiP5VKCJLVrp/Hj5Ud/0qfxnwcAAGQpycn6+mtr8P77teXXi72XtrT9+ack3XabIiNVpIg1DwAAAICb8+dN0wYNTNN9+0xTSR99pOXLlZys48fVu7dOnjSWwsN1t3YsU9N8ipMU36CZZszgHDnfR/sYAABkHYmJmjBBCQnWeIN6KXr6aecGiUKFFBGhMmWsSQAAAADMHG/uuTRtapq6X4V3eSQtTTt3GtO4P/6KUqNCOitptUL95s9TUPqX8sGn0D4GAABZx9NPq08fU+S++/RKX/sn0d3144+SlDu3li5V5cqmJAAAAADp2bLFdCrxq6+6z0zdYUlbtigqyhR59FHFxkrS6qn/vhHVqLhOSNqoB14qsyhHgZymVPgq2scAACCLOHlSP/xgiuTOrT//sH8RODBg+mRJCgrSDz+oVi1TEgAAAAAPRo3yd40rVFBwsMLCjNU5c4yxpLffNk0dpkyRjh8v261RWf0raZvuaaalA4fmtebBV9E+BgAAWcGff6pvX2uwUSPp4481fLgk+flp5kw1amRNAgAAAOBBnjx21/joUUk6cMAVsB4It2WLaeqw9oez9rDG5ZP/krRXd4YpMloFeRswE6F9DAAAMr2NG1W7tr7/3hR89VXNfGS8Bg1yzseMUdu2pgwAAAAAnsXGasMGo3noOLniqadcAf30k3HvyO+/O/vL7vIobsDKZrYd2yUdVJlGijqpYm3b8kJgZkL7GAAAZHqzZys52RS54w59/tDcXP17Oefh4ere3ZQBAAAAwKu5c03TevUkqUoVU3DpUufgww9NcUk5Fb9Ij9fWb5KOqXhDrTikMpKmTpXNdKIyfFqANQAAAJB5pKVp6lSNGGGN968WpWefVVqaJA0YoDfesGYAAAAA8Orvv03TatUk6b77TEFXzrZtpnigkuaqXQOtkXRGBcMUuU8VJJUpo5zcmZepsPsYAABkYu++qy5drMGpL/3WO6K1kpIkqUsXffIJ2xsAAACAqxUebpqWKiVJlmOLZ8+WpGPHtG+fEez8XMqmis8211JJscrbVMt2qqpjaeZMns0zGdrHAAAgE7O8TydpztDdHb9rbrtwQZJatdK4cTyfAgAAAFfLcjrcm28a4969jbFj9/F33xkRm9I+OtPt3r1zJcUr52Na/LucRx0XL66HHjIykSn4UPt46dKlnTt3rlq1av78+QMCAnLlylWmTJmmTZuOHDkyNjbWmu1Z586dbVdy/vx568cAAECmEhGh7t31f/9nCt6V82Drr8N05owkhYZq1iwFcFQXAAAAcNVOnzZNK1Qwxo7HbQe7XZI2bzYCI/VKsaVTJKX6B7bRgnV62LVWu7ZriEzDJ36hio2Nbd++fUREhHswISHh0KFDhw4dWr58+bBhw+bPn1/PcUA3AADI9n79VU2bOh9VXZ569NSUfY0DDh6RpOrVtXChcuQwZQAAAADImPHjTdNOnYxxly7OMyskxcZq9WrNnOmcDtPbL2uUJPn5adasGn80OTBPCQmy2XT//fr6a2caMhGfaB/369fP0ju2OHXqVJs2bf7666+QkBDrGgAAyH6WLLH2jvMqdurpZkEH90pSxYpaulT58pkyAAAAAGSYqyMsKWdOe2CgcSJckSLGkqS2bZ2DNxX+li6dlzxpkn+7Jz5spw8/vJSHzOnWH16RlJQ0Y8YM1zR//vwTJ07ctWvX6tWrH37Y2Nx++vTpxYsXu6YZtG7dun/Skzt3bmsqAADweRs2qGNHNW+uqVNN8WBdXBPSOmjbZkkqVUoRESpa1JQBZBUc+AYAAG4O92PiEhJMt4lUdV6D53T2rCS9qFHhessZGj3atF0Zmdmt33189uzZxMRE1/S1117r0qWLpMqVK0+fPr1MmTKupSNHjrjGGXTbbbeVK1fOGgUAAJnQ6dNq2FAJCda4v1J239uh/NZVklSwoCIiVLasNQnI/DjwDQAA3DRbt5qm06enuHcRg4PVvLmWLDESntfkUXrZOfn4Y/XpY6whk7v1u4+LFi2aK1cu1zSH2xmF7mNJZa/+V8FWrVqFhIQEBQUVLVq0QYMGH3300VnHX4gAAIDMZv36dHrHkn3rAz3Kb/1BknLn1pIlqlLFmgJkCRk88C0mJsa6AAAAcJW+/940rVTJfHKc1KSJMW6nOd+qq2O8+qG39frrxhoyv1vfPvbz8+vdu7drOnLkyLVr1yYkJPz7778vvviiK16qVKnHH3/cNc2gbdu2nTt3Ljk5+dSpU2vWrBk0aFClSpW8P3YDAIBbLjpavXrpwQdVp47x9dpr1jRJI3O8cfdvkyQpMFALFnCXM7IqDnwDAAA3TVqaPvrIFLn7btNUUliYc9BMS2boWX+lSRqpvgHh77unIQu49YdXSPrwww/j4uLGjx9vt9uPHDkSGhpqSbjzzjvnz59/XZ5fT58+3apVq59//rlGjRrWNUlSYmKi6zANx/lxycnJycnJpiQPHGkZTM5uKI4XFMcLiuMFxfGEyniRWYrTs6f/nDne/pL7zjvtXbum1d/wad0fP5Vkt9lSp0yxN2ig//CvllmKc0tkxuLY7fbM9QN7x4FvAADgpnn7bdM91aGhhwICihtzSVLlyqpWTQW2rZ6ntkFKlvStXuinz9Pqm05JRhbgE+3joKCgb7755p577unXr19KSopl9cknn/z222/z5MljiXtRqVKlJ554on79+uXLl4+Li/v999/ff//9Y8eOOVYvXrzYv3//NWvWmD/kFB4ePmTIEPdIRESE+/EaVxQZGWkN4RKK4wXF8YLieEFxPKEyXvh+caKimkimM6wsbrvtUONDn9z/42jHdGuvXgdz5TKdvnatfL84t1DmKo7dbr9w4YI1mmk5DnyLj493TK/7gW8HDx6Mj48PCQmpUqVK06ZNe/ToUbBgQWseAADIHubMMU0rVTorWdvHkvo/tPGJbY/n1EVJ3+vJHhrX4BFvW0CQSflE+/jAgQNt2rTZsmWLdUGSNHv27JUrV06fPr2J+6kqng0bNqxUqVLukVq1arVs2fKee+6Jjo52RNauXXv06NGSJUu6pzkMGjSof//+jnFsbGzp0qUbN26cL18+c1b6kpOTIyMjw8LCAgMDrWvZHsXxguJ4QXG8oDieUBkvfLk4J0+qf3//LVtsdru8n90aHGz/ssHGu4d845imvv/+3W+8cdnrdFfNl4tzy2XG4tjt9qx0CrDjwLfhw4c7piNHjqxdu3atWrVOnTo1YMAAV9o1H/jmGDgOfFuzZs3w4cNnzJjRuHFjcyIAAMj0Dh/WiBH691/5++vhh9W7t/zMLd+UFO3bZ4pUr35Suux+kW3bnp3RLEDnJS1Wi46alib/J56wZiELuPXt49TU1BYtWuzatcsxLVOmTHh4+H333XfmzJmRI0fOmzdP0unTp1u0aLF58+Z7773X9OH0WHrHrmCXLl1GjBjhimzZsiXd9nFwcHBwcLB7JDAw8Kp+U7ra/GyF4nhBcbygOF5QHE+ojBe+WZxXX9XcudagpPBwFSliTAMD1ci2smS355SWJkn9+/u//ba/7bq9IuebxfERmas4drs9E/20GeE7B75x2tuNQGW8oDieUBlPqIwXFMeTbFIZu12NGwfs3u18eJ49W+fPp/bvn+ae8+abfpK/azp+fGKRIvHWyuzdGxAWFhAbLemv0g2WNprVNdi/bt2Up56yZ/USGrLenxlPh7/d+vbxsmXLXL1jSdOnT69fv75jXLdu3bvvvvv//u//JKWmpn788cczZ850ZV6t22+/3X2alXajAACQBfzyizUiKTBQL76ovHndQps26dHWSkqSpOef16ef6vr1jgFf5jsHvnHa241DZbygOJ5QGU+ojBcUx5MsX5mTJ3Pu3m16u2jGjLN33WV6EJ879xHJeAs/KGilzJXJefJkvbfeCjx9WtLZihX3DunZOOcKx9LSpa6s7CIr/ZnxdPjbrW8f79mzx31avXp119jf3/+ee+5xtI8l7dixw7V0Dfbv3+8+5TQ3AABuoeho9eihn39WaqozcuqUKcGhTx9z73jPHjVrpvPnJallS02YYH3XDsi6fOfAN057uxGojBcUxxMq4wmV8YLieJJNKjN3rnXjxfbt/8/eXcdXXf1xHH/fJYzaSOkQkJAwEESaBQ0DCSlBRBFFpMT4KWIwRUFBpEQUBQUcPcaCDkFBMJCwiFHSsVGL+/vjXu693y/bGLCxsb2eDx56zud87n54HvDj8NmJIq1atXJ0r1zRwYPOGbBYrI8/3tgwM0ePejRrZjl5UpK1Zs180dGBfn6O/Bwl+/2aSenyt8wvH5umeMeOHQ0aNLC1ExMTf//9d8eQu7t95/z+/fvLly/viK9Zs6ZJkya2dmRk5Lp160aOHFmgQAFHgqQjR458+eWXjq7FYnGtUwMAgDts1KjkqMMwYwAAIABJREFUr6qw+fRTlSihcuX0wAMu0YMHFRCgU6ckqVEjzZ0rj8xfyQB3Rpa68I3b3jIOM5MKJiclzExKmJlUMDkpyd4zY7Wqe3dzUNKmTZ7X6mp66y2XAWnlSottQuwzc+qUWrWyX418332W6GjPokUNH8h5stOvmZQuf8v8v3TVqVPHtdurV6+QkJBatWqdOnVq4sSJjq3Hui4zWZcuXQoJCfn000+7devWsmXL++677/Lly1u3bn3nnXcc2ygktWrVqmiO//UNAEAm2rbNHHHw9NSTTxo3HUs6cUKBgTp0SJIeeEBLlyp3bmMGkJ1x4RsAALhNyZ72k7R2rRzl4zVrXEd0770unfPn1aKF/vhDksqWVXS0qK3lDJlfPq5Xr16jRo3Wr19v6+7fv/+JJ54wpkiSl5fXSy+9ZI6mIDY2dsaMGTNmzDAPSJIKFSr0ySefmKMAAOCOSEzUsGHavNkcdxg+/Lra8YULatVKtm8qV6qkiAgZjxkB2R4XvgEAgNuU7FsjkkaP1qhRslhktZpX6WXLyv6U2sWLatvWvgekeHGtWqXSpQ2pyL4y/7pAi8USGhpav35984ALPz+/BQsWVKtWzTxwnTx58rilegditWrVVq9eXbFiRfMAAAC4I8LDNWGCIfLRR1qzxv7j3381ZoxhVJcvq0MH+1K1RAlFRbHNATmQ6SDhjh07HO1ULnyzuFi7dq0jJzIy8rXXXjt37pwjYsOFbwAAZGPBweaIw8aNkrRkiSG4bJm94RYf796lizZskKRChRQdbdyWjGwu83cfSypSpMjGjRuXLVsWGhq6ffv2mJiYuLg4Ly+vQoUKVatWLSgoqE+fPmnc+BAQEBATE7N06dL169fv3LkzJibmwoUL3t7exYoVe+ihhzp27Pj4448ne4sHAAC4M3780RwJDpbxuLyLhAR1767VqyXJz09RUSpXzpQC5ARc+AYAAG7HxYvmiKvNm9WwoXl7cqVKkqSEhIfGjXPbskWS8udXZKSqVzfkIbvLEuVjSRaLpV27du3atTMPJKdcuXJWq9UcvaZEiRIDBgwYMGCAeQAAAGSquDj17KnFiw3B555LuXZstWrAAC1aJEl58ig8nKUqciwufAMAALfj2DFD9+WXNXassztypIYP14cfOiOSKleWkpLc+/cvYasd586t5cv10EOGJOQAqd3zAAAAkI6++cZcO+7aVZMnGyIGr76qL76QJE9PLVyoevXMCUCOwYVvAADgdkyaZOi+95569jRERo82dF99VRZZ9cILbnPmSLJ6eWnJEjVoYEhCzpBVdh8DAIBsz7ZrwZXjiedkfPihPvhAkiwWzZ6twEBzApDDcOEbAAC4ZefPG7oeHqpZ0xCxbdtwqFzJqlde0ZQpkpLc3JLmzPEICDBkIMegfAwAAO6EkSM1a5Yh0rSpunc3RJxmztTLL9vbkyerSxfDKJBTceEbAAC4Na7VYdvdcU8+6VxxSzp82NmW1O3fMbbrLawWy47Bg2u2b28YRk6S2pk1AACAdPHPP4a71SQNG6bVq5U/vyFot2iR+ve3t999V5S3AAAAgNsQG2vovvCCJBUtqm7dDHGH7xtOyPXu/2ztpEmTDjVubBxHzsLuYwAAkCFiYnTqlL29aZNhSFKKS9A1a9Stm5KSJOmll/Taa+YEAAAAADfj338N3fvuszeSfZe6r2Y+vuHaS7wffpjUv7/Cww0ZyGEoHwMAgHSWlKRu3fT99+a4w1NPqUULc1CStm1Tu3a6elWSevXSuHGyWMw5AAAAAG7GwYOGruMS4wED9MYbhqEumjdDT9s7b76p4cMVH2/IQM7D5RUAACCd/fRTarXjunX1xRdK5lGuvXvVsqX9ZF3btvriC7mxUAEAAABu14oVznbZss6leOHCatvWOdRaYbPV001WSRoyRG+95RxDDsbuYwAAkA4uXtSOHfZ9w6tWmUdd1aljjkhSTIwCAnTypCQ1bKh585IrMAMAAAC4aT4+zvaBA862pJo1tWyZJDXV6lA97qkESXr6aQ4CwoHyMQAAuF1//62GDXXsmDlu43FtueHhoUaNzOfjJOnkSQUGKiZGkmrV0rJlyp3bnAMAAADglsyc6WwHBTnbkoYO1bZtuhC9ZWlSu1y6Isna7QnL1KnUjuFA+RgAANyuadNSrB23a6clS8xBgwsX1KqV9uyRpIoVFRmpAgXMOQAAAABu1enTzna9es62pIIFFfH+L9YfW1rOxklS27aWr2fJ3d2QhJyNKwUBAMBtOXdOkyebgw7JX1XhcOWKgoO1daskFS+uqCgVK2bOAQAAAHAbfH2d7cREZ1uS9uxRYKDl7FlJat5c8+dziRxM2H0MAABu3aFDqldPFy86I3nz2u9W8/RUYKCGDnUOmSUmqkcP+03Jfn6KilL58uYcAAAAALchMVHnzjm7jz/ubGv/fvn768QJSapfX4sXK1cul2FAonwMAABux3ff6fBhQ+TTT9WnjyGSPKtVzz2nBQskycdHy5fr/vvNOQAAAABuz7lzslqd3UKFrrWOHFHz5vbVfO3aWr5cefM684BruLwCAADcotOnNW6cOfjoo+ZI8l5/XZ9/Lkmenlq4MM0fAwAAAHATzpwxdAsWlCSdPKmAAP37ryRVqaKoKMMNF4ALyscAAOBWnD6tBx/Uf/8ZgrNn6777DJHkjRunkBBJslj09dfm558BAAAApJM//nC2vbyUO7d07pyCgrRrlySVL6+VK1WkiDMJMKJ8DAAAbkVYmA4cMETee089ehgiyfvySw0fbm9/9pm6dTOMAgAAAEg/27c72/nyyXIxTq1b26MlSmjlSpUs6cwArkP5GAAA3DSrVTNmmINNmpgjyVi8WE8/bW+//baee84wCgAAACBdJSU527GnLis4WJs2SVLhwlq5UhUqOIeB5FA+BgAAN23UKG3YYIh8843q1zdEkrF2rbp1sy9gBw/W//5nTgAAAACQrt55x97wUPzGkt0UHS1JBQooKkpVq7okAsmjfAwAAG6aaevxoEHq2dMQScb27WrXTleuSFLPnho/XhaLOQcAAABAurrnHkmyKOlL9X348BJJ8vFReLgeeMCYCCSP8jEAALg5u3bp6FFD5MZP3/35p1q00IULktS6tWbOlBuLEAAAACDDHTsmyTpZA3tqjiR5eWnJkjScHATs+JsbAAC4Cfv2qXp1Q+S999S6tSFiduiQAgJ04oQkNWig+fPl6WnOAQAAAJDerl6VZP1QIwZomiSru7u+/17+/uY8IGWUjwEAwE0ICzNHBg0yRwxOnVJgoA4elKSaNbVsmXx8zDkAAAAAMsD27XpD7wzXOElJspwc/43atTMnAamifAwAAG7CnDmGbtOmypfPEDGIjVWrVtq9W5LuvVeRkfL1NecAAAAAuG3r1qlLF/n764UXdPKkPegz/eO3NcrWflbTirz4hCMfSCMPcwAAACAFK1fqxx8NkQULDF2DK1fUsaN++kmSihdXdLT92Q4AAAAA6erIEQUG2q6q0KpV+vtvRURIn39e88uhtoQhGh9Vpr/rR4A0YvcxAABIq8WLDd3XX5efnyHilJioXr0UHS1Jvr6KjFT58uYcAAAAAOlh40Z77dhm1SpZv/1Ozz5r676p0Z9oSO7czgQg7SgfAwCANLl0SZ99Zoh06GDoOlmtGjhQ338vSblza/ly1ahhzgEAAACQTkJCDN2WCUutvXrJapX0kYa9ozckPfSQIQdII8rHAAAgTZ5/3tANDtbDDxsiTv/7n6ZPlyQPDy1YoPr1zQkAAAAA0snGjfrlF2e3uVZ+r85uSYmSpurZEfpQskh65hlnDpB2lI8BAECaLF9u6LZvb+g6jR+vMWMkyWLR11+rZUtzAgAAAID0s2mTs/2oflii9t66Kmm2egzUZFvtWFKpUs40IO0oHwMAgBs7dEjHjxsiLVoYunazZmnYMHv700/1BC87AwAAABnIatUrr9jbtbUjXK3y6KKkxWrfV19aXUp/997raAI3gfIxAAC4sebNDd21a1WsmCEiSUuXql8/e3v0aPNtFwAAAADS2+bN9kYV7Y5SoK/OSYpSQFfNS5CnI830CDaQdpSPAQDADZw9qz//NESSufV43Tp16aLEREkaNEhvvGFOAAAAAHBLEhJ09aqSksxxSdu2SVJ5/btS/kV0UtJGPRasRVfl7ZpWsaJrD7gJlI8BAMANrFhh6HbqpDx5DBHt2KF27XTliiR1765PPpHFfsMaAAAAgFt24oSaNZO3t7y9VaCAXntNVqtz1GrV4MEqocMr5V9SRyRdqPRgay2/KNN6XdWqmQJAWlE+BgAAqbl8Wd27GyJz5xq6+vNPBQXp/HlJatlSX30lNxYYAAAAQDoYO1Zr1tj3HcfGKiRE27c7R7dvV2GdWCn/Cton6VCBavl+iCxbo4AzQ5I0Zw67O3Dr+NsdAABIze+/G7rlysnDw6V/+LACA3XihCQ99phCQ+XpvGENAAAAwO347bfUInu2nI1SYFXtkfSPKiweGK3ChWvVcibY3HefOQKkHeVjAACQvBMn1LWrHnnEEBw82KVz+rQCA3XggCTVrKmwMPn4uAwDAAAAuHWXLikqyhx86ikdPChJ1gux5V9o9YB+kXRIJZtrVdchJSS99ppKl3bm9+2rBx90doGb5bp9CAAAwGnwYM2fbw6+9NK1VmysWrXSrl2SVKGCIiLk6+vMAwAAAHB7Fi82R2w+/lgfh1yOC+hQX5slHVcRf618uFO5IkUkqWpV7d+v/fuVmKiCBVWokOnTwM2hfAwAAJK3ZYs5Ehh4rXX1qjp10o8/StI99yg6WsWLO/MAAAAA3La9e80Rmz//iFeXLnl/XCXpjHwDFbVXVbrd70xwc1OFCs4ucDu4vAIAABjs26fmzVWwoPbtM8S9vDR0qCQpMVG9etnP0RUooMhIFqcAAABAunv3XXNEkpsSe0Q/qWXLJMUqT0ut+FW1JQ0aZM4E0gXlYwAAYPDCC1q9WmfOGIIhIdq/X0FBktWq55+332qRO7fCwlSzpiEVAAAAwG1LTFRiorNbtqzt39apGtBd30m6LO92Wvqj6kkKDOSSCmQUyscAAMDg55/NEXd3Pfvstdsp3nxT06ZJkoeHQkPVoIEhFQAAAEB6MO3naNNGknWchvXXDEmJbh598oSuUTPb6MWLrrlAeqJ8DAAA7OLi1KWL/vvPHB82TH5+kqRPPnGeoJs1S61aOZMAAAAApB/bOyMOISEapdFD9bGkRLl1T5o9L66NY/SNN5yZQPri6TwAAGD3+ef6/ntDZOZMNWt27aDcN99oyBD7wMSJ6t7dmQcAAAAgXc2d62x7eirf9HFvabSt21+fz1dX57BUrpxrD0hPlI8BAIDdpk2Gbu7c6tpVPj6SpGXL1LevfWDUKB7mAAAAADLUiRPOdt/4aRo+3NYerE++1FPOMUniKWtkIMrHAABAR48qONh8Pu7dd6/VjtevV5cu9pc7nn9eo0YZ8gAAAACkq9hYRUba2901Z4qes7X/p3cmarAjzebee+VBhQ8ZhruPAQCAxo83147ffltDh0qSfvlFbdvq8mVJeuIJTZwoi8WQCgAAACBdrV5tb7TX4ll60k1WSXr55Zher7tk2bVoYY4A6YjyMQAAOd3VqwoLMwfr1pUk/fWXgoJ0/rwktWihr76SG4sHAAAAIAOdPKnXX5ckf0XPU1cPJUrSc8/p/febNU9mJ0ezZuYIkI74GyAAADna8uUqVEh79hiCvXqpWTPpyBEFBur4cUmqX18LFsjLy5AHAAAAIF0lJKhRI+3cqce0cYnae+uqJPXqpUmTZLH07q3atc0fCQ42R4B0RPkYAIAcbcQIxcYaIp9/rq+/lsf50woK0v79knT//QoLu3YRMgAAAICMsn27du/Wg/p5uVr76JKkbWWCNXOm7RSgxaK33zbk16jB3XLIWJSPAQDIoRIS9Ntv2r3bHH/0USkuTm3aaOdOSSpfXpGR8vMz5wEAAABIbytXqpr+iFRQAZ2XFKGg/WO+c30ar0ED5cvnzG/d2tkGMgLvMgIAkBPFxKhJE/37rzk+apSqVbyq9p20ebMkFSumqCiVKGHOAwAAAJDejh3TF6//s0EBhXVK0no1PP/lwi49vF1z/Py0YYOmT9fp03rkEQ0a5DoIpD/KxwAA5ETTpydTOz51SgULJKpHb0VGSlKBAoqMVMWK5jwAAAAAGeCH+YdWqXkJHZW0VQ+Pbxq2uE8yN8jVqqXPPjMHgQxC+RgAgJwlPt6yZYtlyhRzvFw5+flaNehFzZsnSblyKSxMtWqZ8wAAAACkq0WLNHeuPM8cf3udfzkdkLRT1Vso4oPu+c2pwB1H+RgAgBzk3DkNG9bk4EHzAqBGDU2ZIsvotzR5siS5uys0VA0amNIAAAAApK8NG9Sxo3x1Zo0CK2ivpL9UMUDR59wLPf20ORm483g6DwCAHGTJEsvBg+YtDFOn6rff9NjPE52vOH/1FW9wAAAAAHdAZKTy6kK4WtXWr5JiVMpfK4+p+LPPmjOBTGHefAQAALKlI0e0ZYsiIpL5znGdOtLs2Ro82N6fMEE9exoyAAAAAKSrXbv0xhs6cEDHD1xaovaPaouk/1S0uVYdVFkvL/XoYf4IkCkoHwMAkP1t3aqmTRUXJ9PBo2rVNHCgHjy6XH362ENvvKEXX3TNAQAAAJC+rFa1aaN9++Sh+EXq3ExrJJ2W3/8eiX4quLK3twICdP/95k8BmYLyMQAA2d+0abbascGQIRo/XtqwQYGPKzFRkgYO1OjR5jwAAAAA6erwYe3bJzclfqNebbRc0gXlbakVTz5Zc+BAczKQuSgfAwCQnW3erF9/1ZYt5rikBg2kX39V27a6fFmSunXTp5/KYjHnAQAAAEg/8fHq3VsWJU3XM900T9Il5WqrZUdK1e3Y0ZwMZDrKxwAAZFsTJuill8zBQoUulS/v3aWLW3DNf9QgSOfOSVJQkGbNklsyNyMDAAAASEfTp2vNGusnGtJPMyVdleemIQsGPdakaVMVLGhOBjId5WMAALKtKVPMEUn9+v3+7rsPeJ44pgYB+u8/SapXTwsWyMvLnAoAAAAgvf30k97Wm4M1UVKi3F4rM+ej8a3MSUCWQfkYAIBs6IcftHGj9u41xz09rVWrntaZMwoK0r59klS9upYvV5485lQAAAAA6erPP9Wzp5psHfuG3rVF+umLlmM7G7OArIXyMQAA2c3336tLF3Pw4YdVqpSeey7x6plz7h06aOdOSSpXTpGRnJEDAAAA7oChQ/Xw1sljNdLWfUGflnq9T9euxiQgi6F8DABAdjNrljkiadky3XOP4uOunG401m37dkkqWlRRUSpZ0pwKAAAAZF9Wq86fV4EC5nhGs1pVLOqbyXre1n1VYz7TCxENjUlA1sMLOQAAZB9Xrmj6dC1fbo7Xrq177pGSktz79Stmqx3nz6/ISFWqZE4FAAAAsq9Nm1SypHx99eijOn7cPJpx/v5bg0svnB7fx9YN0Svv69XWrdWsmSENyIIoHwMAkH089ZSefdYcfPFFhYVJVqsGD3abN0+SNVcuLVum2rXNqQAAAEC2Nny4jh6VpC1b9Omn5tGMs2hA5EeHu7krSdKneuE1jYmIUFiYPD3NmUBWQ/kYAIBsIiFB339vDq5frwkTVLKkNHq0Jk2SlOTmlvjtt2rUyJwKAAAAZHdbtjjboaHOdno5fly//qrfftOlSy7R9esHrQ72Urykr/TkYE3IndvSkGsrcJegfAwAQHawaZOefFLx8YZg8eJ65BFJ0qefavRoW/CXQYOsbdq4ZAEAAAA5wt69hu6ePYbu7Rs5UsWKqXZt1aqlwoUVHS1J2rrV2rpNLuslSaHq9LRmWOU2YYJ8fIwfBrIqns4DAOCu99tvatrUXDt+8UW9+KK8vaU5c/Tii7Zg4kcfxVSsWMOQCAAAAOQIY8eaI4cOqVQpc/DWHDtm+PoXL2rUKAUU36kWLSyxFySFq2V3fZsoj8hIBQY6M4Esjt3HAADc9cLDzbXjPHn0ySe6914pPFx9+tij//tf0rU6MgAAAJDTHDtmjvz7rzlyy/76yxw5sfkvBQTo9GlJa9W4kxbEy0viCRLcZSgfAwBwFzt4UIMH69VXzfGuXWWxSJs26fHHlZAgSQMG6O23zXkAAABAjhEebo7s2GGO3JqEBPPbIqV1cKX8bRXrn1SnnZZeVm5JefKoaFFDJpDFUT4GAOBuZbUqMFATJ5rj06dr6lTpt9/Upo39zY4uXTRpkiwWcyoAAACQM5iO69msX2+O3JrNmw3dovpvpfzL6qCk06VqtFDEBeW3DY0YYcgEsj7KxwAA3K327ze//iHpvffUv788D/6joCCdPStJgYH65hu5u5tTAQAAgBzj9GlzRFK+fObIrdm3z9n20+loBVTWX5L+ca80ombUGRV0jNat68wE7gqUjwEAuPucOKHnnlON657Ay5tXnTpJR48qMNB+tVvdulqwQF5e5lQAAAAgJzlzxhyRNGuWOXJrnnzS3sirCyvUsqZ+l3RAZZomrpwZfo9rZlCQaw+4C3iYAwAAIMvr2VNRUebguHFq3Vr3FT2jxkH2R0CqVdPy5cqb15wKAAAA5DDJlo/TxcWL9kYuXVqmtnX1k6RjKuavlTEq45o5dCj3yeHuQ/kYAIC7jNWq1avNwdq1NXSodPGiAtvq998lqWxZRUWpUCFzKgAAAJDz2O51u15CgjxcymN792rFCl26pIIF1aGDihVzDqXEdurPU1cXqFMTrZN02lLQ37ryb1UyZZqe1wPuCpSPAQC4m8THa/BgJSSY4wMGSPHx6txZmzZJUpEiio5WyZLmPAAAACBHWrHCHLE5ckRlrm0R3rlTDRo4dxOHhGjnzhuf5eveXe5KmKMerbRCkjVfvv8mRVRadH/uQ84cHx917qx27ZwR4G5B+RgAgLvJxx9ryhRDJCRETZuqbp0k9eqj8HBJyp9fkZGqZN7sAAAAAORYMTHmiM2mTc7ycWiom6N2LOnAAa1Zo7ZtnZHrJSbqpx+TvlD/zgqVdFG5fcLCqjaqs6i3ORO4S/F0HgAAd5ONGw3dfPn08suq+4hVgwfr228lydtbS5fqgQcMeQAAAEDOdv0BPpu4OGf78GHzzcRHjpgCZufOWidocF99JemqPEfXXMgVFchmKB8DAHDXmDxZy5YZIkOGyM1NeucdTZokSe7umj9fjRsbkgAAAIAcLyzMHLFxfVJv1ixzoWzAAFPA7NCTrw/SJEmJcntC3w2LbmHOAO5y5t8VAAAga9q+Xc8/b4gMHaq33pI++0yjRtlDX3zBhWoAAACASVKSOeLg+qSep6fV2ZGkG118HBJSc3mIrdlXXy5UpyJFjAnA3Y/yMQAAd4cffzRHOnWSZe53GjTI3h8/Xk8+acgAAAAAIMXGGrq1azvbjt3HVqvi482XV5g+aDBpkl57zdYcqM++UW9JFvMXAO56lI8BALgLxMdr4EBDxN9fdc9EqHdvWa2S9NprGjLEkAEAAABAkrRzp6Fbv76z7dh9fPJkLmfUxc8/myOS9NVXjm0cI/X+FA2UnGcCgeyE8jEAAHeB+fMN3SpVFPHmD+6dO9pfAHnmGb37riEDAAAAwDV//GHolinjbDt2H//zj58z6iIqyhxRaKj69bM139XrYzXS1nb9skC2QfkYAIC7wPbthu4LjX93b9daly5J0uOPa/JkjskBAAAAKYmLM3QLFnS2t22zN+LiPJ1RF0eP2hvx8XrzTY2sER7fpbvtNuWpXi++oXccma1aOZpA9kH5GACArG73bo0f7+yW178DFgXZT9kFBGj2bLm7O4cBAAAAGDm2GEtq106+vs7uyZP22+CWLLnXGXXx6af2xpgxWv/O2rd2dvK0xkuaqb4Dr34sObdx3HOPowlkH5SPAQDI6oYPd7aL6dhWv0D340cl6ZFHtHChvL2dwwAAAACu41o+LlJEhQo5u5L++0+Siha9aIheU6GCvXF0yU/L1Da3Lkuar8799bnVpbBWvLijCWQrlI8BAMjqNm60NwrobIRaFDrzjyRVrarwcOXN65IIAAAAIBkREc62r68ee8zZlXT6tCRduuRhiF7z77+SpN9+G7OjRT7FSgpT656anSTDEcAOHVx7QPZB+RgAgKzr3Dn5++v8eUnKrYvL1La2fpWkMmUUFWXeNQEAAADgOomJ+usvZ9fPT97ehqdDbNfCxcY67z5+6SVHU5J2LvwzsXlAQZ2RtFpNO+v7eHkZMqRhw0wBIJugfAwAQNb11VdatUqSPBQ/X10aaqMkFSmi6GiVKmXMBQAAAJCM/fsN3RIlJBlW07arLWJjnRXhmjUdTZXRgbJP+7ufPC5pi+q215LLyl2ypDNBkqenihUzRIBsI/lt+QAAILMcPqwLF+ztLVskyaKkmXqqjZZLsubLZ1mxQpUrOz8AAAAAIGUnTxq6wcGS5OenmBh7xNY4dSq3I+e+++yNe3R0pfzznYmR9KtqttSKWOWTNHOm2rbV1av2tEGDuFUO2RblYwAAsopLlxQcrMhIU9j6sYb00mxJCR7eHkuX6qGHTBkAAAAAUjJ/vrOdP798fSXZ/2kzbZpatXJ2Jfn6qlcvLf/mVLQCKulvSXtVOVBRZ+UnqXlzBQZq3z5t367ERJUrZ9itDGQzlI8BAMgqwsKurx3rdb03WBMlJVncPELnqUkTcwYAAACAlHl7O9u2Z0UkHT3qDFaooF27XO5ClkqVUvyp8xFqcb/+kHTEq2wP35XHj9vvp0hMlKQSJez3YADZG3cfAwCQJSQkKDTUHBygKe/qDVt715AZat/eOA4AAADgBkJCnO3y5e2Nxo2dwTNntG+fsyspv8fFcXvb1NE2SUd1T6OrK38+Xtox2revMxPI9igfAwCQ+U6cUK1ahlN1krpo3md63tZe3OCjqmMgVUVFAAAgAElEQVRZpQIAAAA3x3HBsU23bvZGgwbO4JkzmjvXWSJrUOeKOnYs8c8GSSdVyF8r/1FFZ7ZUr55rD8jmKB8DAJD5vv1Wu3YZIpPaRs717OUmqyTryFc6bBjm7m5IAAAAAHBDf/xh6DrexPPzcwbPntU999jb7kp4+dfutkvlzitfkCJ3qbozVZJUqpQpAGRnlI8BAMhkiYnmfcf1tPmZyI6W+HhJevppS8gYwzAAAACANIiPV8uWhsjjj9sbrk/n7d+vs2clyaKkmXqq7dWFkpQ7d2st365knq328TFHgGyM8jEAAJnJalXnzvrhB2ekunau9G7tefWiJHXqpKlTZTG84wEAAAAgLdauNXQfe0x58tjbrruPJf3+u0WyfqpBvfWNJHl5afHiYp0aGpIkSc/br5cDcgrKxwAAZKY9e7RokbNbTvs25wvMc+WMJDVvrjlzxKUVAAAAwE1KTNQvv2j6dEOwZk1n+957nW1JR48qRK8+r8mSktzcNXeuAgMrGm48tqtRwxwBsjfKxwAAZKalS53tovovSoH5LhyVpDp1tGiRvL2dwwAAAADS4NIlNWyoBx5QaKgh/r//OdumCyhe05hX9IGkJFl2jfhKwcGSRo405Nj07m2OANkb5WMAADLNJ5/olVfs7fw6F6EWlfS3JFWpovBw5cvnkgsAAAAgTSIjtXmzOdi7t0qUMEQeftjeGKSJ78leWn5OUy4/3tPW9vNTkSL2HJvx45U7tyECZHuUjwEAyDSffGJv5NKlZWr7gH6RpNKlFRWlwoVdEgEAAACk1a5d5ohcisUOttfz+mrmRA22RYbrw+l6tmpVZ47pU9d/ESDb8zAHAADAHbFnjw4ckCQPxc9T10baIEmFCys6WqVLG3MBAAAApMmVK3r9dUOkRAm1batnnjEEJfn5qbPmf67+tu7bemOchkvO5/UkTZ6s/v31yy/Kn19PP60GDZxDQA5B+RgAgEzwww967DFJsijpC/Vrp2WSrHnzWiIidN99pmQAAAAAabR2raHbv7/5AT2HhueXD1APdyVJ+lgvjdJoGZ/Xk1SunKKjDREgp+HyCgAAMsGsWbZ/W8dpWG99I8nq5WVZulQPPWTIAwAAAHAzDh40dFPcL7xmzbPRnTyVIOlzPT1U4yWLrt1oAcCB8jEAAHfahg32HRCvKmSIPpGUKDfL3Llq2tSUCQAAAOCmvPqqodvT/gye0ZYtatvWK+mKpO/UbYCm2mrHonwMXIfyMQAAd9T8+WrUSJKe1dQxst/Kdu7DzxUc7JoGAAAA4BacPu1sd+wot+tLX7/+qpYtFRcnaana9tbXSXJ3DObN60wEIMrHAADcYd98I0mdNX+yBtoiv/QYW3D4U645AAAAAG6B1Sqr1dktXNjZttu7VwEBOntW0sV6zbpofoI8XcfPnnXtAaB8DADAnbJ3r956S2FhClDUbPV0k1XSOI+Xi48bYU4FAAAAcPNGjTJ0hw0zdLV/v/z9deKEJD36aNy3S64olzFDzz5rCgA5nYc5AAAAMsCxY6pbV+fOqa62LFKwl+Ilzfbu12j9+8WKmZMBAAAA3IK5cw1dw+7jI0fUvLkOHZKk2rUVHu6bJ5mLKgoWNEeAHI7yMQAAd0JUlM6dUzX9sVyt8+iipAXqWHr51DqP2N/oAAAAAHBTFi5UeLiuXlX+/OrZUzVq6K+/DAnOWvDJkwoI0L//SlKVKoqKkq+v4dKKa+rUMUeAHI7yMQAAGSshQVOm6MUXVVb7oxRYSKclrVKz4ffM2f0YfxADAAAAt2LhQnXq5OzOmKFq1ZxdSZGR11rnzikoSLt2SVK5coqOVpEitpHGjbVu3bU0SZK3t6ELgLuPAQDIWK+/rhdfVFH9F6XAkjoiaase3jhs8eofcuUy37QGAAAAIE2WLjV0r1zRjh2GSNWqkqS4OLVure3bJalECa1apVKlHDkVKzqaklSlisu7ewAkUT4GACCjLV2q/Dq3Qi0r6y9Je3TfgqfCR32Ur3x5cyYAAACANJozxxxxVbKkSpeWrlxRcLA2bZKkwoUVHa0KFVzTunSRxeUyuW7dkpwdAJK4vAIAgAxy6ZJCQvTLL9q/51KE2j2oHZJiVKqlW9RXve1n5QAAAADcgr/+UkKCOehq0yYpPl7duik6WpLy51dkpPl6CykwUOvXKzJSly8nWizbX321tuRuygFyOMrHAABkiBdf1IwZclfCAnVrrPWSTqrQmCbR34WUqVfPnAwAAAAg7dauNUdMSpdMUp++WrxYknx8tGKFHnzQnCRJatBADRooPj4pPPyIxVLbPAzkeJSPAQDIEBERsihphp5ur6WSLihvS61YMqdKiRLmTAAAAAA35bffzBFXTRpb3QY9b7/ewstLS5aofn1zEoC0oXwMAEB6io/Xu+9q3TodOmT9SCP6aJakK/LqoMWFgupQOwYAAABu36RJ5ogL6+LKL2vqVElyd9f8+fL3N6cASDPKxwAApKexY/X225L0it4fpvGSEuU2vcl3Tz3dPDjYlAsAAADgplmt8vBI8e7jUe7vFvj8I0myWPTNN2rf3pwB4Ga4mQMAAOA2rFkjSf01PUSv2SIDNK3nwo49esjHxzURAAAAwK24cMFQOw4JUYEC9vZgffJW4pv2zrRpeuKJa1kAbhHlYwAA0kFcnJ57TjVqaNUqdVLoVA2wxV/WB5d7Pu3nZ8wGAAAAcKu++MLQ7d9fe/dq4UL92H/GJxpij44bp/79DXkAbgmXVwAAkA5GjbLfruav6G/V3U1WSaEVRjSf/HLz5qZcAAAAALfu8GFD19dX7u4KvjJXM56xh956S0OHGpIA3Kq0lo9PnTq1b9++o0ePxsXFScqTJ88999xTvnz5woULm1MBAMh5Nm2SpDr6aZGCvRQv6Qs99cD8Dx58yJQIIDtjzQwAwB2wbp2h6+4uLVumXr1ktUrSsGF689r9FQBuW2rl4yNHjoSFhUVFRf34449HjhwxD0uSihcvXrdu3aCgoDZt2pTgOXkAQE7y1Vf66COdOiVJJ06oqnatUMu8ipO0SB3mNZ321IMW00cAZD+smQEAuMO2bXO233xTWrVKnTvbr0N+5hl9+KEsrMOBdJNM+TgxMXH+/PkzZsxYt26d1WqVZPtnso4cObJ48eLFixcPHDiwcePG/fv379y5s7u7uzkPAIDsZd8+9e3r7JbRgSgFFtJpSXuLNyn01XdhTTxYtQLZGGtmAAAyS8GCOn3a3i6x/wd91E5XrkhS9+6aPJnaMZC+DE/nXb58edy4cWXLlu3Zs+fatWuTkpKsVqvVarWkypaTlJS0du3aHj16lC1bdvz48ZcvX3b9ygAAZDOuWx6K6HiUAkvpsKRtesg9bEmjwFxeXs4EANkJa2YAADLRxYvO2nFt7ei3sJUuXpSk9u311Vfiu7NAerOXj61W6/Tp0ytUqPDyyy8fOXLEtAI2fsTMtCY+cuTIiBEjKlSo8Pnnn1tT3oIBAMBdJzFRgwerUCHlyqXu3e3BfDq/Qi3v05+S9qry9A4rKj6Y3/VTALIN1swAAGS6uXPtjSraHaVAj9hzkuTvr7lz5enpkgggfdgvr3jooYd27txpW7ma1r5pWc7aPuL4oNVqPXbs2IABAyZPnrxjxw5DKgAAd60lSzRxoiHirctL1P4hbZd0uUgpzYme5l/EkAEgG3nggQd+//131swAAKSLCxe0Z4/9uTtJXl6qXv3GFeCDByWpnPatlH8RnZSkxx7T4sXKlcuYCCB92MvHv//+u203hGPAtgLOly9f/fr1a9WqVa1atVKlShUpUsTHx8dqtV66dOn48eOHDh3atWvXr7/+unnz5gsXLsi4JrZarb/99pvjC97QihUr5s2bt23btpiYmLi4OC8vr8KFC1erVq1ly5Z9+/bNn//mdnLFxsZOmzZt6dKle/bsOXPmjJ+fX5UqVdq1azdgwIA8efKYswEAuJGrV/XDD4aIuxK+0xNNtVaSChXKtS7qvqplDBkAspfffvst09fMAABkD+Hh6tjRfmWxQ5kyWrdO5coZgiYLFqiEDq9S85I6IkkPPqjly0WpB8gw5qfzbCvgypUrd+rUqX379g8//LCbm+F+5GQlJSVt3bp1yZIlCxYs+Ouvv3TddozUnT9/vnPnzlFRUa7BS5cuxcTExMTEREZGvvfeewsXLmzQoIFrQio2b97cqVOno0ePOiLHjx8/fvz4+vXrx48fv2DBgnr16rmkAwCQmsuX1aePFiywP+Z8jXW6ngnWYklJPnncwsNVtarrMIBsLFPWzAAAZCejR5trx5IOHtSUKfrgA3Pc1bGdJ9bLv4L2SfqvYNViEREqUMCcBCD9OJe5VqvV09PzySef3LRp0549e957771HHnkkLetgSW5ubnXr1h0zZszevXs3btzYq1cvzxseNnAxZMgQU+3Y5MSJE8HBwWfPnjUPJGfnzp2BgYGutWNXR44cCQgI2Llzp3kAAIAUzJ2refPMtePwaiOe0peSrJ6ebksW65FHXIcBZFeZuGa2WbFiRZ8+fe6///4CBQp4eHj4+PiUKVOmRYsWEyZMOH/+vDn7RmJjY8eNG9e4ceNixYp5eXkVK1ascePG48aNi4uLM6cCAJCufvrJHLHZtElLljh/RETozBmX4bNnV7kHVdUeSf+owkctVqoId8cBGcu+0vXx8Rk5cuSBAwe+/PLLRx991Jhzc+rXrz9r1qwDBw4MHz48d+7c5uHrXL16dc6cOY5ugQIFZs6cuWvXrrVr1zZq1MgRP3nyZFhYmKObiqeeeio2NtbW9vPzmzNnzu7du2fPnu3r62sLxsbG9uvXz/kBAABSYLXq2DFt2WKOv6yxLXeNkyQ3N8u338rf35wBIDvKxDWzpPPnzwcFBbVq1WrWrFl//PHH+fPnExMTbSf2IiMjX3rppYoVK27cuNH8sZRt3ry5cuXKw4cPX79+/fHjx+Pj423H9YYPH165cuUt1/9/HwAA6WTMGEPX3d3Z3rRJHTo4f7RsqcqVtXevJCkuLrFF65qJOyQdUkl/rWzzTAnnJwFkDHv5+O+//x4zZkyxYsWMo7euWLFiY8eO3bdvn3ngOqdPn77iclxh2LBhffv2rVq1auPGjWfPnu2SqMOHD7t2k7V+/fqtW7c6uuPGjevevXuVKlV69OgxduxYR/ynn37asGGDowsAwPX+/ltVqqh4cU2bZog/rc8/0Cv2ztSpevxxwzCA7Gvfvn0hISGZsmYWJ/YAANlFUpLefdcQef11Q9fk5EnNnCldvqz27d1//EHScRXx18r9Ks/OY+AOsJePi2TMb7i0fNmiRYv6+Pg4urlcHsp0bUsqW7asazdZ33//vaNtsVg6derk6Hbu3Nn1djnXTAAArjdmjP780xyc2HjBdLcB9k5IiPr3NwwDyNbSsri9BWn5spzYAwBkG6dO6dIlQ6RrV0P3euPHxh9v1lWrVkk6I99ARe1VFUmVKpkzAaS7NF3TlqHc3Nyee+45R3fChAnr16+/dOnSwYMHn3/+eUe8ZMmSbdu2dXRT4rr1uHTp0vnz53d0fX19S5Ys6ei6ZgIAYHLhgkJDzcHmWjlwU3dLUpIkDRumkSPNGQCQMTixBwDINoKCDN1Vq1StmmbN0sMP6957nT8KFbInuClxlp4sunmppFjlaaXwX1VbUsmSuvlHBADctMwvH0saM2bMM888Y9safPjw4caNG/v4+JQtW9axQbhSpUoRERF58uQxfCw5rkf/ihYt6jJijqTxkCAAIAeaNUsFC+rCBUOwnttPYR4d3BOuSlKfPvrwQ7kcagGADMWJPQBA9nD0qHbscHY9PNS0qST17q2tW/X3384f779vS7FO1YDu+k7SZXm309Itsj8/0KKF/YsAyFAe5kBm8PLymjJlSo0aNYYMGZJgfNheUpcuXb744ou8efOa4sk6d+6co339IySua+6UboW7cuWKY2eH7fXq+Pj4+Ph4Q1IKbGlpTM5pmJxUMDmpYHJSweSk5DZnxmrVyy97JCQYSsMrxv8e+G4rt9NxkpLatk2cPFnX/YF1V7jNycnemJxU3I2TY7Va766fcOpsJ/bGjRtn606YMKFu3bp16tQ5ceLE8OHDHWnpdWLv0KFDti4n9gAA6evXXw3dpk1T3JLRqJHcLNYPrcP6a4akeHl01vdr1MyRULq0MxlAxklr+TgpKWnXrl0HDhw4d+7c9RVek969e5tDqdq/f39wcPAvv/xiHpAkzZ8/f/Xq1bNnzw4yHW+4EavVesPI9UJCQkaPHu0aiYqKcq0731B0dLQ5hGuYnFQwOalgclLB5KTk1mbmyhX3XbsKHj9e3zVYRgcavtPM7cwpSSerV9/cq1dSqq9XZX23Njk5BJOTirtrcqxWa1xcnDmawTJ0zTxmzJgLFy58/vnnVqvVdmLPlFCpUqWFCxemy4k9R/mYE3sAgHR09apatjREjDcwGVSurN3dRlf+7mNJSbL00jdhMnyL9OmnXXsAMsqNy8eHDh16++23582b53hb44ZuaimcmJjYunXrXbt22bplypQJCQmpXbv2qVOnJkyYsGDBAkknT55s3br1zz//XKtWLcOHr1OgQIHjx4/b2pdMN7EbI45XQUxeffXVoUOH2trnz58vXbp0YGCg646MVMTHx0dHRwcEBHhy+851mJxUMDmpYHJSweSk5JZnZtcuBQR4nDhh2P9QJvfxX/IF5Tl+UpL1gQcKREe3SNsfClnTLU9OTsDkpOJunByr1ZrSabOMkNFrZmWlE3sc18sIzEwqmJyUMDMpYWZSkbmTs2GDxbUSVaWK1c8vIaWfi9vHH1f+zr69r78+n6duxnHlzZue/x2ZOzNZGTOTkuw3Mymd3rtB+Xj16tUdO3a8cOFCWvbt2rjelZYWERERjtqxpNmzZzds2NDWrl+/fvXq1ffu3SspMTHxgw8++Pbbbx2ZySpfvryjfOxoOPz333+Odvny5V1GnLy9vb29vV0jnp6eN/U3pZvNz1GYnFQwOalgclLB5KTkFmZm2jSdOGGI5NOF/dVaWX7eK0mVKlkiIjwdT3jczW5hcnIOJicVd9fkWK3WO/azvQNrZmWlE3sc18s4zEwqmJyUMDMpYWZSkVmTs2TJvdL9ju599/0THv6Hy7hT2cjI2lOm2Nrv3/POzGP9jOPy8YlfuzbcFLx9mTUzWR8zk5LsNDMpnd5LrXx89OjRDh062DZQpHGBe8O15vX27Nnj2n3wwQcdbXd39xo1atjKx5J27tzpGEpJnTp1fvzxR1v70KFD586dK1CggK175swZ13eo69Sp42gDAHK4q1f100+6tkC189blVfnaW37+WZJKllR0tK474g0Ad2bNnKVO7HFcLyMwM6lgclLCzKSEmUlFJk5OQoI6dDD8j377bVlPz2RefLV8+6371Km2duKoUT36jXy1jDFDWrnS8vDDrczR25CJM5PFMTMpyX4zk9LpvdTKx+PGjYuNjU3jIviWmaZ4x44dDRo0sLUTExN///13x5C7u7utsX//fte9w2vWrGnSpImt3blz50mTJtnaVqs1NDS0Xz/7d6jmz59va9h07tzZtQsAyLHi49WsmTZtMgTdlRBV8Ik6p9dIUsGCiopS2WSWtgBwZ9bMWerEHsf1Mg4zkwomJyXMTEqYmVRkyuSYHs1r21Y+Psn9HBYvVr9+sn2rdcQI91GjSlot3t66dm2SXdWqHhnxX5ApM3NXYGZSkp1mJqXTe27mgIuIiAjbOtixP8J6I4bPp41pF3CvXr3mzp27e/fujRs3PvHEE46tx7ouM1mNGjVyTRsxYsScOXP27t07Z86ckSNHOuKPPPKIY8ENAMjhNm40144l659Nn210erEk5cmj8HBVq2bKAACbO7NmvuGJPUc3jSf2HG3biT1HlxN7AIAMcu2suF2XLoauXXS0unZVYqIkDRigDz6QxeLmJtMOwMBAJXc8BkCGSG338cGDBx1tq9VaokSJgICAEiVKeHl5uWTdrnr16jVq1Gj9+vW27v79+5944gljiiR5eXm99NJL5mhyZs6cWa9ePdtVHWfOnOnZs6cpIW/evF988YUpCADIgaxWbdki4wWekvSBXqmwZqYkeXpq0SLVrWvOAIBr7sya2bQThBN7AIC7S1KSXnjBELmuWiNt3KgOHXT1qiT17KnPPtO1wz0zZujRR2X7XmqFCrr2pxaAOyG18rFt6Wm1Wi0WS7NmzZYvX56+i2Abi8USGhraoUOHH374wTx2jZ+f39dff10tbTu/7r///ujo6E6dOh09etQ8JhUvXnzBggX33++8qR0AkGO9845GjTIHPy099oWYsZJksWjOHAUEmDMAwMWdWTNff2IvJCSkVq1ap06dmjhx4q2d2Nu6dautO2LEiFy5cj388MPbtm3jxB4AICO4/EklSf7+hq4k/fyzWrfWxYuSFBysL7+Um/PEvLe3Bg509ADcUamVjytUqOB42fn555/PiHWwTZEiRTZu3Lhs2bLQ0NDt27fHxMTExcV5eXkVKlSoWrVqQUFBffr0KViwoPljKXv00Uf//PPPqVOnLl26dPfu3WfPnvX19a1atWq7du0GDBiQN29e8wcAADnSxInmyGcPfjFw+7XSyZQp5mNyAHCdO7Nm5sQeAOCu9uefhm6fPoaudu1SUJDOn5ekwEB99508UitYAbiTUvvd2LFjxx07dtjabi7f88kIFoulXbt27dq1Mw8kp1y5cje8My5v3rzDhw8fPny4eQAAAOnwYS1apFOnDMFgLRyw4xl757339OyzhmEASM6dWTNzYg8AcFfr1s3Q7dHDpfPPP/L3ty/NGzTQokUyPtAKIHOltsB99tlnixQpYnsJhK0HAIBs48gRPfCABg0yBHuXWj3f/Qk3a5IkDRmiV181DANACu7Ymtl2Ym/JkiW9evWqXr16/vz53d3dc+fOXapUqcDAwHHjxv39999t2rQxfyxlthN7H374YcOGDQsXLuzh4VG4cOGGDRt++OGHf/7556OPPmr+AAAAt8r1cE6ZMs62Dh1S8+ayfS/zoYcUFiYfH5dhAJkvtd3HhQsX/u6771q2bBkfHx8WFta1a9f333/f9f0NAADuRsuW6cQJQ+RhbfvqbHtL4lVJevJJffSR45kOAEjdnVwzc2IPAHA3unjRfi+FjfP6pePH5e+vAwckqXp1RUaqQAFnHoCsIbXysaRmzZpFR0d36dLl+PHjoaGhoaGhVapUqVy5sm2zgzlbkmSxWDJ02wUAALfs4kV9+60GDDAE79OeaM+WlthYSWrXTjNmuD7TAQA3xJoZAIBUvP22oWt/BO/MGQUG2t/Uu/deRUerUCFDHoCs4QblY0nnzp3z8vKyWCy2zQu7d+/es2ePOeka25PTLIUBAFlT584KDzdESinmh7yBvrEnJalRI82dyzMdAG4Ba2YAAFJi+iOxaFHpwgW1aqVff5WkUqW0apWKFzckAcgybrC7aurUqR06dDh8+LBtjWu7082aMvPnAQDIMk6dMteOC+nktoKBBWNjJKl2bS1dqty5DRkAkAasmQEAOHlSLVooVy55eKhGDW3bZo/HxGjJEmear69y6bLat9eWLZJUtKhWrVLZss4MAFlMahusdu7cOWjQIMcC19awrYZTwmoYAJAFLV2qVavsjzk75NWFFWpZ7PQeSapYURERXLUG4BawZgYAQNJ77yky0t7euVP9+2vHDknmF6knfRyvzp21Zo0k+foqKkqVKxsyAGQxqZWPx48fn5iY6Ng9kfoiGACArGnOHPXsaQ566cqPxTtUO7pNkkqUUHS0ihUzJwFAGrBmBgBAsheLHX75RWfPytfXEHdTYos5vbQyTJLy5lVEhGrVcg4DyJJSKx9v3LjRdR3MLgkAwN1owQJzxE2Ji326Vzu6WpL8/BQVpXLlTDkAkEasmQEAkLRunTni52foWpT0leczhVbOk6RcubRsmerWNWQAyJJSKx8fOnTI0bZard26dWvUqFGJEiV8fHw8PT1dEgEAyIpiYjRxohYtMoWtUzWg5cWFkuTjo/BwVa9uygCAtGPNDADA3r3myHWs4zW0V/xMSfLwUGiomjQxZQDImlIrHxcsWPDo0aO2bRRDhgz56KOPzBkAAGRVSUlq1kz/Z+++o6sotz6O/05CEkpCr4J0RBFE2iuINCUJhN6UpoDSuRQRRLAgKoo0KYIoqKCAFAHpJRQpKgICItKkCSi9hEB6zrx/TDg5M8Ih9JTvZ7HufWbvfbJcs66HfXeeeebgQUswKEh9zw4K3jFFknx8NH++Kle2VADALaJnBgBgzx57xOY9vdNHYyXJy0szZ6pePXsFgOTKyx5wU758edfDd0FBQdYkAADJ2v799tmxpE+LjAzeMUySHA59+62Cg+0VAHCL6JkBAFi40B5x11/D39YHCRdTpqhFC0saQPLmaXzcoUMHXXtt9MmTJ+1pAACSq0OHsjRpYn/Cpl+Or0p83j/hYsIEvfCCJQ0At4WeGQCA6dMT188+q8GDEy+76rPhGpBwMW6cOnRIzAFICTyNj5s0aRISEmJuphg+fHh4eLi9AgCA5OfqVb39dtXDhx3uwUUv/zD8YqeEi/ffV7du7lkAuG30zAAA5MiRuI6MlOtpnLb69jN1N9fOD4aqZ09XGYCUwtP4WNJ3331XvXp1wzD27dv35JNPfv3112fOnLEXAQCQnGzd6oiIsLyuqmvJdQ1mtHQ4nZLUp4/efNM9CwB3iJ4ZAJCWXbki97/3Bg1SlSp680295D9/qtqbwSMt3/B6c1BiEYCUw/5gr7uiRYtKiomJkWQYxpEjRzp27Cgpc+bMWbJk8fK6/ujZ4XAcOnTIHgUA4L5Ytkz16ln+diuv38b+3UjR0ZL04osaNUoOy8ZkALgT9MwAgDRuyRLLZfHicjj0QbWVGt5SckpSjx5Fxn9oKd5b53kAACAASURBVAKQcngaHx89etQ8xE3XTnMzH8oLCwsLCwtzr3Tn+ggAAPfZsWNq2NASeUT7N2ep4xMWLkn16+vLL3WDUQ4A3B56ZgBAmvLXX/r1V8XHS1KxYipXTp99ZikoVkzauFFNmig2VpLatdO4cWzgAFIuT+Njk9n+GobhcDhu2ua63joNAMD99/PPCY2sqYCOb8oQ5BN2TpKqVdOcOfKxHGoBAHcLPTMAIC1YskSNG1tabpu8eeXz+zbVq6fISElq1kxTprCBA0jRbv4vsKv9Na6x5gEASBZiYiyvcc6hc6sUlCvymCSVLatFi5QhQ2IaAO4qemYAQFowcaKn2bGkHjV2KzhY5otk69TRzJlKd/OdiwCSsyT9O3zTDRQAADxwY8cqKiph7a/wZQp5TPskqVgxrVihrFndagHg7qNnBgCkesuX2yPuiungaysDdemCJFWvrnnz5OtrLwKQ0txkfMy+CQBASvHLLwkLX0XPV9P/01ZJypdPoaHKm9etEADuMnpmAEBasHixPeKugI5vz/ZchounJKlSJS1erIwZ7UUAUiBP42On02kPAQCQLO3apQULJMlL8dPVNlCrJSlrVq1apSJFrLUAcDfRMwMA0ohp0+wRl9w6vTlT7cwXj0lS6dJavlyZM9uLAKRMNz/7GACA5K9dO/O/jYnq3kLfSzIyZtSyZSpd2lIHAAAA4LbMm2ePmLLpQqgC8189IEklSig0VDly2IsApFiedh8DAJAixMVp505JGqo3u+gLSfFe3sbs2emqVLFVAgAAALgNtpMr+vRR+vTavVsZ4sI/+LXuIxf/kKSHH9bq1RwcB6QyjI8BACneoEGS1FejBukjSU45fuvdp1xwsK0MAAAAwO2ZO9dyWa+eateWIiMV0lAXt0hSnjxas0YFC1rqAKR8jI8BACnb3r0aMULtNHWU+pmR6FHjThZ7uJy1DAAAAMDt2bZN335riTz9tBQTo+bN9eOPkpQ9u0JDVaKEpQhAqpDU8fHWrVt//fXXv//+OywsLC4uzp5243A4vvzyS3sUAIB7Y8cONdTCKepoXo4IeK9Pzy5atsxaBQD3Az0zACD1OXlSNWpYIgMGKKNvnFq3Tei6/f21YoXKlLEUAUgtbj4+XrRoUf/+/Q8ePGhPXI9hGLTCAID7Ztkyfd5m/Uq9kE7xksaqV74Jb0meRjYAcC/QMwMAUqsff1REhCVS5SmnOnVKOM8ifXotWaJKlSwVAFKRm4yPP/7440GDBkkyDMOeAwDggTIMje+wfbEapFe0pOlq80P1T9a96IiNtVcCwD1FzwwASK3mz1fr1pZI/oeMOiv7aOpUSfLx0YIF9s3JAFIXL3vAzW+//TZo0CCzCXYkjf1HAABwz5z/5cC0M3UyK1zSEtXroK8rVPL09xoA3Av0zACA1Or339WsmT24t9lbfp+PlyQvL333nerUsVcASF08/d/scePGmQ/WiZ0UAIBkZtrQE1erBubWWUkb9czzmpO/kE+fPvYyALjX6JkBAKmV+VY8d/OfGhYw/sOEi6++us50GUCq4+nwig0bNrj6YIfDQTcMAEgmIk+cr/R2cCEdk/S7nmigxZHKePiwvDz9VhQA7gl6ZgBA6nP6tHr10pw5lmDvdBOa/Dow4WLCBLVrZ0kDSKU8jY9PnTrlWhuG0axZs/r16z/00EO+vr5uVQAA3FfhJ6/E1KpXytgj6aCKBWtlmLKWKcPsGMCDQc8MAEh9evTQvHmWyEuaNibufwkXw4ape3dLGkDq5Wl8nDVr1jNnzpjbKLp27TphwgR7BQAA99e8mdGZ2zYNNH6VdFJ5g7TqtPIWLCj+jgLwoNAzAwBSn19+sVw20/dfO16W+YDNoEEaMMCSBpCqedqp9eijj7oevmvYsKE1CQDAfRcfn6HLi4FGqKSLyhqslUdUNCBAR4+qWjV7LQDcH/TMAIBUY906PfGEHA79+29isI6Wz1RrL8MpSb166YMPEnMA0gBP4+N2bqfYnD592i0DAMD9duG88U+THiFX5kqKUIb6WvKHnpBUtaocDnsxANw39MwAgNTB6VTr1vrjD0uwutYv9mnqq1hJ6tBBn3xC8w2kNZ7Gx61bty5Xrpz5JpARI0aEh4fbKwAAuC/WrtUXed7Ov/hzSbFK10zzflZVSU89pbFj7cUAcD/RMwMAUoGrV3XokNzO85ekStqyRPXTxUZJUosWmjyZ940AaZCnf+19fX3nzZuXP39+wzD27NlTvnz5adOmnT171l4HAMA99lf3T96IHyrJKcdL+maF6koKC9PmzXrkEXsxANxP9MwAgBRt92499pj8/e19dWn9sUJ1AnRFkurV0/Tp8va2VABIGzy9Ok9S4cKFf/vtt6CgoN9///3QoUMvv/yypMyZM2fOnNn7Bt8aDofj0KFD9igAALflyhUdGfJNl/19zcteGjdLrSQ98ogCAiyVAPCg0DMDAFKuN97Qvn32YAkdCFVgdl2UpJo1NXeufH3tRQDShpuMj+Pj44cNG7Z7927zcTzzrSBhYWFhYWH20mvMSgAA7tz58xpYevHEUy+bl4P17gT9T1LVqho3jlPXACQX9MwAgJTCMHTmTIajR1W8eEI7vW6dvaag/l6t2nl1WpKeekqLFilDBnsRgDTjJuPjTp06TZs2TZJhGA6H46Ztruut0wAA3LnNwzeMPfV8OsVLGq//vad3JG3dqooV7ZUA8ADRMwMAUoR//lFgYLq9e4MklSihFSv05puKiLDU5NGp1apdUMclRT7yRIbly3noD0jjPJ19vHz58qlTp7oujWsSKwAAuGf++GZHtRENMihK0gy17q2xkiMgQKVL2ysB4AGiZwYApBSffqq9exN+x/nXX2reXLNmWQp+nHf+WMnAEjooyXjkkQwbVilbNksFgLTH0/h4woQJrrW5jSIpmykAALhzXw38K3e7OpmNy5KWqW57TTXk9eyzWrxY6dPbiwHgAaJnBgAkf3Fx2rFDU6ZYgjt2WC7zZLj8zNA6vvt3S1KhQo7Vq5Unj6UCQJrk6fCKXbt2mY2v+RQeeygAAPfJP/8EjQzMozOSNqlqc30fJ5/XXtPIkfZCAHjg6JkBAMlcWJhq1NDvv9vj7jIo4vdCDby3b5OkvHm1erUeftheBCBN8rT7+Ny5c661v7//pEmT9uzZc+nSpZiYGOeNxcfHu/0MAABuzdaVF85VCC4Q97ekXSrTQIsjlVFSrVr2SgBIDuiZAQDJ3IIFN5kd+yr653zN8uzbIEnZsys0VMWL24sApFWedh/ny5fv6NGj5jaKDz74oHPnzvYKAADuqrlTrxboUC+n/pR0WEWCtfKSshUqpEGDVK+evRgAkgN6ZgBAMnfggD3izltxM9X6yZMrJCkgQCtX8rIRAO487T6uVauW6+G7UqVKWZMAANxtMTFF+jWtos2STilPoEJPKZ+k334T0xgAyRY9MwAgOTMMffSRPejikPNLvdJM8yUpQwYtXaqKFe1FANI2T+Pj7t27e3l5mUe57dy5054GAOBuiI/XjBka+Hr872Vfqnh+laRLyhKkVYdVTFKFCsqRw/4RAEg+6JkBAMnZ/v2Wy9deix85cv21K2O8erbTN5Lk66sFC1StWmIpAEjyPD4uX778G2+8YRiGYRhDhw7dYXslJwAAd0O/fmrb1ig44n9l982WFKEM9bXkDz0hqWdPLVpkrweAZIWeGQCQnB0/brl8+mmjYMHLmTMbkvGRBvbQREmGt7dmzVJwsKUUACR5Pvv42LFjnTt3PnTo0OzZsy9dulS5cuUXXnihfv36JUuWzJIli5fXDUfPBQsWtIcAALiB777TEA3upkmSYpWuub7/Sc9I2rxZTz1lLwaA5IaeGQCQnK1da7msX99Yvtz5ww/xRzoPf/ngx2bQMXWqmjSx1AHANZ7Gx4ULFzafwpPkcDhiY2NnzJgxY8YMa5Wdw+GIi4uzRwEAsIqK0qRJ2rNHL5we+47eN4PtNXW5QiTlz6/y5S31AJA80TMDAJIz9/fmVawo86+s6jvH1zr4ZkJ04kS1bZtYBABWnsbHklyvAZHkcDjcLwEAuBNduuibb9RW336hPmakl8ZGNW3TNqPy5lW3bvLxsX4AAJIremYAQLIVEZG43rVLkgquXu396acJoeHD1a1bYgUA/MdNxsfmTgrzKDeHw+HaWHEj9MoAgCSaN0/1tfhrdTAvh+idTx29Lk+Tv7+1DgCSPXpmAEDyZBhasSLx8t135Zg798mJExOu335b/fsnpgHgem54Fpu7pDTBAAAk0XffqVkzlbu6cY6eT6d4SZ+qx7t6t149ZscAUjB6ZgBAcnP0qOWywqml3u3aOZxOSerdW0OGWNIAcD032X0sNkcAAO6qefPUurXKaud61c+gKEkz1Wpzq3FjKzteecVeDAApBT0zACAZOnEicV1T6wI/b+aIi5Pk7NDB65NPEg5CBgCPPI2Pq1evzgYKAMDdtXSpiungCtXJosuSlqtOZ5+pF6d5cdIxgBSKnhkAkGy99FLC4iltXqwGjuhoSSeeeSbPxIle/OUFIGk8jY9//PFHewgAgNsVHq4hQ7Ti639/UmBenZb0s6o01/ctWvsyOwaQctEzAwCSrdOnJekJ/b5cdf11VZIzJGT7yy/X9fa2VQLAjSTp7GMAAO5c9+76atSFlQouoqOS/lDpdtmXTJ6RafJkeyUAAACAO7RsmSIj9Yj2hyowmy5J0rPPxs+aZaTztJUQAGz4ygAA3Cc/rbq6RPXLaLekwyoSrJWfTs7etKm9DAAAAMAd2rNH9eqpkI6uVu3cOispqlzl9AsXys/PXgoAHrH7GABwP3w3LWbCmeZP6xdJp5QnSKvSF3modm17GQAAAIA7t3at8urkatV+WCck7dCTcQuXyd/fXgcAN8P4GABwz+3c7lT7dnW1QtIlZQnWytZvF9+yRZkz2ysBAAAA3Ln1886tVu3iOiRprx6d0nyl/8PZ7EUAkAQJ4+OBAweeP3/emrpT58+fHzBggD0KAEhrDMOrT69WmiUpUukbaPGf3mX791fOnPZCAEjmBgwYQM8MAEj+os+EDfixzuPaI+mICj+fNXTMzNz2IgBImoTx8ciRI4sWLfrqq68ePnzYWnA7jh492rdv3yJFiowcOdKeAwCkJYahjbWHPLFxgqQ4ebfQ3E2q1rGjAgLslQCQ/I0YMaJIkSL0zACAZO3q1djg+hX1m6R/la+2VjfrXcDHx14FAEmUeHjF1atXx40bV7JkyTp16syaNevq1atuZUkSGRk5d+7ckJCQEiVKjB079sqVK/YKAEAa82eXcdXWDjHXHfT1UtUvXlwTJ1qLACDloGcGACRr0dFq0sR/5yZJZ5WztlYfVrG2be1VAJB06dwvDMOIj48PDQ0NDQ318/OrVavWc889V7169dKlS6dPn9690iU6OvqPP/7YtGnT2rVr16xZExUVJckwDHsdACANmjGj9OTe5rK3xkzXi5LatJEXB+8DSMnomQEAyVRcnFq2VGiopDBlDtbKvSqVPbuKF7cXAkDSWcbHDodD1xrZqKioFStWrFixQpKXl1ehQoUKFCiQO3fuDBkyGIYRGRl59uzZEydO/P33306n0/y4qwN2/zkAgLTJWLLU+VJ7b0nSe3p7nHpLypdP7dpZ6wAgpaFnBgAkN06njHino0MHrx9+kHRVGUO0bIfKS7xxBMCdShgfz5kzZ8CAAUeOHHE4HGYjK7deNj4+/vDhw0eOHDEvXWzNruuDkgzDKFy48KhRo9zyAIA0Y9Mmo1lzb2ecpInqNlhDJFWsqLVrOfUYQAr2/fff9+/fn54ZAJB8REWpUyfNnWN8EtOjm6ZLipZvIy38WVXNgt4JTwMCwG1KeH64SZMmf/7554gRI3LlyuW+IcKd8R+2AvNThmHkypVr1KhRe/fubdKkiRkEAKQhu3apfn2vmChJs/RCT42XHJI6dWJ2DCBla9q06Z49e+iZAQDJx8yZmj7deD/m9W6aJClO3s9rzhrVdhU0a5ZYDAC3IfH4ST8/v9dee+3w4cNjxowpVqyY2ey6Vdo7Y1fvazLrixYtOnbs2MOHD7/66qt+fn7uBQCANOHQIQUFKSxM0koFvaRvnPKW9MQTatHCXgsAKQ49MwAgWdm5U2/pg/4aKckpx0v6ZpEaubLZsilHjsRiALgN9rcXZcyYsVevXgcOHFi3bl3Hjh3z5Mlj9rguZpktmCNHjvbt269evfrAgQM9e/bMmDGj9acCANKGkycVGKjTpyX9ospNNT9WvpKefFLbtytbNns5AKRQ9MwAgORg61Z5jR/zvt4xL7tq0ndq7cr6+Gj4cKWzvPQKAG7ZDb9FatSoUaNGDUl//PHH5s2bd+7ceeTIkVOnTl25ckVSxowZ8+bNW6RIkbJlyz711FNPPvmkbWMFACDNuXhRwcE6ckTSbj1eT0sjlMnMNGsmb/MlegCQutAzAwAeoI3tpozRq+a6r0Zl7N15b9fE7MMPK1NCPw4At++G42OXMmXKlClTxh4FAMBdRITq19cff0g6osLBWnlR2c1MmTLq1MlSCwCpDz0zAOB+mzWrz97O5vJdDf5EfefX0KOPWmsA4I7dfHwMAMBNxMaqeXP9/LOkS365g6JX/av8ZqZYMf3+u9hsBwAAANxNixfHt3nRW4akUeo7RIOLFVO9evYqALhz9rOPAQC4NU6n2rfX8uWSlDlzyywrDqqEK1mvHrNjAAAA4K5as8Zo0cLbGSfpC3Xqp5GSY/Fi+fraCwHgzjE+BgDcAcNQ796aOVOS0qef1WbxyjPl3PP9+rlfAQAAALgzv/yiRo0c0dGSZqh1N30mOQICVLSovRAA7goOrwAA3IH33tOnn0qSt3fEtDntXqzuntyyRQ8/7B4AAAAAcAd27FDdurp6VdIPatReU53yljRjhvz87LUAcFew+xgAcLs+/VTvvpuw/uqrPwo1iIlJTKZLp0ceSbwEAAAAcEf27lVQkMLCJIWqdkvNipOPpEcfVYMG9loAuFsYHwMAbsvMmerZM2H9ySdr8r9UubIlP2mSsmSxRAAAAADcpiNHFBioc+ckRZR7urF+iFZ6M1OhgqUQAO4uDq8AANy65cvVrl3C+s031afP+zXd0ypYUK+8YokAAAAAuE3//KPnntM//0hSuXJ14pZGKJMrOW6cawkAdx/jYwDALfr5ZzVrprg4SerSRe+/f+KE1q+3lJQvb7kEAAAAcJvOnlVgoI4ckaTHHov8YeXGQlldyTx5lD276woA7j4OrwAA3Ipdu1SvniIjJalFC02YMHWao2BBS4mPj8aMsUQAAAAA3I5LlxQcrL17JalIkYOfhQ4cncs9X7Gi+xUA3H3sPgYAJNnhwwoO1qVLkhQYqG+/lbf3hx/KMCxVO3eqUCFLBAAAAMAtu3pV9eppxw5Jyp//0BdrnqyX/+pVS8n06ZZLALjrGB8DAJLm1CkFBurUKUl66inNn3/kX79t2/TXX5aqrFlVvLglAgAAAOCWRUWpUSP9/LMk5cyp1atnzy9imx1nz66siedYAMA9wfgYAJAE5kNzhw9LUqlSWrp0+Ub/hg0TDkB2yZVLs2fL19cSBAAAAJB0kZGaPDG2xvgXyv69RlKEb5ZPaqw6PubRX36xV4aE2CMAcNcxPgYA3ExEhBo00K5dklSokFatUo4c48fbZ8eS9u5Vjhz2IAAAAICke6V9fL057ctqkaQryhQYs3zzvHL2Iundd9W/vz0IAHcd42MAgEexsXr+eW3aJEm5cmnVqrO++VdO1/Ll9sJHH+WlzwAAAMAdccYbz33frY1mSoqSXyMt3Kwq9iJp2DANGGAPAsC9wPgYAHBjTqc6dNDSpZIUEKAVK85me6R8eZ04YS9s1EjDhsnhsMcBAAAAJJVhRHTv94pzsqRYpWuhuWv1nL1G8vNTgwb2IADcI7cwPl63bt3ChQs3bNjw77//Xrhwwel0btiwoXLlyifcpgh58uTx8/Nz+xAAIMUyDPXpoxkzJMnPT4sXq3z5JV9fZ3b888+qcp0tEQCQFtEzAwBu33vv+X8xWpJTjhf17RI16NpV6ayTG39/NW+uUqUsQQC4d5I0Pt67d2/Hjh03b94syTAMM+hwOCR5eXnVrl370KFDZvCdd94ZPHjwtc8BAFKyDz7Q+PGS5O2tOXPOl64x7wv16WOvyppV5a5zFBsApDn0zACAOzJ6tN5911x20uTZailp4kSe8APwgHnZA/+xYsWKypUrb9682TAMsw82m2CXLl26mCnDMGaYm9QAACndxIl6552E9ZdfxtZtWLWqunRRZKSl6oUXtHq10qe3BAEgDaJnBgDckS++0Guvmcs++uQrvSKpenVmxwAevJuMj3fv3v3888+Hh4cbhuG4xlbTsmVLXeuPDx06tHfvXlsBACCFmTVL//tfwnrUKLVrt3mz9u+3lEjq00ezZqlCBXscANIaemYAwB2ZOVNdu5rLt/XeWCU88fftt4klAPCg3GR83LFjxytXrrh3wOZmCnf58+cv5/bc8po1a9ySAICUZsUKvfiizG/7gQMvd+w7bpzatLFXSapTxx4BgLSJnhkAcPsWLtRLL5nt94RM/T/QW65MnjyJVQDwoHgaH4eGhm7ZssW9Cf5vH2x6+umnza0WkrZu3WpPAwBSip9/VtOmiouTpM6dNXRow4bq3VvHj1uqWrXSnDkKDrYEASBtomcGANy+0FA9/7zi4yWtKdH1f1c/lhL+QqlYUbxmFUBy4Gl8vHDhQnNhdsCvvvrqcdv84JonnnjCXBiGwYN4AJBS/fGH6tVLON64eXNNnHjqtGP9entVSIhmzlSLFvY4AKRN9MwAgNv0009q3FgxMZK2lmwb+NcE1+xY0jffJBYCwAOUzh5ws3HjRofDYW6RCAwMHDVqlL3imrx587rWN2qXAQDJ2pEjCg7WpUuSjNq15zSYvqab97lz9ipJjRvbIwCQltEzAwBux/btCglRRIQkNWnS+8TXhtsOv3TplD+/6woAHiRP4+OTJ0+61m2ue+zlNQEBAa715cuX3TIAgJTg9GkFBsr82v+//5vWaEGHdtd5Uq5TJ9WqpZYt7XEASMvomQEAt2zPHgUF6fJlSaFeQU0Wf3c1zjKf6dVLmTO7BwDggfE0Pr506ZJrnd/jr70uXLjgWjudTrcMACDZu3RJwcE6dEiSHntMS5fObedvr5FKlNAXX9iDAAB6ZgDArTl8WLVr6/x5SRv1TGPn/AinZevG+PHq0cM9AAAPkqezjzO7/arrzJkzbhm7I0eOuNZZs2Z1ywAAkreICDVsqN9/l6SCBcPmrnpjZM5ly+xVEpuOAeD66JkBALfgxAk995z52N8+/wr1tSRCmWwl9evr2gtZAeDB8zQ+zpkzp2u9Zs0at4zdjBkzXOvcuXO7ZQAAyVhsrF54QRs3SlKuXFq1qs2AAh9/bClp2FCvvaYZM/Tuu5Y4AMBEzwwASKozZ1S7to4elRRZtNQzV1ZcVhZbSY8eKlzYFgOAB8nT+Lh8+fLmO0AMw5gxY8Yvv/xir5Akff755zt37nS9MKRixYr2CgBAMuR06uWXtWSJJAUEaPlyZ4mSK1bYq/r108iRat1aXp7+xgCAtIueGQCQJBcvKihI+/dLUrFiLz+8+rwSfwE5bpx27NDJk/r0U1cMAJIFT8OAmjVrmguHwxEVFRUYGNi1a1f3gvnz5zdq1Kh79+4Ot8cqXJ8CACRfhqG+fTV9uiTDz290zUU1+laoXl3x8ZaqkiVVubIlAgCwoWcGANzclSsKCUk4Mq5AAa1eHbo7n3u+bl09+aTy5nWPAUCy4Gl83KpVK9dRbg6HIyIiYvLkyZIMwzD/85NPPlmyZIl5acqWLVuLFi1clwCAZOrDDzV2rCR5eQ15bNZri2tu2KCffrKUjB6tn36Sj48lCACwoWcGANxEVJQaNdLmzZKUO7dWr579a+Hz5xPz1aqpePHESwBIVjyNjwMCAvr27evqdM1H7dwLDMMwH74z1w6Ho1+/funTp3evAQAkO5Mm6a23zKUxecqHfza2piUpIEB9+ihHDnscAGBDzwwA8CQ2Vi1aaO1aScqaVatWqWTJAQMsJRxYASA58zQ+lvTWW29Vq1bNvRt2zzocDvdI9erVB9i+AgEAyc3s2ere3VxOLDLiiU86xMZaCyRJ3brxumcASCp6ZgDA9cXH68UXE143kimTli9X2bL79unvvy1VbD0GkJzdZHzs5eW1ZMmSoKAg927YxVVmGEZgYOCiRYtsvTIAIHlZuVIvvijDkDRMA3oc6bd7tyU/apQmTNCaNRo2zBIHAHhAzwwAuA6nU126aPZsSUqfXosXq3Ll99/XY49ZqsaMUcaMlggAJCs3GR9LCggIWLZs2WeffZY/f37zyTubfPnyTZw4cdmyZQEBAfYPAwCSj82b1bSpYmMl7X2m40B9ZMsHBKh3b3XvrmefZesxANwaemYAgIX5quovv5SkdOn0/feqVSsm5jq7NLp1s0cAIFlJZw9cj5eXV5cuXTp37rxt27aNGzeePHkyLCwsa9asefPmfeaZZypVqsQGCgBI7v78UyEhioiQdPz/mpbeNEmyf3W/+qq8vW0xAEBS0TMDABINHmy+qtrw8vqp+4wjF+rpW4WFmf14orJl5etriQBAcpOk8bHJ4XBUqlSpUqVK9gQAIJk7elRBQbp4UVL0M8+V2DTTqcQ5cdWq6tFDjzyi8uUTPwEAuD30zAAAjRih9983l50dU6aMe96aTvDMM/rsM3sQAJKbWxgfAwBSpNOnFRiof/+VpIoV1/xvQfQmP/d8tWpq1co9AAAAAOB2TZqk1183l1PLjZ2yo4M1ncDfXxs32oMAkAzd/OxjAEAKFhamOnV08KCkuBKPts62vF5Ly5mbefOqY0f3AAAAAIDbNX26unc3lztbfNBhShmSpQAAIABJREFURy9rOlG1avYIACRPnnYfX7p0qVmzZsa190c3b968+7UvQXcTJkyYN2+eufby8po3b16WLFmsJQCAByEyUg0baudOSXr44SFPr/puWk73vMOhv/6Sv797DABwa+iZAQAJFixQ+/YyDEnfFRzQeu4g92SRIsqWLWFdurSGD3dPAkDy5Wl8vGTJknXr1jkcDsMwfH19Z8yYYa+QJLVo0aJfv34xMTGGYTgcjkWLFr344ov2IgDAfRYXpxde0IYNkpQzp1atWtXuYVvJyy8zOwaAO0XPDACQpJUr9cILio+XdLlt99bTP7K9qvqzzxQc7B4AgJTB0+EV69evl2Q2uA0aNMiXL5+9QpKUO3fuxo0buzZcrF271poHANx3Tqc6dtTixZLk73959vI6fR7dssVSkiuXXn3VEgEA3AZ6ZgBIy8LDNW6cxj+/MaZ+E8XGStJLL40pNt42Ow4IUJUq7gEASDE8jY937tzpcCR839WuXduatKhVq5Ykc8/Frl277GkAwP1kGOrXT9OmSZKvrxYu/GRjxZUrLSUffqjjx/X445YgAOA20DMDQFrWrJm+6b2t3dx6vnGRkr5Xs6YXvxw8xDJsaddO69Ypc2b3GACkGJ4Orzhy5IhrXaRIEbeMXeHChV3rv//+OzEBALj/PvpIn3wiSV5e+u47Z81nQ9+xl7RsKT8/exAAcBvomQEgzbpwQf+G7l6v4MwKl7RcddpoRsxiy6SlTBlNneoeAIAUxtP4+PLly651unSeKt2z4eHhbhkAwP31+ed6882E9RdfbMjZtEU+nTljKenbVx7nGwCAW0DPDABp1q75B0MVmEMXJK1X9WaaFyP7Ho0mTWwBAEhhPDW4fn5+ERER5trz/ohjx4651r6+vm4ZAMB9NHeuunVLWA8frldeea2SfXb8ySfq08cSAQDcCXpmAEibYg8fL9LpuXw6JWmLKjXQ4khltNVUrarBg20xAEhhPJ19nD17dtd6sfn+pRtwz2bLls0tAwC4X0JDjTZtZBiSzr3y+t76/ffu1Z499qqnn7ZHAAB3gp4ZANKi06fjatUupGOS/lDpuloeruucbfzmm/LyNHcBgBTA09dYwYIFzVdIG4axaNGi0NBQe4UkafXq1T/88INZ5nA4ChUqZK8AANxjxuZfo0KaOGJjJU3RK7m+HFaqlEqV0rX9cAl69VKlSpYIAOAO0TMDQJpz4YKCgjIcOyDpLxUPVOgF5bDXSA8/rOrV7UEASHE8jY+rVKliLhwOh9PpbNy48YQJE2JiYlwFMTExEyZMaNy4sSsit08BAO6TPXvig0PSx12VNF9NumqS5LDXSEeOaOxYOa6TAQDcPnpmAEhbwsNVt6527ZJ0TA/X1urTyivp9GmNG6e33kr488kn2rxZmTLZPw0AKY6ns4/r1q07cuRISeYWicjIyF69eg0YMKBs2bJZsmQJCwv7/fffIyMjzazrUyEhIYk/AgBwjxlH/459Nsjn8gVJa1WrtWbGX++7PU8ePfywPQgAuHP0zACQhkRGqmFDbdki6ZTyPKc1x1RIUu3ayp1bPXvaywEgFbjOiMGlVq1ajz/++J49e8xO13zULiIiYvPmzWaBYRhm3Fw7HI7HH3+8Zs2aiT8CAHAvpbsQdubJkAIR/0japgqN9UO00tuLpEKFNHGivL3tcQDAnaNnBoC0IiZGzZvrxx8lRWXMFhgRelAlzEyXLu51AJCqeDq8QtKoUaPcLx0Oh9kQm8xL9+zo0aPdygEA99Lly+XfHFog4i9J+1TS9b6O+vUVH2/5c/So2OUGAPcOPTMApH5xcWrbVsuWSTL8/atHrNitMq5k8+aJhQCQytxkfBwUFDRw4EBzx4SL2QG7N8GmQYMG1a5d2xYEANwTUVFGw6b5Th6QdFwFgrTqnHKZmQoV5OVl+QMAuKfomQEglXM61amT5s6VpPTpz361ZKv+z5V88knXEgBSoZsPFT744IOPP/7Y29vb1hC7GIbh5eX18ccfv/fee/YcAOBeiIsLr9/S9+cNks4pR5BWHVdBSTlzqlUr9etnLwcA3Gv0zACQahmG+vTR1KmS5OOj+fO3Zqzhnh840P0KAFKbm4+PJfXv3//PP/9s06ZN5syZXU/hmTJnztymTZs///yzf//+9o8BAO4Fp1OdOgWsWSjpijLV1fJ9ekzS88/r7FnNnCl/f/snAAD3AT0zAKROb72l8eMlyctL332nunV79LDkn3/ecgkAqYynV+e5K1GixLfffhsfH79r166TJ09eunQpa9as+fLle+KJJ7x5GRMA3DeGof79zb0P0fJtpIXbVMnMVK7sXgcAeADomQEgtRk2TB9+mLD+6is1ayZZXknt55e4BoBUKanjY5O3t3e5cuXKlStnTwAA7o+PP9bo0ZLi5dVK363Vc2a4Tx/ZNkEAAB4UemYASCUmTEg8meLTT9WunaSDB3X4cGIJTTiAVO/WxscAgAdp8mRX/9pFny9QU3P99ddq395VBAAAAOCOTZum//0vYf3RR6458Ztvuiok0YcDSP2SdPbxPTV16lTXa6k9m2oeVH8z7du3t3/yP65cuWL/GAAkc99/b3Ttai4HaNiX6miuHQ6jatXEKgBAqkTPDAD31bx5evllcxn92qBDLd44dEjmn507LYWFC1suASD1Seru4y1btmzZsuXvv/8OCwuLi4uzp904HI4vv/zSHgUA3InVq52t23g5nZJGqN9wvW6Gs2WL+uyzdCVKJPXLHABwT9EzA0BqsHy5WrWS0ynpl0o9nxn9gXOUvcQUGKiAAHsQAFKZm08c5s+f/8Ybbxw6dMieuB7DMO5dK5w7d257CADSgi1b1LixV2yMpK/U4XUNlxxmZvToH5s2TTj+GADwANEzA0AqsX69mjZVbKykiOfbV50zxrjWe//Xe+/ZIwCQ+txkfDx06NB33nlHkmEY9txd0rx585o1a9qjkqRGjRrt2rXLXBcvXrxOnTrW/M1t3LixQIEC9qiUKVMmewgAkqe9e1W3rq5elbRAjTvrC9fsuFQpI2vWaEsxAOBBoGcGgFRiyxbVr6+oKElq0WJL5ynGnBue+ZkunUqWtAcBIPXxND7esmXLO++8Y26OcDhu+Ns2d7fRMfv7+/v7+9uj0q+//urqgyX17dvXy+uG39o3UqBAgcIcRAQg5fr7bwUG6sIFSetUs5W+i7/2vd2xo15/PW7PHks5AOD+o2cGgFTijz9Up47MY99DQuKmTq+Vydtec02OHBo6VNmy2eMAkPp4ai7Hjx9v9sG6rR73Do0YMcK1zpkzZ/vbeptpo0aNsmbN6uvrmzt37po1aw4bNuzChQv2IgBIns6eVVCQ/vlH0m8q30gLo5XezIwdq8mTeU0HACQL9MwAkBocOKDAQF28KEk1a+r77zdt8XXPly2rqKjEP2fOqEsX9zwApFqexsebNm1y9cEOh8NIAvuPuF2HDx9esGCB67JHjx4ZMmRwyyfVrl27wsLCYmNjz549u379+oEDB5YsWXLVqlX2OgBIbi5fVt26OnBA0tnsj9TV8nBldiUDAxMLAQAPFj0zAKR4x46pdm2dPi1J//d/WrRIGTIcOGApqVRJfn6Jf279SQ8ASKk8HV5x6tQp19owjBo1arRo0aJAgQIZM2ZMly5dEh/Nuz2jR492Op3mOkOGDD169LDmb9+5c+caNWq0adOmChUq2HMAkExERalxY/32m6QLGfNXvLDqrBLfg7RunR57LLEWAPBg0TMDQMp26pSee07Hj0vSE09o+XIFBDid9s3FH35ouQSAtMPT+DhTpkwxMTGGYTgcjpCQkMWLF9sr7o0LFy58/fXXrst27drlypXLLX9zJUuWbNq0abVq1YoUKRIeHr5t27b333//5MmTZjYqKqpv377r16+3fihBdHR0dHTCq6guX74sKTY2NjY21lJ0A2ZZEovTGm6OB9wcD9LizYmL827Z0mvdOklG9uxBUSuPqZArmTevUbVqnHk/0uLNSRrujAfcHA+4OR6kxJtjGMb9+QdOgz0zDfO9wJ3xgJtzI9yZG7mFO3P+fLratR0HD0oySpSIW7pUAQGKjd2yxeE+MGnY0Jk1a3xSfl7ydws3J43hztwId+ZGUt+duVH/7IiOjvby8nI4HOZ/uucqVaq0fft2sxVetGhRvXr13LP3ztChQ9966y1z7eXltW/fvhIlSlhLPPnnn3/y58//32CZMmUumscYXYs89NBDbiUJ3n333SFDhrhHZs6cmTFjRvcIANwrhvHkp58WWrNGUlz69HO6jG4ztpt7vm7dI126JL4iCQBwI4ZhXL16tW3btmfPns2UKVN8fHxcXFxcXFxsbGxMTIw5AG346khnfFy6Y5slHTp0yP4jkiYN9sw0zABSh3QREU8PHpztr78kReTKtfHDD6Ou/R7up58eGjGikquyXbs/mzQ56LoEgFTpRv2zp93HDRs2/O2338z1bbzB+fZER0d/+umnrstGjRrdUh8s6b99sBns0KHD6NGjXZGdO3f+txWWNHDgwL59+5rry5cvP/zww0FBQZkzJx456kFsbGxoaGhgYKCPj489l+Zxczzg5niQ1m6O1xtveK9ZI8nw8YmYsaBNszru2bfeih84sICPTwHzMq3dnKTjznjAzfGAm+NBSrw5hmFcunTJHr0H0mDPTMN8L3BnPODm3Ah35kaSdGciIrwbNPD66y9JRt68PmvXPlu8uCv53nveiZXSxImP+Pg84h5JuZJ0c9Ik7syNcGduJPXdmRv1z57Gx507dx41alR4eLikpUuX1q1b115xD0yfPt39/Lj+/fu7Je9I0aJF3S+vezsk+fn5+fn5uUd8fHxu6X8Ht1qfpnBzPODmeJBWbs7w4TL/H7vD4Zg586cMltmxj4/eecfbx8fSyCrt3Jxbx53xgJvjATfHg5R1cwzDuD//tGmwZ6Zhvne4Mx5wc26EO3Mjnu5MdLRattTGjZKUPbsjNNTH+naRw4cT1889p4wZb/BzUixPNydt487cCHfmRlLTnblR/+xpf0SePHlGjRplGIZhGJ9//vns2bPtFXebYRjumx2qVq1apUoVt/wdOez+9S9lz57d/RIAHrApUzRgQMJ60qSZMc1DQiz5Fi10va9xAMADRs8MAClMXJzatNGKFZIUEKCVK1W6tK3E/Xdn6TztuwOA1M/T+PjYsWOBgYEdO3aUFB8f37p16+Dg4KlTp27fvv3IkSPHbsz+g5Js2bJle/bscV3269fPLZno6NGjDjc//vijK7Vy5cpBgwaFhYUlVkuS/v33X/dXizgcjvLly7vlAeCBmj8/8dXOH364NH/nNm0seUlffWWPAACSg2P0zACQgjideuUVzZsnSRkyaOlSVaxoK/n3X8vlu+9aLgEgrfH0S7TChQs7rr1Mz+FwGIaxevXq1atXW6vsHA5HXFycPZo0I0eOdK0feeSRhg0buiWTJDIy8qOPPho/fnzLli3r1q1bsmTJqKiorVu3vv/+++7vAAkJCcmdO7fb5wDgwVmzRq1ayemUpL599cYbK3vbS55/XtanhAEAyQU9MwCkGIahnj31zTeS5OurBQtUrZq9Rlq+3HLJFyGANM7T+FiSYRiutdkNuyXvst9++819T0Tfvn1v+90jV65cmTJlypQpU+wJSVKOHDnGjBljjwLAA7F1qxo3VkyMpIgX2ve8OHLfM46//rKUeHmpfXtLBACQrNAzA0DKMGiQJk6UJG9vzZql4GB7gWQYsn35FSliuQSAtOYm42NzJ4V5lJvr0oM76ZXdt1Hkzp27Xbt2bsmkypQpk5eXl9PcxHc9pUqV+u6774q7vVAVAB6YfftUt66uXJGkhg0bnpq8Zr39azZnTq1YoQoVbGEAQDJCzwwAKcCHH2rYsIT111+rSRNL9povvtDu3YmXNWroZl/qAJDK3WR8bLppB3znjh079v3337sue/TokT59erd8UgUGBh4/fnzRokUbNmzYvXv38ePHw8PD/fz88uTJU6FChaZNmzZv3vy67xAEgPvt2DEFBur8eUmqUcM5c9a6zNf5Th41itkxAKQM9MwAkHyNG6c330xYT5yoF1+0ZN0sXGi5fPJJyyUApEHXGVXY3MnmiKQrWLBgbGysPXoDhQsX9vBP9dBDD3Xt2rVr1672BAAkH2fPKihIJ05IUrlyez5a2Dk4w383gRUqpHr17EEAQDLkoTu9i+iZAeB2fP21el97u8jw4erWzZJ1s3On/eDj5s0tlwCQBnkaH1evXv0+7KEAgDQnPFwhIdq/X5JKlDCWr2hcLYvtvOPx45Url2rXVo4cljgAILmhZwaAZG3uXHXsmLB+6y3172/JuomIUK1alsjrr+uZZywRAEiDPI2P3V/KAQC4O6Ki1Lixtm2TpPz5tWrVOa/cttlxlizq0YND1gAgZaBnBoDka+lStW4t8ym/3r313nv2AjfbtunSJUvkBscjA0Da4ml8DAC4y+Li1Lq11q6VpOzZtWpV6F+F//tAXL9+zI4BAACAO+L48Uc1a6a4OEl6+WWNHn3dJvvKFfXvr19/tc+On3hClSpZIgCQNjE+BoD7xTDUtasWLJCkTJm0bFl0sVLNq+jyZUvVrl0qU8YSAQAAAHBLsh044P3ee4qOlqQXXtAXX8jLy14kSXrjDU2aZA9K2rBB3t72IACkQdf/9gQA3H0DB+rLLyXJx0fz5+uppw4csM+OH32U2TEAAABwZ3btqjxkiOPKFUmqX1/ffuthErxxoz0iqVEjZcliDwJA2sT4GADuixEj9PHHkuRwbO09vXj3ID8/lS9vKfHy0ltvWSIAAAAAbs3+/Y7gEN+rVyVt8qlVdv+cz6b42Guu2b9fu3bZgz4+6tHDHgSANCuph1f8+OOPK1eu3L59+7lz58LCwpzmwfPX43A4Dh06ZI8CQFr21Vd6/XVzGTvus+cGPR8ebi2QJP3zj/LmtQcBACkIPTMAPGBHj6p27XTnz0j6RZXrxC66+leG7t1Vs6Yee8xeK+mVVyyXQ4aoZEk99ZQKF7bEASAtu/n4eP/+/W3btt2+fbt5aRiGNW/nuN5R9ACQdi1YoE6dzGXM4KG7n+5y3dnxs88yOwaAFIyeGQAevJMnVbu2TpyQtFNlQ7TsqvzNzNat1xkfO5369VdL5JVXlD+/JQIAuMnhFXv37q1Spcr27duNayQ5bsz+eQBI49atU8uWcjolfZn5Vb8hAytUsJdI8vfXO+/YgwCAlIKeGQAevHPnFBioQ4ck7VPJIK26pGyuZLt2mjgxsfb4cVWtKm9vxcUlBmvVYnYMANdxk/Fx+/btL126JGv7ay8CAFzXtm1q2FAxMZKW5nip0+WRkuUrNE8ebd+unTt19qxq1HDPAABSEnpmAHjAwsJUp47+/FPS316Fa2v1WeW2lfzvfzp1KmH99tv6+WdLVtLcufYIAECeD6/45Zdftm7d6t77uj+FZ4vTIgOAxf79qltXV65Iiq3ToPGKKcZ/fmP3+OMqV84WAwCkMPTMAPCARUSofn399pskZ958z55a/Y8K2Gskw9COHSpXTvHxZq1FjhzKmtUeBADI8/h43rx55sK9A3ZxBc3tFdetAYA06vhxBQbq3DlJ+3JXK7didpzsr3vOnVtDh9piAICUh54ZAB6k6Gg1aaJNmyQpR45hz60+PKOYveaakBB7xOTjoxEj5O1tjwMA5PnwCterPyQVLlz49OnTuraBwuFwOJ3OkydPTpgwIWvWrIZhZM6cecmSJU6nMz4+3vUpAEiLzp1TUJCOH5d0udiTT51ZHKUM7vmtW3X0qE6eVOXK7mEAQIpEzwwAD0xcnFq10qpVkpQ5c/i8VW/OKOWej49Xjhzugev4/HNdvKgOHexxAIDJ0/j44MGD5hYJh8Px0ksv5cqVy1aQJ0+ebt26bdy4MSAgIDw8vFGjRq7NFwCQRoWHKyRE+/ZJMooXH/HsisvK4p7PlUvlyqlQIXl5+gIGAKQY9MwA8GA4nerQQQsWSFLGjFq2bG+G8u750qUNLy81aOAes/PyUuPGypTJHgcAuHiaXoSFhbnWpUuXdstYlCpVqmfPnoZhxMfHd+zY8cSJE/YKAEgjzEfntm6V5Mz3UPPMoR9MzuOez5lTkybxWBwApCr0zADwABiGevTQ9OmS5OurH344kKvqU09ZSsaMiZf0zjsqW9YSd/H314gRym1/xx4AwMLT+Pjq1auudY4cOWR99UdUVJRrXaNGDTN7+fLlyZMnu+IAkIbEx6tNG61ZI0nZsi3qvnL+9sLu+aZNdfq0mjZ1jwEAUjx6ZgC43wxDAwZo0iRJ8vbWnDkKDBw3zlLy0ENXqlc3JBUpop075e9vyc6fr4sXdfGi+va1xAEA/+VpfOzn5+da+/r6Ssrk9kTH8ePHXWtXW2wYxuLFi11xAEgrDEPdusl8GDljxgvfLh210r4BrVo1DqwAgFSInhkA7rehQzVihCQ5HJo27fwzjVau1IQJlpKiRS+5X9aokbh2OFSlirJmVbp0iUEAwI14mmQEBAS41tHR0ZIyZ87sisydO9e1Xr58uWvt3iIDQFoxaJDMfWQ+Pqu7z8/ZoIr58meXli3VubMlAgBIHeiZAeC+GjNGb7+dsJ406bdH2xQpojp1LCWS2rXb4345ZoyefloZMqhQIU2erLx53ZMAAE88/a4tX758Z8+eNdfmQ3lFixb9999/zXeDDBkyxOl0li9fft26dV988YXrGb0rV664fgIApAkjR2rYMElyOPTtt93eCjYMS37AgIQ8ACD1oWcGgPvnyy/16qsJ65Ej1bnzpx0UHm4pkTRzZlzGjJHukeLF9dNP7gEAQFJ5Gh8XKlTo999/N9enTp2SVLp06U3XNtTFxsYOHjzYXJtvmjbXefJY3hMFAKnc11+rf39zebT/hJ1+Lxw9aslLqljRHgEApBr0zABwTzmdWr9eBw+q6NbZz07plPA1OnhwbK/X1qzQ1KmWYlOlSsaff9qDAIDb4+nwilKlSunaqz/2798vKSQkxJU191OYzBpzYb4SBADShB9+UMeO5nLek+8XGd6tSRPFxVlKBgxQkyaWCAAgNaFnBoB7qndvPfusFnVeXH1yW4f5lN+rr2rw4NatVbeuvbhiRc2cqUKF7HEAwG3zND4uV66ca71161ZJwcHBRYsW1bX+2HGNq0xSz5493S8BINX68Ue1bCmnU9KVV3o33/mmvUC6eFHDhsnb2x4HAKQa9MwAcO/ExGjyZD2rNXPVwkdxkr726WSMHHXqtOP77+3FP/ygrVvVqpU9DgC4E57Gx1WrVpVk7pXYsWOHYRg+Pj7jx4/38rrhpwYNGlSRh7QBpAXbt6thQ0VHS7pUv+3r6UZLlrmApEcfVZYsthgAILWhZwaAe2fnTpWL/mWhGqVXtKSZatUx9rOBgxwtW9orfXz09NP2IADgzt2wqZX00EMPRUVFRUZGRkZGnj171twxUbdu3Tlz5uTOnTvhGbxrMmXKNGrUqPfff9/+UwAg9TlwQHXqmC/p+Kdc/VxLvvrs88SvU29vlSihOnX0/feybjUDAKRC9MwAcI+cP6/OT+1crrr+uippoRq20zSnvD/+WOvXWyobNNCKFcqVyxIEANwVnl6dJ8nX19cekpo0aRIcHLxixYpt27adP3/e39+/TJkyDRs2zJ49u70UAFKfEycUGKizZyWpWrUXY+fEycc9X7KkeFMHAKQp9MwAcC/88vW+VQrKqjBJq/XcC5pta7xNJUtq0SJ7EABwt9xkfHwjGTNmbNq0adOmTe0JAEjdzp9XUJCOHZMUWbLstJBF6wZmsJXwMiQAgImeGQBu35Ej1d6rnUVnJf2kpxtpYbTS22skSW7vKwUA3H2exscbNmxwrcuVKxcQEOCWBIC058oVhYRo715JEQ8Ve+Tgin8GZrWV9OqlDz+0xQAAqRk9MwDcff/+a9SunSX8H0nbVa6elkYoU58+mj1bJ09aCps21ccfWyIAgLvL0/i4Zs2arjdEb9y48ekbn0K/e/fuXr16mWuHw7FmzRprHgBSvuhoNW2qLVskKV++dyqH/j97dx5nY9nHcfx7ZoyxjzVLtrKHJEuEFLPZ933fSoiISiVtqEQqlQhZK1vZmZkSKlSiRyH7TvZlMPv9/HEf59znbjbCbJ/363k9ruv3+515PV2vp+Pnct3XfXxJIVvJjh2qVMkWAwCkc/TMAHCbnTkjf3/HgQOSdqpCkNZeUu4nn9T772vgQJUp41E7frx84rnQAgBw2yS2fWwyDMPVECfk0qVLP/zwg8PhSE4xAKQ9sbHq1k2hoZKM3LkX9V074c37bCX33qsKFWwxAEBGkZw2mJ4ZAJJ26ZKCgswH/g7ovgCFnlUBSW3bSlKpUqpSRX/84aytWlX32btyAMBtlvT2MQBkdIahAQO0cKEkZc06+P6Vk9+sbCvp3VvPPy9vb1sYAAAAQLJdvaomTbRtm6RT3kUaxn53QveamYAASXI4FBqq6dN17JiKFlXfvuIv4wDgTrs928dRUVH2EACkG6+8oqlTJSlTpnPTlkzuan8q+Ztv1LKlLQYAgB09MwAkJiJCLVvqp58kKX/+VtFhhy45jxYXKOCuKlBAL77ongIA7jQve+CW7N271x4CgPRh4kTnu/Acjoips4euDbblc+bUY4/ZYgAAxIOeGQASFB2tjh0VFiZJfn4KCdl8yX0xHP02AKQgj9PH1tdG22zbti0mJsYelWJjY/fv3//WW2+5It48vA0g3Zg1S8895xxPntxpWadvv/XIDxqkvn2VN69HEACQvtEzA8BtFhurnj21dKkkZc+uVas2XKlqzVu+PgEAd5vH9rH1tdEmwzDM/3a9JDpe1rd/+Pn5eSYBIG1atkx9+jjHr78e2WfAcs8vwnLl9NFHHhEAQEZAzwwAt5Nh6OmnNX++JPn6aulqd0PSAAAgAElEQVRSPfroT+M8SgoV8pgCAO6meC6vMG6INxgvV43D4Shbtqz1gwCQ5ly5oi96rY9q1V6xsZLWln3mkRWjmjY1Z27t2nlMAQAZiq0TtgXj5aqhZwYAJ8PQ8OGaNk2SvL21cKEaNpT0888eVblze0wBAHdTPK/Oc52JcPW41mCSgoKC7CEASFNGN9/22g/NMitS0lx16b5nkiH7d+Bnn6lvX1sMAJCB0DMDwG3wxhuaOFGSHA7NmaNmzczwihXukv793WMAwN0Xz/bxf3HPPfcMGDDAHgWAtCNu954XfwjKpSuSVqhJL800/vWgRu7cevJJWwwAgOSiZwYASZo4Ua+95hxPnapOnczh1as3CiRJXPYDACnLvify78fr/h1PSKVKldasWZM/f37rBwEgDYk7evxyrcB7dEbSj6rTXgti5GMvkrp2tUcAABmKtQdOKJ4QemYAkKSpU10vqR7u/b7vwL6+vsqZUx06aNkyj8IuXTymAIC7zOP0cY8ePazTWbNmORwOwzAcDkdwcPA999xjzZq8vb1z5MhRokSJ2rVr16pVy54GgDTk/PkLNQPzXTos6Q892FQrriubraRECY0bp/btbWEAQAZCzwwA/9X8+a47KV7V6xNin1WsJEVFacECLVhgLVWFCh5TAMBd5rF9PHPmTOt01qxZrvHLL7/86KOPWpIAkL6Eh6tx43yndkrar/uDteaS4nlDx7RpCgiwBwEAGQo9MwD8J0uXqnt3GYak8Rr+pkbZCyy8vJTpNl+6CQC4OfbLK2wMz8fxACB9ioxUmzbaskXSSRUKUOgpFZY0ZIjq1nVXlSunxx5zTwEAMNEzA0ByhYWpfXvFxkr6VP2f17v610uqrcaMsUcAAHdZYn+LN3r0aNe4ePHilgwApCOxsereXSEhki4od5DWHtT9krp21cSJun5dy5frxAnlz6+mTeXra/80ACCDo2cGgOT66Se1aKGoKEnri3UZePTjxPeOJT39tD0CALjLkrt9DADpk2Fo4EDzfrVrytpUK3boQTPz5JPy8lL27OrY0eMTAABY0TMDQHIYW383GjX2unZN0uUGLfse+MKwPA/t66vISHexqXBh5cxpDwIA7rLEto+TdOzYse3bt1+7du3ee++tVauWt7e3vQIAUrlXX9Vnn0mKcWRqayz6WXXMcPXqql3boxAAgFtDzwwAV3/dGf1oYO6Yy5JCFNDs+6+iPLcj1q/XjBmaPt281kKScuXSRx/JK4kbNwEAd1wS28cHDhyIiYkxx35+fgULFjTH58+f79mz58qVK12V+fLlmzRpUufOnV0RAEjtJk3SW2+Zw+7GrNVq7MqsX887OgAAyUXPDACJOXBAgQG5Y85J2qi6rfRNlDyuhPvtN1Wrpkce0YQJunLFGSxQgIYcAFKFxL6ML126VLZsWdebQN57772hQ4dKMgyjadOmW7Zssb4k5OzZs926dXM4HJ06dXIFASD1mjNHQ4eaw1+6fvjlXPef5Js0UbZsrhkAAImhZwaAxBw7poYNs188Iek3VWuqFdeU3ZrPkkXlyjnHOXIoRw5rEgCQ8hJ7DmTjxo1xcXGGYZgtb4cOHcz40qVLN2/eLMnhyTCMZ5999tq1a9YfAgCp0fLl6tXLHK5/fPQjc5+xJp991joDACAx9MwAkKDTpxUQoEOHJP2lB4K15rL8rPkiRfT552wZA0Cqltj28S+//CLJ4XBIqlChQpEiRcz43LlzrWVWZ8+eXbx4sT0KAKnKhg1q3968Vu1oy0GP/+DxyqNHHpG/vzUAAEBi6JkBIH4XLyooSLt3S9qnUgEKPaf8kl54QYbh/M/x4+rSxf45AECqktj28R9//CHJMAyHw/HYY4+54uvXrzf7YzNrfRxPUkhIiHUKAKnL9u1q1kwREZLUqdNXtT6QnF9opkcftc4AAEgCPTMAxCM8XI0aaft2SZdyFvVX2Ek5/3atZk2PQgBAKpfY9vHBgwddLW/FihXNwf79+8+dOyfJMIy8efOGhYUtW7YsV65cksxn8f76668bPwAAUpm9exUUpMuXJR2s0Kho2BfPv+jxNViokJ5+2hoAACAJ9MwAYBcRoRYttHmzJCN/gZpXwg6rpCvZsqVrCABIAxLbPj5+/LhrXKJECXOwe/duc+BwOHr27NmgQYOmTZsOHDjQdZ7i6NGj5gAAUpcTJxQYqNOnJUVUe7TirkXHz2S25qtW1cGDKlPGGgMAIAn0zADgITpa7dvr++8lKXfu9a+E7tGNV+NJAwbIK7F9CABAqpPY13Z4eLhrbJ6VkLRnzx5JZuNbrVo1M1ijRo0bhR6fAoDU4vx5BQaab+1QpUqhg1dcVzZbSZcuypLFFgMAIAn0zADgFhurbt20fLkkZc+u1as3Xq5izderZ50BANKATPZAAlzvhjZbYVOpUqXMQZ48eVzB2NhY1xgAUoWrV9WkiczHhO+774vOIb16uL+1TFWqqEcPWwwAgJtDzwwgQzMMPfWUvv5aknx9tWxZxEO1Xq3tUdKhg8cUAJD6JXb6OHv27K7x3r17zYH5bhCTqxW+fv26K2j9FACkvKgotWlj3rymggUvLw59cnRhaz5/fu3dq23blD+/NQwAQLLQMwOAJBmGhg3T9OmSlCmTFi9WgwYbN3qU9OihG3fFAwDSjMS2j4sUKaIbL/f49NNPjx8/HhYWtmXLFvPdIPnz58+bN69ZeeHCBdenChQo4BoDQAqLjVX37lq7VpL8/LR27c7IUtHRHiXt2ql0aRpZAMAtomcGAEkaPVqTJkmSl5fmzVOTJpK++86jJDDQYwoASBMSu7yiYsWKO3fuNBvfv//+u3jx4rpxg5vD4ahZs6ar0vV0nsPhKFmypCsOACnJMDR4sPPpuSxZtGLFxstVHnvMo+SBB/T88x4RAABuCj0zAGj8eL35pnM8bZrat5d0+LDeecdapE6dPKYAgDQhsdPHgZa/GTRuMDtjSY0aNXJlt2/fbtZIqlixoisOACnptdf0ySeS5O2tRYtUt+7IkR75PHn055/iz+8AgP+CnhlARjdlivtExgcfqHdvc7hqlatCktq25YE/AEiTEts+bt++fb58+SQ5LMxUjhw5unTpYo7j4uLWrVvnSlWvXt0cAEBK+vBDvfGGczxrlpo0MQz99JNHSYMGtLAAgP+KnhlAhjZ3rgYMcI7fekuDB7sy+/a5hpLUsqXHFACQViS2fZwzZ85PP/3UFjSPS7z//vt+fn5m5Lvvvrt06ZKroH79+q4xAKSMuXM1ZIhz/MEH6tIlMjKeq9bGjrVHAAC4WfTMADKub75Rz54yDEl6/nm99JI1OXGie5wzp278bRoAII1JbPtYUtu2bUNDQ2vVqqUbTXDVqlUXL17c+8bTKJK+//77cuXKlS1btly5cg0bNixatKgrBQApYOVK9ezpHL/6qnkCIiREYWGWGunAAZUt6xEBAODW0DMDyIhCQtSxo2JjJWnAAL39tvXJPjPs0rWrxxQAkIYk9uo8U4MGDRo0aBAZGXn+/Hk/P79s2bLZCsaNGzdu3DhbEABSxsaNatvW3cW+9pqk06c1dapHVd684o/tAIDbiJ4ZQMaycaNatlRUlCR166aPPrLdCrdli3WmoCCPKQAgDUl6+9jk6+tbuHBhexQAUpU//lCzZoqIkKSOHc0u9ttv1a6dYmI8CufMkY+PRwQAgP+OnhlAhvDbb2rSRNevS1Lr1poxQ14eTzbHxalOHWtA/v4eUwBAGpLE5RUAkGbs36+gIJnXSgYFadYss4t9+2373nHv3mrc2CMCAAAAIFn++kvBwbpyRZKCgzV/vjLZz6UdOOAxzZ5d/3okAwCQZti/5QEgTTpxQgEB+ucfSapdW4sXGz6Zt/6mgwf199/22po17REAAAAASdu3T/7+OndOkurV0+LF8vW110g//OAxHTDAdrMFACAtcW4fz5kzx+FwOBwOSY0bN86fP7+k2bNnW0uTr3v37vYQANw5Fy4oKEgHD0pSpUpasULZsz87RB9+aC+UNGSILO8xAgDgJljbY3pmABnO0aPy99epU5JUvbpWrIj3ULFhqF8/j8g773hMAQBpi3P7uHfv3ubesaSNGzearXDPnj1dwZtCKwzg7rl6VU2b6s8/JalkSa1dq7x5w8P1ySf2Qkl796p0aXsQAIBksrbH9MwAMpZ//pG/vw4flqRKlbRmjXLlstdIkvOBQJdKlTh6DABpm8flFYZh/Lv3NQzDFkncv38CANwpUVFq21Y//yxJ99yj0NBTXkW+m6cjR+z3HUsqVEj33WcPAgBws+iZAWQ4588rMFB79khS6dIKCVG+fPYaSVJkpNq394i8+KLHFACQ5iR99/FNtbY32zcDwK2Li1PPnlqzRpJy5dLatYd9Std4UGfOeFQ5HCpfXsWL66235O3tkQIA4HahZwaQbl25osaN9b//SVKxYgoLU+HC9pobpk/Xxo0ekS5dPKYAgDQn6e1jAEiNDENDhujLLyUpSxYtX66HHlo0wb53LKlAAe3caQ8CAAAASNr162reXFu2SFLBggoLU4kS9hoLs9ClcmWPKQAgLXJvH8d7CCLeIACkvNdf1+TJkuTtrQULfsny2Ib3tHy5vUrSE0/YIwAA3LJ42+N4gwCQ5kVFqV07/fCDJOXJo5AQlS1rK3GJjtZTT8n2MtHRoz2mAIC0yLl9PGrUKIfDYT5zV7x4cTM4mm96AKnTRx/p9ded45kzv41t1rqWbH9yL1JE99+vKlX01lsecQAAbpm1PaZnBpDOxcaqWzetXClJOXJozRo9+KC9xmL5cs2c6REZPVpt2nhEAABpkXP7+NVXX/Xy8rJd2UYrDCA1mjdPgwc7x5MmqVu3Wa3se8eS+vfXqFH2IAAA/0W87XG8QQBI2+Li1K+fFiyQpCxZtGKFata05iMjdfy4JBUpoitXdOWKVq+25iXpkUfsEQBAWsTdxwDSlFWr1LOnc/zKK6vKDPnxJX37rbXCKSDAHgEAAACQNMPQ0KHOs8Q+PlqyRPXrW/Nff61evXT9ujVm16aN/P3tQQBAWsT2MYC046ef1LatYmIkqX//GSXf6NPEXlK9ukqVUufOqlXLngIAAACQtFGj9OGHkuTlpfnz1aiRNWnuLSe+d9y9u2bNsgcBAGkU28cA0oj//U9Nmzob1Q4dNHnyl8Ee9+2Y3n2Xd+UBAAAAt+qddzRmjHM8Y4batnVlDEMHDujgQZ086YrFj4YcANKTJLaP9+3bt2rVqu+++27v3r1nz569fPmyn59f/vz5y5Qp07Bhw0aNGpUuXdr+GQC47fbvV1CQLl6UdL564Fv5Z4c/7b1tm72qQAEOHQMAUgA9M4B04pNP9OKLzvFHH6lHD2uyb1/NmGENJKhjR3sEAJB2Jbh9vHPnztdee23JkiWGYUgy/1vSmTNnzpw5s3v37uXLlw8dOrRNmzajR49+4IEHPD4MALeP7/nzmZo00alTki5XrFVi65Lw3zLbavLmVa9eevJJZc1qywAAcAfRMwNIP2bP1sCBzvHYsRo0yJo8eDC5e8dPPaUsWexBAEDa5WUPSJJmzpxZrVq1xYsXx8XFGYZhGIbDQpIZjIuLW7RoUbVq1b744gv7jwCA2+LChdqvv+44cECSKlac2GBluJHdXiOtXq333lPZsvY4AAB3Dj0zgPRj8WL16uUcjxypkSM9stLBg7ZAgh5+2B4BAKRp8Wwfjxo1qm/fvpGRkdYO2Fpg6YodhmFERkb26dPn1VdftdYAwG1w7Zp3q1Z+hw9LOp2txJMl1s5ekddeI5UqRZMKALjb6JkBpB9r1qhTJ8XFSdKgQe67jy1Gj3aPHQ75+Sl3buXKJT8/FSokSUWLqmBB9e+vnj3dlQCAdMB+ecX06dPHjBkjydX+mg2xR5ElbqYMwxgzZkypUqV6eF6NBAC3Ljpa7dp5/fyzpNMqUOda6L5V91rztWurZk0VKqQePZTJ/mUGAMAdRM8MIP3YsEGtWik6WpJ69tQHHyi+b7Mff3SPq1bV1q3uKQAgffM4fXzs2LGhQ4daG1zd6InNJ+9crHFzbBjG4MGDTyb5BlYASI64OPXsqVWrJF1WriCt3acytpLu3TVpkl58UYUL2zIAANxB9MwA0o9ff1XTpoqIkKS2bTVtmrzszygfOKApUzwi+fJ5TAEA6ZvHgb2xY8eGh4ebfa1uNLiSSpQo8cgjjxQqVChnzpyXL18+efLk5s2bjx075qox2+Lw8PBx48Z9+OGH1p8JADfNMKKeHpJ5/nxJkV5ZmhvLthtVbSV58qhpU1sMAIC7gZ4ZQDqxY4eCgnTliiQ1aqR58/79TN/27apbV1evegQ/+shjCgBI39y/N1y/fn3u3LlmU+s6JdGqVatRo0Y99NBDrjKXzZs3v/nmm6tXr3Z9xDCM2bNnjx8/3tfX114NAMn35puZp06WFCPvdnFfr1d9V2boUPn5KWdOtWypokXdnwAA4O6gZwaQTuzdq4AAXbggSfXra/FiZc5sr5HmzrXvHUv04QCQsbi3j9etW2ceo9CNO9o+/PDDQYMGuWs91apVa+XKle+9997zzz9vfkrSlStX1q1bFxwc7FkLAMn28ceuF3P01ozlau7KeHvr9deVM6crAADA3UbPDCDtio3VV19p5075XTrSf17DXBf/kaSaNbV8ubJmdZVduaL583XkiCStXesKO9WqpezZ7UEAQDrm3j7evHmzOTD74GeffTaRPthl+PDhhw8f/vjjj13d8KZNm2iFAdyiL780nnnG/DYZqolz1N2a7NKFvWMAQArbtGmTOaBnBpDmDB2qjz5SQZ3aqIa5dFRSXMXKXqtX25rsFi20bp014Navn+ukBwAgo3Bfiv/333+7xn5+fqOT/XvCm2++mStXLtfU+nMA4CasWWN07+4wDElj9NIkDTXDHTrsfv/92OXLNX26RzkAAHcfPTOAtGvuXOXR+RAFltE+SXtUZt1Locqb11pz4kSCe8fTpmnqVN17rz0OAEjf3KePDx8+rBvHKJo1a2btbhOXO3fu5s2bm3fAGYZx6NAhewUAJOnnn9W6tSMmRtIUPfWK3jLD3t5Gixb727Yt5ePj7VEPAEBKoGcGkIasXq3lyxUTo9KldfasYi5cDlPwg9oh6bCK+ytsxLmCDS314eF67jnL3MLXV/7+9iAAICNwbx+fPXvW7GUl1atXz12SDPXq1Zs7d645Pnv2rGcSAJKyY0dc4yZe169LWqB2A/Wx5Hy2t1evuGzZYjyKAQBIOfTMANKK0FA1buyeZtW11WpWU79KOqlCDfXdURUfPFjPPOOu6dpVS5e6p5kzq00bSfLzU48eKlnSnQIAZBzu7eML5htXJUmFCxd2jZOjSJEirrH15wBA0g4cUFCQ16WLkkIU0E1z4uQ8aLxxo2rUiFuzxqMcAIAURM8MIK2wbgT7KGqR2tbXBknnlDdAoftV2kxdvep8FV50tFascH9EUrFimj/fIwIAyIDcdx9HRka6xrlz53aNk8PPz881joiIsGQAIFGnTikwUCdPStqimq21JEq+ZmboUNWtKy/3txQAACmPnhlAmhAbq48/do69FTNfnRtrtaTLyhmktX+pkqvy3Dnn4MwZxca6wpLUvr3HFACQMbk3ZqKjo11j1yuhk8lab/05AJCYixcVHKz9+yXtVIXGWnVVOcxM/vzq18+jFgCA1ICeGUCaMGGCc+BQ3Ofq21aLJV1T1iZa2fvj6tbKzz5zDoYNs4Y1fbrecr6OBACQobkvr4iJiXF1tKtXr963b58rlaS9e/e6xrG2v68EgHhdu6ZmzfTHH5IOq3igQs4rn5kZO1YDBshyQgsAgNSCnhlAmrB2rfmr8aEG99QsSVHyaaVvsvjXGzBAAwe6K10v8tyzxx2U1Lu3xxQAkGG5t49dDMMYO3asPQoAt1F0tNq3148/SjrjKBBghB5XUTPjcKhvX/aOAQCpHT0zgFQrOlrffy9JY/XSIH0sKUbeHfVViIK+7GOrdVZK2rbNHSxVyj0GAGRw8d8qatw8+48AgITExal3b61cKfPyNWPNXpV1JZ99VgUKuGsBAEi17A1xMth/BADcAe+/L0kvatxIvW1GQjrOrDex9aZN6thRkj780F186pSionTwoDsiacoUjykAICOL5/Sxbv4eN0l0wwCSxTA0dKjmzpUUId/mWrZND7uSGzeqbl13LQAAqRk9M4DUaeNGDdJH4/SSOT068uPGY7s1thQUK2aZSH/9pZ07PSK2AgBARmY/fexwOG6hD9Ytdc8AMqIxY8zTDnEOrw76er0ed2Vy5lTNmq4ZAACpFz0zgFQrMlL5V8z8SIPN6fN6p+iYAZ4l8vf3mB48aL6RxK2s++FAAEBGF//pYwC4Iz79VKNGmcM+xufL1MKVyZRJb7+tzJldAQAAAAA3LeTJhZ+rrzl+U69U/OL5f/+9VY4cKlRIp045py+9pL//dmeDg/XvjwAAMiz39nHx4sU5DQHgDvrqK2PgQPNb5jm994V6uTK9e+uDD5QjhysAAEAqRc8MIFVbtarRnM7eipP0gQa/qjc2lbOXmKKj3eM8eZQvn86dc069vd0pAADc28cHDx6kFQZwp6xZo27dHIYhaaxGTtRz1mTLluwdAwDShkOHDtlDAJBCNm1yDBjQ8MQJn6xZ1bGjPuv0g0+bNpmMGEnT1Xuo3pccCd0O16qVPv/cOd682SPVqZPHFACQwdnvPgaA22/TJrVpo5gYSVPV72WNcWW8vNS5s4KD3bUAAAAAkuPpp71PnMgh6fp1/TVzi5o3U0SEpK/V/klNNeT16afySuAP/W3a2CMutWvbIwCAjIy7jwHcYX/+qSZNdO2apEVq87Q+lRyS7r9fP/+s7Nk5dwwAAADctJgY7dzpfIC4sv63Wo18IsIlrVCTbpoTJ29J5RK4uUJSmTL2iEvhwvYIACAjY/sYwJ108KACA3XhgqQwNeyieWYjK6lqVRUs6FELAAAAIJmWLnUOyurvUAXk1QVJ3+uJdloYLecLqevVu1H9L6VKyddXkZH2eOnSyprVHgQAZGQJPMcCAP/dP/8oMFAnT0r6RTVa6Zso+ZqZhx/WuHEetQAAAACSb9AgSSquw2HyL6jTkjapVnMti5Bz97diRWVK9MDY7Nn2iKTXXrNHAAAZXKK/mQDALbt0ScHB2rdP0k5VaKxV4cppZmrV0qZNHrUAAAAAEhITo927FRUlX1+VLy9vb0k6dUqFdPI7NSymY5K2q0pjrboq98VwiVxPYapY0R6R9MAD9ggAIIPj9DGAO+D6dTVrpu3bJUUULB6okHPK70rWqOEuBAAAAJCI/ftVqpQqV1a1aqpUSeXL6/hxTZyofDobqoDS2i9pt8oFKuSi8lg/mOTTfg88oBdeUJYszqmvr4YN00MPedQAAMD2MYDbLTpaHTpo40ZJMXnyV/kn5LiKupLNmmn0aHctAAAAgERMnqwjR9zTffv0ySd67bnLaxRcSX9JOqQSf70fekb3uIukYsVUvrw1EA+HQ2+/rUuXdP68zp/XpUuaMEEO59v4AABwYvsYwG0VF6c+fbR8uSTlyDG+4Zo9cr/vuVQpLVumfPlcAQAAAACJ2bnTHvlh1bUValpdWyWdUOHGmcMe71bMds1x1aoe00Rkzqw8eZQnj3ydrykBAMAD28cAbh/D0HPPac4cScqcOfabZW+tqmbN16xpnQEAAABITHi4QkI8IpkV+er2Vo9po6Szyheg0PFLSubLp+nTVaKEMmeWr6/q1NHEiR6fAgDglvHqPAC3z9ixmjRJkry89PXXHaY8ce2aR95MAgAAAEiOVas8pt6K+VKdghQi6ZJyBWntgSzlAgMNSd27q3t3j2IAAG4LTh8DuE2mTNErrzjHn39+uGrLxYs98l99pXs8LmQDAAAAkJjDh91jh+JmqHdrfSPpmrI20crfVa1s2QvuCgAA7gBOHwO4HRYs0IABzvH48erVa8F4j7yXlx591CMCAAAAIHHPP+8aGh9rYHfNkRSpzE/es/RY1rqNK8a1bLlNesL9AQAAbje2jwH8ZyEh6tpVhiFJL7yg4cM//NDa6UrSkiUqVswjAgAAACB5jHf0wtOaIkne3r6Lvp7bMkBSdHTsqlXXbaUAANxeXF4B4L/ZvFmtWik6WpL69NG4cZI+/dSjpEoVtWjhEQEAAACQuIgI5+BljXle4yXJ4dCsWWrZ0lIFAMCdxeljAP/BX3+pSROZL8hr3VpTpuza7Vi1Srt3e1Q1aOAxBQAAAJCkjRslaYgmvaVRztCnn6pLF0sJAAB3HNvHAG7VoUMKDNT585LUoIHmzduxK9Mjj+i65/NzzZpp7FiPCAAAAIAkrVyp3po+SUPNacy48ZmeesqzBACAO47LKwDckn/+UUCATpyQpOrV9e23ypJl4UL73rGkKVOUJYs9CAAAACBxJbZ8PU39zPHrejXTi8M98wAA3A1sHwO4eZcuqVEj7dsnSeXKafVq5cy5fr3efNNeWKWKChe2BwEAAAAkYfnyQZu7esmQNFFD/+n/mr0AAIC7gu1jADfp+nU1b65t2ySpWDGFhip//rVr9cQT9sJnn9XKlXI47HEAAAAAifn+e6NdOx/FSJqmvs9pwv2l6KoBACmDu48B3IyYGHXsqA0bJClfPoWEqFgxSYsWyTA8CidN0pAhHhEAAAAASdu0Sc2bOyIjJc1Xp/6aIjmaNrVXAQBwd3D6GECyxcWpb18tWyZJOXJo9WqVLy/pzz/1+ecehb6+Cg72iAAAAABI2vbtatRIV69KWqZmPTQrTt6S2XcDAJAC2D4GkDyGoREjNGuWJGXOrG+/VY0aks6dU506HoWZMmn9epUr5xEEAAAAkITduxUYqEuXJG3P17C9FsTIR1K2bPZCAADuGraPASTP229r4kRJ8vLSl1+qYUMzvH69Ll+21oLrSmwAACAASURBVGnePD3yiEcEAAAAQCL27tWzLQ6eruKvM2cknS//aN1z30Yqi5nNkcOjGACAu4m7jwEkw9Speukl97h1a3O4c6fatHEVSVK+fK6NZQAAAABJMwz1aXRi5n7/e3Rc0jY99MTulVfl3jN+9113MQAAdxmnjwEkZdEi9e/vHL/zjvr0MYcREXr88Rs1N2zZonz57EEAAAAACTmz6+yU/f6ldEDSLpUPVMgl5bYW3HuvdQYAwF3F9jGARIWGqnNnGYYkjRih5593ZbZuNR+tc+vZU6VKeUQAAAAAJObSJZ9mQQ9ol6QDus9fYWdVwFZSr54tAADA3cP2MYCE/fKLWrVSdLQk9e6td95xZWbPVt26rpkkeXura1ePCAAAAIDEXL2qJk3yHPhd0nEV8VfYCdlPGo8bJ19fWwwAgLuH7WMACdi5U40a6epVSWrVSp99JofDzHz/vXr0sJZK0i+/cOsxAAB3yhdffOFIni+++ML+4YSFh4dPmDChfv36BQsWzJw5c8GCBevXrz9hwoSrZgMA4I6KiFDLlvrpJ0lnlN9fYQd1v71GqljRHgEA4G5i+xhAfA4fVmCgzp+XpCee0Pz5yuR+0+b337uGTo0a6eGH7UEAAJCabdq0qWzZssOHD9+wYcPp06ejo6NPnz69YcOG4cOHly1bdvPmzfYPAPhvduxQrVoqXVrz5knR0erYUWFhki7KL1Ahu1XB/gFJkr+/PQIAwN2U8tvHnKQAUp3TpxUYqOPHJalaNX37rbJkkfTHH2raVJUra8oUj3IvLz35pEcEAACklHvuucceis+ff/4ZGBh48uRJe0KSdOLEiYCAgD///NOeAPAfPPOMtmzR/v3q2ys2slNPLV0qKTJTtsZatV1VzZqNGz0+snixsmb1iAAAcJe5jxOmJ5s2bWrTpo21Gz59+rR5mGLixImLFy+uVauWpRyAxeXLatRIe/ZIUtmyWr1auXJJiotTs2Y6etRWrbx59cMPqlzZHgcAALdR27ZtH3/8cXtUktSiRYv//e9/5rh06dLBwcGe+fj17t07PDzcHOfJk2fy5MkPP/zw1q1bBw0adPHiRUnh4eF9+vTZsmWLx8cA/Afr15u/GpOiB/guni9JmTN/9MTSTWsfddVUqSIfH+fLRyTabABAyktL28c3dZLC1Q3bmCcpNm3aVKlSJXsOQESEWrTQ779LUtGiCg1VAed7n48ejWfvWNIbb9DUAgBwx+XIkSNHjhz2qLRlyxbX3rGkYcOGeXkl/Xzhhg0bfv31V9d0woQJnTt3llS+fPlr1649eeOpol9++WXjxo316tVzVQK4ZSNHmr8a4zXiKU2VZHh7OxYuHNPDfTlFuXLKmVOjRunVVyWpb1+VKeNKAgCQMpJuLu+0tm3bHkzAgw8+6Cq75ZMU8+bN27Vr19y5c3Pnzm0GzZMU7g8AMMXEqGNH/fCDJOXLp5AQFS8eF6dRo1SmjGrUsFVLUvHiatPGHgQAAHfN+PHjXeP8+fP37NnTnUvYwoULXWOHw9HG8tt5u3btHDdelivPSgC37MABvf22JL2qN4ZrgqQ4OabVm6PmzS9edJf17y9Jo0bpn3909KimTXOnAABIKSl/+piTFECqYBjq18+8f03Zs2v1alWoIGnJEr31lq1UOXNq2jTlyKG6deXnZ88CAIC748CBA998841rOnDgwKzJuyTV2jAXK1YsV65crmnu3LnvvffeY8eOmVNrJYBbtmuXJA3VxNf1mhl5Sp/9Fdmpb5wcDhmGsyxzZucgeU/eAgBwNyS9IZtSOEkB3D2GoREjZL6dMnNmffut67DxL79Yym4oU0YdOqhJE/aOAQBISRMnToyLizPHWbNmHThwoGc+QQcPHnSN/31BnDVirQRwyz76SH01baKeM6dDNfFz9du0SX/95d47lpS8B24BALirUv70cbw4SQHcVe++qwkTJMnLS/Pn7yvp37Outm2TYSgqyl7r7e26uA0AAKSY8+fPz5w50zXt0aNHgRtvLEjSpUuXXON/t9nZsmVzjc3X6NlERkZGRkaa48uXL0uKjo6Odr3qK1FmWTKLMxRWJhFpfXEMQ3nXLvxMT5nTV/X6JA01x8HBhuQ+5JQ79839U6b1lblzWJlEsDgJYWUSwsokJP2tjGEY8f7jpNLt4zt3ksK1fZzQSQq64TuExUlEyi6OY/r0TC++aI5jPv7YaN78meZxP/0Uz6MJnTvHde0aV6mSUaiQ7tr/2JRdnFSOxUkIK5MIFicRLE4i0uLiJNT+phuffvrptWvXzLGXl9ewYcM888llWI8+JhCxGTdu3Ouvv26NhISEWDedkxQaGmoPQRIrk6i0sjixsTp0yO/qVR9JBQteK1jwWp4Nv83WOC8Zkt7Tc29qlKv4xAn33rGkDRtWWZ6YTa60sjJ3HyuTCBYnIaxMQliZhKSnlTEM4+rVq/Zo6tw+TsGTFKIbvsNYnESkyOIU/vnnGu+9Z453duu2q0ARY+mazZsDpCyehZKUL9/2qKijv/9uj98FKbI4aQWLkxBWJhEsTiJYnESkrcVJqP1NHyIjIydPnuyatmjRokyZMpZ8Evz8/E6fPm2Or1+/7pn0iLjePm01cuRI12715cuXixUrFhgYaH3sLxHR0dGhoaEBAQE+Pj72XMbGyiQiDS1OZKSCg72tRzG+6Lq22dfveilW0hQ9NULjrceNrR5+OK5Jk8b2aKLS0MrcZaxMIlichLAyCWFlEpL+VsYwjHj3S1Pj9nEKnqQQ3fAdw+IkIqUWx/Hdd96TJjni4iSFPzV00N/j17f3iouLv52tXj1u9OjKuXJVtifusJRanDSBxUkIK5MIFicRLE4i0uLiJNT+pg9z5849deqUazpixAhLMmn33Xefa/vYNXD5559/XOP77rvPknHy9fX19fW1Rnx8fG7q/xs3W59xsDKJSBOLExamn35yT2vr57ZzW3spStJcdRmgT7y8HCNHaswYd41L69ZePj7xPAKYpDSxMimClUkEi5MQViYhrExC0tPKGIYR7z9Lqts+TtmTFKIbvsNYnETc7cX55Re1beu827hXrzG5J6z7IZ6N4yVLVLSocuRQuXJeXl630s7eFnd7cdIUFichrEwiWJxEsDiJSFuLk1D7mw4YhjFx4kTXtE6dOrVr17bkk1ajRo0tW7aY42PHjl26dMnvxvtwL1y4cPz4cWulawwgSbt2ucdV9fsqNc6ua5K+VYtemmnIy4hT6dLuGquU67UBAEhMqvsN6r+fpHCNb+EkBZBR7Nqlxo119aqkiKAWJ1+f+tvWePaOs2VTcLBq1FCFCrSzAACkFqtWrdq5c6drOnz4cEvS7dChQw6LH374wZVq166da2wYxqJFi1zTBQsWuMbyrASQuOhoPfecc1xBO9cqKLcuSQpRQAd9HSMfSZ07q0sXy2csWrSwRwAASA1S1+ljTlIAd8ORIwoM1LlzkjZlrv/E2q8ii8fzVeDjo7ff1r+uEAcAACnsvRvvLZBUtmzZ5s2bW5LJ8thjj9WoUePXX381pyNGjMiSJUv16tV/++23F154wVVWs2bNevXquaYAEvfzz87BfToQqoACOivpR9VppW+i5HzCtXZt+fgoe3bzIIeHPHnsEQAAUoPUdZ6QkxTAHXfmjAIDdeyYpL25Hg6KWhb5r7fkTZqkfft04YKeecaWAQAAKWzr1q3W7nfYsGG3drvUjBkzsmfPbo4vXLjQtWvX8uXLd+3a1fUm6hw5ckyfPt39AQBJOXhQkoroeJj879UJSVv1cBOtvCbnv2uS6taVFM/esaRChewRAABSg1vpNe+c23WSwjUdMWLEvHnz/v7773nz5nGSAtCVK2rUSH//LSnqvrJ1Lq++onheC/nEEypVSjf+RAkAAFIRa8N8zz339OjRw5K8CZUqVQoNDS1cuLA9IUkqXLhwSEhIpUqV7AkACevVSwV0Okz+9+ugpL/0QJDWXpbzcVjTQw9J0tdfW2OS9PjjcsRzmRwAACkvnifWU8ptPElRq1atq1ev6sZJClsBJymQQUVEqEULbd0q6aT3vbUOhpzRPbYSX18984wqV7aFAQBAqnDkyBHr03UDBw7MksX+FFHy1a5de8+ePVOmTFm2bNmuXbsuXryYO3fuChUqNG/evH///jly5LB/AEDCrl2Tny6uVVAF7ZZ0Mtv9I8qEnvsjv7WmXDnn4IEHrGFJqlPHHgEAIJVIRdvHt/ckRZs2bU6ePGnPSYULF168eDEnKZDhxMSoUyetWyfpqm/ehpEhR1TCmv/pJ5Uvr+zZ5eu8lg0AAKQ6xYsXj46OtkcTULJkScMw7FFPOXLkGD58eEJXxgFIvrOHwlepcVVtl3RM9y4f9N3DPkVW/+FRExjoHFSooHvvleXVPAoIcI8BAEhVUsv2MScpgDvIMPTUU/r2W0lxWbM3jlu1Sx4HHrJn10MPKVs2awwAAABA8kREXGnY4lFtknRaBfwVtnNcydhYZcumn39WbKy8vFS9ukaOdJZ7e+u77zR+vI4fV7Zs6thR9etbfxwAAKlIatk+5iQFcAe9+KJmzJAU7fBpfP2bDXrEmrz3Xr33HnvHAAAAwC2Jjlb79hVPfS/pgnIHKPSQb3kvL3l56aWX7LUu5crp88/tQQAAUqHUsn0M4E559129+64kw+HobMwLk8dzcYsWqXVrXtMBAAAA3IQlS7RihSIj5YiLHbi5e+1DyyWFK3sjrf6fqhTOa68HACDtYvsYSNemT9cLL5jDBU9MWfR9O8+0qlVj7xgAAAC4CcuXq00bc2hMVf/a+kpShHyba9kW1ZI0Z461HACAtM3LHgCQbixZoiefNIcjNbbj986xqXRpTZ2qkiWtMQAAAABJWL7c/NWYqGH99LmkaGVqq0Xr1MBMFCvmqgUAIM3j9DGQTn3/vTp1UlycpAka9rZetCbbtdOCBdYAAAAAgGT58ktJek2vDdUkSbHy6qq5K9XUVVCmjGsIAECax+ljID367Te1aKGoKEmzHT1GaLzkcUVFrVrWGQAAAIBkOXxY4eF6Tu+N1htmpJ+mLVAHV8ELL3A7HAAgXeH0MZDu7N6tRo0UHi5pqZr3Nj43bvxFUe7cKlhQjRpp0CCPTwAAAABIjg0b9KQ+e08jzOkQTZqp3taCChWsMwAA0jy2j4H05ehRBQbq7FlJ6/VYR30Va/nX/LXXNGSIuxYAAADATTkydu6netocv6I311Ueoh3ubNGiatLEPQUAIB1g+xhIR86eVWCgjh6V9LuqNteyCGW15uvVs84AAAAA3ITz0795YXdPLxmS3tHzPz728ubVWrVKJ09Kkp+fgoOVP7/tQwAApG1sHwPpxZUratRIu3dL2qMywVpzWX6u5BNPqE8fPfywuxwAAADATQgJ8evf0Vuxkj7R0y/q7SFVHdmyqW1beyEAAOkJ28dAuhAZqZYt9dtvko6rSKBCzugeV3LaNPXt664FAAAAcHN+/FEtW3rHREmarW6DNFly0GMDADIC5wu1AKRhsbHq3Fnffy/pvPIEKuSwSrqS3t6qX981AwAAAHCTtm5Vkya6fl3SErXqrRmGvB56SJUq2QsBAEh/2D4G0jjDUP/+WrJE0lVla6xVO1XRlWzbVitXqkwZdzkAAACA5IiJUUSEIn//ywgK0uXLktYoqJO+NN9N/cgj9noAANIlto+BNO6ll/T555Ki5NNK32xRLVdm+HAtXKigIHctAAAAgCTFxuqZZ5Qzpypm3X+uWoDj3DlJG1SvtZZEydesGTzY4yMAAKRXbB8Dadl77+nttyXFydFVc0MVaE02bmydAQAAAEiWdes0ebLyRxz9Tg2L6KSkX1W9qVZcVzazoEoVPfCAx0cAAEiv2D4G0qwZMzRihDkcoE8Wqr0r0727li7VE0+4AgAAAACSa8cOFdDpMPmX1GFJf6pisNZcUS5XQZUq7mIAANK3TPYAgDTh22/Vr585fFlvfab+rszrr+vVV10zAAAAADfn7RcuhCiwnPZI2qvSAQo9r3zWgpEjrTMAANIzTh8DaU/U2nUx7ToqLk7S+3p2rF5ypTJlUtOm7koAAAAAN+XCkStLoxs9pD8kHVVRf4WdUmFrwQMPqHx5awAAgPSM08dAWrN1a2yzFpljIiXNVrfnNEFySPL3V+XKatNGDz9s/wQAAACAf4uK0o4diopSrlyqUEFeXtL1695tWtTSFkn/6J6G+u6IStg+VbmyLQAAQHrG9jGQpvz9t4KDs0ZfkbRMzfpounHjGYIXX1TDhh61AAAAABKyb5/q19eJE85pnToKWRGVrWu7XL+tk3ReeQIUuldlf/1VvXtrxw5n2UMP6a23nGMAADICto+BtOPo0ejHA3zOnpW0QfU66OsY+ZiZ4sVVp45HLQAAAIBEfPyxe+9Y0qafYs817pZt00pJV5SjkVbv0IPlyql6df3vf7p+XYYhLy9lyeL+CAAAGQHbx0AacfasERDoc+qopO2q0kzLI5RV0sCBuv9+dexIIwsAAADchBUr3GOH4qapX7FNCyRFOLI0M5b/okckHT7sLMia1V0MAECGwvYxkBZcuaLGjR1/75a0V6WDtPay/CR5e+udd5Q9u70cAAAAQCLef1/79rlmxvsa2lszJRk+Pq2jF6/X42Zi7FhXDQAAGZTz1lQAqVdkpFq31q+/SjqhwoEKOa2CZqZjR/aOAQAAgJs2frx7/KZGDdGHkmLl9VXTeavV2JWqWNFdBgBAxsTpYyB1i41V164KC5N0QbkDFXJI95mZhQvVooVHLQAAAIAkRUfr5Enn+Hm984rGmOM+mj7rm3auMknVqllnAABkRGwfA6mYYejpp7VokaSrytZYq/5SJTPToIHatvWoBQAAAJAcX33lHDytT97Ri+Z4kD6apZ43SiSpZEnly2cNAACQEXF5BZCKvfyypk2TFO3waa0lm1XblRkwwF0FAAAAIPlmzZKkbpr9iQaakZEa+7EGWWskde1qCwAAkBFx+hhIrSZM0LhxkgyHo5sxO0RBrsyff3ILGwAAAHCLfv9drbV4pnqZ07VVX3x720jPEklq0MAeAQAgA+L0MZAqffGFhg83h7Nrfvy1OroylSqxdwwAAADcon37VPPCmi/VyVtxkrbVHfTYj2NtNRUras4cPfGELQwAQEbE6WMg9Vm6VH37msPZpd/oueVpa/LGrjIAAACAm/bbxA3fqFVmRUv6Qj2KjvogazZHwYL65x93zaZNypnTPQUAICNj+xhIZdavV4cOio2VtKzk4B77XrEmn31WPXpYAwAAAEBGtHmzvvpK4eEqVEj9+qlECXtB/H79teX0plkUIWmR2vTV55fqeElq106TJztL6tdn7xgAADe2j4HU5Pff1ayZIiMlqWvXJ9e+LzmseX9/6wwAAADIiHbtUv36iopyTufM0b598vHxqInHn38qODhL1BVJq9Sos+Y/9kSm7NklacIEFS+ubdt0//0aNsz2MQAAMjS2j4FUY88eBQfryhVJF+s2abB9xj9nPG4nr1NHDRtaAwAAAEBGtHq1e+9Y0pEj2rZNNWu6I/HYu1f+/jp/XtIPqt9Gi6OVuXJlZzJzZo0YYa0GAABOvDoPSBWynD2bqXFjnTkjSXXrBl9asO1Pj+MTCxdq/XplyWKNAQAAABnRzp32yNmz9oiHI0fk729eb/yLajTXsghllXTfffZCAABgw/YxkAqcO1f79dcdR45I0oMPxn67fMuObNZ8lixq3Fje3tYYAAAAkEFNn26PzJhhj7idOiV/fx05IimibOVgrbmiXGamfn2PQgAA8G9sHwMpLTzcu0WLXEePSlKpUmuGrs1WJLet5I03lM1jPxkAAADIoCIi7BEp4W75/HkFBmrvXkkqU2Ze95ALyutKFirkGgIAgPhx9zGQoiIj1bq11y+/SDIKF45bHdKjbiHrPW6SDh1K9oukAQAAgPTuwgV7RNKePfaIJF25ouBg7dghScWLKyzs78keG8aFC1tnAAAgHmwfAyknNlbduik0VFJU9uyOFSsO6f7Tpz1KihRR8eIeEQAAACAji3f7eMsWe0TXrqlZM/36qyQVLKiwMBUvPn68O9+xo3sMAAASwuUVQAoxDA0cqIULJRlZs256edTTnzxUtqxHiY+PJk2Sw+ERBAAAADKyixftEVNcnGUSFaW2bbV+vSTlzauwMJUpI6lyZUsNAABIBk4fAylk1Ch99pkkZcoU+/XXv+z2mz7d/tc54eHKnNkWAwAAADK0M2fsEVN4uHLlkiQjOmZ31c4Vdq6WdMWR8/n71gzJVKm8JDnvsTBVr+4eAwCAhNi3qwDcDe+/rzFjJMnhiJkxe0fR4D/+KGArqVGDvWMAAADAbupUe8TkvNQiLu5E474Vdi6WdE1Zmxgrpmyt0aOHJF2/bi3XI494TAEAQLw4fQzcdbNna9gwc3j8hQ+rPtfpzBlJFawlJUrogw+sAQAAAACSVMjj7XduFy6oRHFDgwffGzZLUpR8WmvJRj0m6bffFBenXbs86nk9NQAAycH2MXB3LVum3r2d49dee37PoH8/fBcQoLVrufIYAAAAiEdIiD1iunhRevllffyxpFh5ddKXaxVspuLidPasdu/2qC9WzGMKAADixfYxcBetX6/27RUbKylu0DN/NHt1fjV7iaS6ddk7BgAAAOJ37Jg9Yirw+TjNG2eOe2nmErWxZqdO1VdfuaelSrnHAAAgEdx9DNwt27apeXNFRkqKad+57q+THq7msUnscBhZs6plSw0ZYg0DAAAAcIqLi/+kxSB9VHHeS+Z4gD6eo+6eeZ09qzx53NN/PwIIAADixfYxcFfs3avgYF2+LEmNGq1o+8WmLfZ/+1atir12Td98Iz8/WwYAAACAJF2+LMNwT837i3voi4802IycHf72pxrgrrjhgw/044/uac+e7jEAAEgEl1cAd97x4woI0OnTklSnzulPFn3Y28dW4uUVV6WKpREGAAAA8C8XL3pMy5VTjcMLp6uPc/7yy18VesGjIgHBzluRAQBAEuznHwHcZufPKyhIhw9LUuXK299cXvrBbOvWeZQ88IAxbNjW/Pk9ggAAAECac/Wqtm/XyZP2+O1y4YJ77OWlSkdWzVdnb8VJWlh4sN58MyrKXZCIChXsEQAAEC+2j4E76epVNWmiv/6SpPvv19q1k+fluXLFo6RfP23fHlO37gmPKAAAAJDWrFyp/PlVtaqKFNEzz9izt4V1+7hJ9h/e2d/GRzGSZqjXG3nel8Oxdq27IFcu99imZEl7BAAAxIvtY+COiYpS69bavFmSChUK/yb0m82Fp0+3V9WubY8AAAAAadGoUYqIcI4nT9aRIx7Z28J1eUVNbZkf3ixTdISkr9W+n6adv+gl6aef3MUdOigoyD11adzYHgEAAAlh+xj/Z+/O42wu+z+Ov84sDDOGIYx9zZpQhEJuZgZjX5J9z0/alKRdtrQoKVlCRAohZJsZktJmyZK9ZMs6mDEzxoxZzu+Pc5zv+X7NDIrM8n4+etyP63pfn6PH/b2nx33m0/W9Lrk9UlLo3ZvwcID8+RNXhDXoUb5jR2vV66/Tp481FBERERHJig4eNE0PHTJNbwnH7uMa7FpDSz97HLCSVr2Yl4qno7PsuEzPITKS2rWNqUvNmtZERERE0qP2schtYLfz5JMsXAiQJw8rV3534d7du61VS5YwahQe+qdQRERERLK+5GQuXTIl27aZprdEVBR3czCC4IJEAZfq/e8RvkoiFxAfz5Ur7N1rFPfuzQsvGFOXNEMRERFJkxpXIrfByJFMmwbg5RU9c/GsAw2ffdZa4uXFgw9aQxERERGRLOrnn63Jpk3W5BY4enQdQUU5CxwsWC/+i+UJ5HEt7ttnFAKBgQQEUL++KWzYkAIFTImIiIhkwMsaiMi/NGkSY8Y4hvFT5tR8KfTaQ99ateLppwkMtOYiIiIiIlnUmTPWJF8+0zQlhe++4+hRihWjaVNy5zatXuvoUTZtonJlt7MmTp3qM7dZYY4DO7l3Tps1b5c0/T127nSfUaMGQL16zutIHOrVM8YiIiJyXWofi9xS8+YxdKhz/OGHawr2uLZ33KWL81gLEREREZFsY+1aa/L558ybZ0wHDmTOHOc4OJiwMGw2Y9Vi61Yefpj4eIAJEzwqVoTz5wkOLhxzCDhApRDC+wUG5MpF3rzOMq7Z7+znBzB6NBcuOJcaN2bkSFONiIiIZEztY5Fb55tv6NfPMfwxaOSqU0/9tspcAEBIiDUREREREcnq/vjDmriLjmbuXGMaEcHBg1SubCQWn3xiNIU//NBjylvxnq1bs2cPcIQyQaw7S1HHGRT+/kblmjXOAVC1qnPg72/6W4uIiMhNUftY5Bb54Qe6dCElBfg0zxMD1o1knbWkXTtCQujf35qLiIiIiGR1vr7WBLhyhVy5AE6fJjXVtHTiREbt4xkzjHHkscsPjBnrsW8vEOlVrFny+r8pBQQEAJw+bVRevGiMdcCxiIjILaGr80RuhR07aN2ahATgeMNuAy9/CNY38fr3Z9kyhgzJ6B09EREREZEsKirKmgBHjzoHv/1myoEPP7QmLlu2GONcJH5Nh8L79gIUKtQkOeIvKjiWHO3jnj2N4thYY+xYFRERkX9J7WORfyUhgTmv/nnxwRbExAB7SrXoZ5tjT+ufrNatrYmIiIiISLaRZvv4p5+cg127TDmwf781cVmwwDnwJPlLujUnHLD7+19cFLaX6q4yf3+A4sVdgUmePNZERERE/gEdXiHyrwzrdvL5ZcH5OQP8yIMhxxfHH8/lWi1RgocfJnduQkPp0MH4lIiIiIhINhMdbU3AOJU4OdmUk0672WHPHgAbqZ/SvyNfA/HkiZm1PKrY/e5l9eoB5M/vnhncD7IQERGRf0ztY5F/zn7+wuPLm5fjCPA797RmZTymI9+CgozbpUVEREREkUqcVAAAIABJREFUsiu7Pe12sKun/N57phw4exa7PY2D3ex2wsIA+2Se7M08IJFc7VlWYlXjQSVMlY7jKUJDeeUVU+4weLA1ERERkX8gjVfsReS6li5lUI9LByu1vse+G/iLcs0Ji8Z6vlrnzpZARERERCQbSkjgyhVriFv7uGhRU+5w+LA1wRna3+LFIUwFkvHsyoIIQn75xebeoS5xtZVcpIgRutPVeSIiIreEdh+L3LQ1a+ja6cpyOlfmZ+A0RUMIP0Xxxx5z3isN5MpFixaEhLh/TkREREQke0pz6zFu+bWHVwCRkZQvbw1//52XeXME7wCp2PoyZxkdgP37be7nY7huxkvv7OMGDayJiIiI/ANqH4vctNUrUz+jT0vWAtHkb07YISrmzs3UqXh6WotFRERERLK99NrHjoav3Z72ychpht+2nzSJVx3jx5k6n56upcWLXUPT5uLSpTl2zJg65M1rTUREROQfUPtY5EbNmcPSpSRctnf96eluLAAu49OGb3ZRE+jRQ71jEREREcmh0mwEc7WtHBdHSop1ibSazhcnfjqJoY7x87z7Cf/nvvr118bYtfsYKFHC2j72Nd1IIiIiIv+c2sciN+Sbb+jXD+AN3ujPx0Aynp1ZnCe40Wv1qVSJRx+1fEJEREREJKe4thHssHkzpL8aGWmeL1zoP2ygYzia197j+bffZsQIc81V7u3j9u35+WdjirYei4iI3Dq6Ok/khkREADzFhyMZ7Uj6Mmc1rXr3ZvRoevbE29u9XEREREQkB5k+3Zo4xMSke3IFMH6822TlSnr2tNntwESGjmQUMHw4w4a51bhxP7xiyBBj7DBhgjURERGRf0btY5Hr+PFH2rTho4/ozvwPecYRPs2k+fQsUYKWLc3VIiIiIiI5T6FC1sTlxIl0dx9XqXJ19O23dO7suF9vBgOf432wFSuGzcbdd7t9wI37aRi+vuTPb0yBEiVMUxEREfnH1D4WycilS7RowcqVhLJqDn0d4YK7Xyv3/tOzZrFtW0ZflEVEREREcoiYGGNco4YxBqKi0m0fx8YC8MsvtG1LYiLwJV0HMw1swOOPA3To4PYBN3XqGGObjSeeMKY1atCwoTEVERGRf0NnH4tkZMcO4uJ4iE2L6exNMjCFx/O9OurZ3tZKEREREZEcy/14igEDGD6cpCTnNCoq3cMroqNhxw5atuTSJWAFbXozNxXnhdSvvAJQpAg2m91ut7l9DqB2bdN07FiaN2f/fu66i+Bgcuc2rYqIiMg/pvaxSNoSEnj+eT7+mBrsWknrPCQAC3h0YrmPfm1t/fIqIiIiIpKTue8vDgigRAmOHDGW3FdtNux257jQuf2EhDi6y7EPNO2yeVEyzhtFSpXC4+q7su4fcXG/Og+w2WjcmMaNTaGIiIj8ezq8QiRtEybw8ceU51A4IQW4CKylee4Fc7f85lmwoLVYRERERCQns7SP3Xu7lvZxuXLOQRmOLI4OIjISoEGDdx9anoiPq+yll1xDGja8pnl8TftYREREbhO1j0XS9ssvBHIqguBAzgA/U39WyyUdHs3lfsWziIiIiIhgPryiQAFTbzc62rTqaB8X4+R6mpXkBECtWknLV4+Z6GcUXT342GHgwFRjAoCnJ36mchEREbld1D4WsbLbeecdflwVFUbz8hwGdlO9Y65Vjz/vay0VEREREcnxUlK4eNGYZrz7uGpVCnEuguAK/AXElqxCePixGNMejYcfdp9RoYJpCqSkYNN5ciIiIv8JtY9FrDZv5o0R8StpfS+/A4cpO6NT2PajBZs2tVaKiIiIiIh77xgoUAD3N/aiovjqK2NaNuBiGM2rsxc4TNn5fSIoXHj2bKMAGD3aNL3/fuvhFTVrWgIRERG5XdQ+FrH67dekxXR+iJ+AMxQJIbz78BKBgdYyERERERHBfHIFae0+Tkx0jvNyqfv8VvfzG3CC4s1Y/8nqkikpjBtn1Pv5WW/A8/AgNPQv92TQIPeZiIiI3EZqH4sYoqJo0yrV/5m+oawBLuLfgrVVWt9dt661UkREREREHNzPpvD2Jm9eU/v47FnnIDcJX9Oh2F8/ApHcFUzEYcqXLs2FC0YxUKaMaepQokSc+7RKFfeZiIiI3EZqH4sY3n/PHrL6mR58AVzGpw3feNWpvWIFHvoHRUREREQkHe7t4wIFsNlM7ePDhwG8SFpA1xAigMu5/JsTto9qwPLl7N1rFAMffmiaOjRpcvx//0sFbDZ69bJuTxYREZHbx8saiORIKSnExFB54eieTAaS8ezCoh9oPLqtLuUQEREREcmI++EVjsax+9nHhw9jI3U2/dqzHLDnzbtx2JrtY+5zFUybZhR7e5PmjSO+vslhYSkxMR5eXuTPb10VERGR20ebKkVYsIDChXmt4OSef77hSPrz6UraVKvGY4+ZKkVERERExMKy+5irTWSH5GT7FIb0ZD6QSC7b8uVejR80luH8eWOclGSMr1WokHrHIiIi/zW1jyWnS0piyBBaRH0xmaccyVAmzqP3qFHs3o1uzBMRERERyZh7+9jROHZrH9vfZfhgpgPJeA4OWERQ0IOm7jEREca4SxdjLCIiIpmBDq+QnOvyZU6d4vRp6kWt+Yw+jnAsr0xiKNCqlY6tEBERERG5vmsPr3C1j19jzPO8B6Ri68W8XcXaAXnykCsXV664PmQICrImIiIicmdp97HkULNnExBAhQoMf+jHJXTyJhmYyuDXGOPpyZAh3GecxiYiIiIiIum69vAKx38OZeJoRjry/2P6Aro5cpst7d4xULeuNREREZE7S7uPJSdKTmbYMBITqcGulbTOy2VgIV1ezjf5xH6bvz9+ftaPiIiIiIhImtI8vGIgMybynCN8jvdm8phrFahVix07nGN3tWpZExEREbmztPtYcha7nQMH+PZboqIox19hNA8gGggjpBfz7qnpWby4esciIiIiIjfh2sMrvBd/OZ3/cyQjecPVR3a1j9PcZVy9ujURERGRO067jyUHiYkhOJjNmwGKcjqC4GKcBn6hXieWlL071wcfWD4hIiIiIiLXYT28YsUKevXywA5MYNhoXjetAlCsmCsz7NljTUREROSO0+5jyUGWLHH2jvMTHUbzCvwF7LNVq3l81bnLfgcPcv/9lk+IiIiIiMh1uLePKx9fxyOPkJICTGfQcN4F40Jq1+7jIUNcmeE55x5lERERyUTUPpYcISGBn35i2jSAPMR/Q5ua7AKOUOblOuF5Shby8bF8QkREREREbojr8IoG/PTQu+0c9+JtqdR9CFPce8e47T529ZHdlSplTUREROSO0+EVkv2dPctDD/HnnwBeJC2iSyM2AWcpPKxGxNjZJSz1IiIiIiJyg+x2IiMBavPbakI9E+IB2rVbWW1O6nhPc63RNc6Vy5Q7NG1qTUREROSO0+5jyf4WLnT2jm2kzqZfa1YBCbn8i/wWtmTX3bqgQ0RERETkH3P0jquwL4zmBbgIEBTEggX+hbzNhWDedDxokDF2uPdeayIiIiJ3nNrHks1duuQ8swLsHzC0J/OBBHL/+soKatc2lYqIiIiIyE36+WfK8dc6ggpzDkiu9xDLluHjkzevtRK3wyuAatWMMXD33aapiIiIZBI6vEKys5gY6tdn3z6AVxn7NB8ByXgu6bKo26sPW4pFREREROS6du5k1iwuXCBPHjp2JOnIiXUEleAksI377g9bha8vUKOG9YOYdx+3aEGuXI5zkgHatTOWREREJPNQ+1iyszVrnL3jx5kyhtcdodecWT36tHUvExERERGRG3HuHI0aERvrnC6bGfk9QeU5DOyl6rBqa7/Ln9+xlOYZce67jytX5rvv+OIL4uK4/34GDzaWREREJPNQ+1iyreRkPvkE4FEWTOZJR3hw8HuV+vRxLxMRERERkRv03XdG7zg/0eGEVGU/cIjyQayrWKiwq/JqG9mkUCHTtEEDGjQwJSIiIpLZ6OxjybZ69+bbb2nO2nn08sAObA15udLU56x1IiIiIiJyY44ccQ58iVtNaG12AH9TIoh1pyju6WlUeqT1u6afnzURERGRTC6t/0sXyfouXGDBAhrw01I6epMM/FB1UJ21Y611IiIiIiJyw4YPB8hNwjLaP8jPwFkKB7HuCOWAfv1Mxa1amaYPPmiaioiISJag9rFkT+HhVLf/vopWebkMfEXn069PwWaz1omIiIiIyA0LCMCLpEV0CWI9EEWBEMIPUMWxGhhoKi5TxjQtX940FRERkSxB7WPJhn74gZe6HQ6jeQDRQARB5yZ+3vlRt1fpRERERETkJtntXIxKmUvvtnwDxOEbyuqd1HKs5stH48am+t698fFxjr28rHuTRUREJEvQ1XmSDa2YcSaC4OKcAn7lgWdKfb13aG5rkYiIiIiI3IxjR+3TGNyNBUACuQfcteKXc8bNd/v2Gc1ih3r12LmTDRtITaVxY6pXN62KiIhIlqD2sWQrqaksnhndY17zihwC9lI1lNWPhOqGDhERERGRf8duTxk67DFmAkl4dWbxuHVNFzl3HgMUL26MXSpVolIlaygiIiJZiA6vkGxl5PD4Yv/XphY7gaOUDiGcgoU++MBaJiIiIiIiN+eNN8ovnwikYuvJ56toXbMmPXs6FydM0D0jIiIi2ZN2H0s2kpT08JRHG7EJOEvhYCJOUHL+R9Z36ERERERE5OZMmMDo0Y7hY8xYxKONGgHMncuTT+Lryz33uFeLiIhI9qH2sWRtx48zfTqnT2Ozp/bf2D8oYSUQQ76WrPmDSn5+NG1q/YiIiIiIiNyI5GRsNjxnTmf4cEfyDB98ygDg9GkAm4169dw+ICIiItmO2seShSUn07gxR44A9ok814DPgQRyt2XFb9wfGsq4cQQGWj4kIiIiIiLXER1N9+6Eh9PL9vms5Mcdhx6+ypgPecZR8NBDbtUiIiKSfensY8nCdu509I55mTeHMglIwaMrCzbSBJg3j1puV3mIiIiIiMgN+vhj1qyhdcqyGcl9PbAD9ueHj+MVV0GTJq6hiIiIZGdqH0tWtWYNoaEAg5k6jlcd4UBmLqc9EBxMwYJu1SIiIiIicsN+/50gIhbyqBcpwC+1H4955W0wbscLCDCKRUREJBvT4RWSJW3ZQqtW2O10YeHHPOEIlzeaUOD+fkOhXDn69TN/QEREREREbsyFC/y9cFM47XJzBZhLr77bJ2/+0+gdA40bu89EREQk21L7WLKksDDsdkIIm0cvx8t0X5R+sfv3w9pZC0VERERE5OasGr1tFa3ychlYSof+fGrH48UXjQJPT/LnN6YiIiKSjal9LFnP2rW89hr1+GUpHXORBMxgoPcbb1rrRERERETkZu3Z035a83zEAGtp3o0vU/ACdu82SlJSsJn2IouIiEi2pfaxZDF//EHr1lRjz2pCfYkHltCxYsS0/wXpC6yIiIiIyL9z6JA9ODhf4nngexp1ZOkVcjtWzpwxqkJCjLGIiIhkb7o6T7KYjRspmXIknJCCRAHraHb0zS/+F+RprRMRERERkZvy9980a2Y7dQrYyv1t+OYyea01ALRta01EREQku9LuY8ka4uIYMYKffybl5JkIgktwEthM3YEFv97Q1bkhQkREREREbtDBg+zZQ5481K9PgQJw9ixBQRw9CuymenPCYkj3eOP77rMmIiIikl2pfSxZw8svM2UK/lz8jhZ38yewjyqhrN65K1+JEtZiERERERHJwNSpDBniHBcrxi9rokr3CeHAAeC0X4XguIgLFHKvt6hf35qIiIhIdqXDKyRr+OEHfLi8gra12QEco1QI4X2H3aXesYiIiIjIzXrnHWMceyrWo3VLdu4EKFmyb8n1pynmWCpd2ihzuftu3ZsnIiKSg6h9LJna6tXUr0+ZMuzdlbyQRx/meyCSu0IIjytQql8/a72IiIiISA5x4AAzZ/L555w9a13KmN3OkSPOsQ+Xl9Ou5N+/AhQpwvr153zLuCpz5XINDWmGIiIikl3p8ArJvGJj6dSJhARspH7KwLZ8A8Tit3TgmrHNqzRsSGCg9SMiIiIiIjnBxo2EhHDlCkDx4vz2G0WLWmvSs3u3c+DNla94pCkbAHuBArbw8JQKlbZtMypffJHhw4mKMhJg5kzTVERERLI37T6WzGvXLhISAPsEnu/LZ0AiudqyosWrdTp3Vu9YRERERHKuTz919o6BkydZscK0mrElSwA8SJlHr9asAmLx2zJ6LTVrbt5sqixalPbtTQlQvrw1ERERkWxM7WPJjObOpWJFGjYEeInxzzERSMGjKwtK9vxfGeN1OhERERGR7GnrVsaN46232LvXugT88INp+sEHpKSYEgfHHzJ6tKn+zBlspH7CoEdZBFzGpw3f7M9fDzh50igDGjSgaVNTcs89FC5sSkRERCR70+EVkumcPUu/fqSmAgxi+pu84sj3PDNjZN8O997rXisiIiIikg398ANNm5KcDDBmDFu3UrWqsfr33xw+bEyBvXt5/nkmTjSF7n/IyJF8/bVzK/G0afYPeHYAnwJJeHVm8UaaeH5G794sXmz6EwoVokcPoqL45hsSEylXjpEjdW+eiIhIzqLdx5K5pKSwfbuzd9yZr6byuCP/rPo7937Qv1YtPPQzKyIiIiLZ3YIFzrYvEB/P0qWm1dWrTVOHefOsifsfAsyfDxAby2hef4YPgRQ8uvPFalqB8yiMixeN+saNAWw2nnqK8HA2bmTOHMqVMwpEREQkJ1ArTjKLqChatiR3blq0AAgiYj49PLADH+R6ofLM4ZZ6EREREZHsyrK52HKmxKlTpqnD+fMkJpqSHTtM019+AUga985rjHUkA5m5mEcc42PHAOLjHTMjERERkRxO7WPJLCZOZO1a55FtD/Dr13TIRRIQ2XbAoAtv1a9vKRcRERERybbWrDFNp0wxTd94wzR1eewxY5yayk8/GVPg779JmjSl4NsjHNOn+HAO/Vyrx46RkMDGja6AEc5CERERydHUPpZMIS6Ob791jquxZzWhflwCtpTuWHjJtLy+Ol9NRERERHIKu92aBASYpnffbZq6hIUZ4/37jbFDL+Z6D33CMX6ZcZN5yrzOpk2mqa+vaSoiIiI5k9rHcofFx9OuHf7+/PgjQBmOhBNSiAvAptxN/ZbNx0sXPIqIiIhIDhIba02SkkzTP/4wTV3OnjVaz5GRpqUOLJ19da/xeF4cz8umZQD27jVN69Y1TUVERCRnUvtY7rCvvmLFCufX3MKcDSekBCeBhBp1HjyzrGptH0u9iIiIiEj2tnOnNYmLMzrI7rfhAZMmmaYzZzoHCxcaYXPWLqCrJ6nAZJ54mTcd+YABFClilD3zjDEG3ZInIiIioPax3FkXL/L1185xPmLW0qISfwCXy1T2Wb/aI38+92IRERERkZzg2nMngOho52D3blPeoIFpGhHhHLi2ITfi+6V0dFwrsjRfnw8rfAjOo+FsNkqWdJZdK3duayIiIiI5kNrHcse8+SYFC7J8OUBuElbQ9j62A1F+JX02hlO4sKVeRERERIDk5OTPP/+8S5cu5cqV8/Pz8/X1LVu2bMOGDV966aUffvjBWp2Ovn372q4nLi7O+jH5T6T54F3t4/PnTXmdOqbp2rXOwa+/AtRhy0pa5+UysJhOXWJn/nHI+B2wShXuv981ExEREUmDTpWVOyMqipEjSU0F8CR5AV2bsBGwFyoU8EM4ZUpb6kVEREQE2LJlS48ePf4wn3179OjRo0eP/vjjjxEREVu3bnVfkqzI1Sl2t3at88a8zz4zwmLFsNmYPJknn3QmsbHEx+Pjw/btVGf3Wlr4EwusoUV3vkgx/wLYsCEPPsiMGe6ZU/fu1kRERERypszVPk5OTl6wYMGKFSu2bNkSGRlpt9sLFy5csmTJRo0ahYaGNmrUyPqBtPTt2/cz969UaYmNjfXz87Om8p84cYLjx/njD+epbTZSZ/BYe5YDST5+3mvWULWq5SMiIiIiAnz33XetWrWKj4+3Lkj2EhVlTXDbkuz+e4zjG3X58kYC7NhBYCAV+SOCYMeV1Btp3IklSeQy1UGJEsYZFxYJCdZEREREcqZM1D7WToqc4LXXPN5+2z2wv8vwfswBkjxy8fUyXfAsIiIikqbIyMhu3bq5esd+fn5Dhw5t1KhR6dKlo6Kijh49un79+rNnz5o/dEN++OGHkmmdgOvr62uN5NY5cIAnnmDfPgoV4tln6dnTWEqzfRwTYx0A+fMDNGliJMDZs/hdOLaOoGKcBjZTtw3fXCavqQggo4OPa9WyJiIiIpIzZZb2sXZS5ARxcV4TJpiO2x7B28N4H7B7eHh/9SUtmrmvioiIiIjLhAkTTp8+7RgXLFhw27ZtZcuWda02aNCga9eurulNKVmypPsfJf+NPn2cxxOfPEn//tSvbyyleXiFq6fs3lweMAAgTx7KlePwYWe4+OMzE7cFFeYY8Dv3tPVaU6y8f+xB41MOjqMwgIoV+fNP0xLw0EPWRERERHKmTNE+1k6KnCA2lg0bSqekOG95BgYy4y1ecoxt06fTsaNrSURERETcpaSkzHA7ofatt94qW7ZsUlLSuXPnfHx8AgIC3GpvWrt27Y4ePRofH1+gQIFq1aq1aNFi0KBBBQsWtNbJrWO3s2WLKdm61ebv7xynufvY1VN2by4XKOAcxMY6BwFcGL8tuHDUH8BB7g4m4kxyoaRzzlV3566GabaP9S8URERExCFTtI+1kyLb+/NPGjb0OnOmhivpxOJpDHaML770Vv6BA11LIiIiImKxc+fOKLeeYr58+Vq2bLlhw4bExESgcOHCbdu2femllypUqGB85obt2rXLMYiMjNy4cePGjRvfe++9+fPnh4SEmAvllrlwwXmJtMuhQ7batZ3jNNvHae4+dv2Lg+rV2bgRP2LX0LJU1O/AMUoFse4MgUWKUKkSmzYZn3JwXTgyfDhr15qWuOY8ZREREcmx7nz7WDspcoJZszhzxth33Ix18+nhSSrA8OH53xzhWhIRERGRa7k6vA7du3e3u115FhkZOWvWrIULFy5cuDA0NNSt8B86d+5cu3btNm3adP/991vXIDEx0dG2BmJiYoCkpKSkpCRTUTocZTdYnI3NnOkBnu7JrFm2yZOdTyY62guML88OFy6kJiWlAFFRxmq+fMlJSXagdWuPXzde+YY29dgMnKZoM9YfpzTQu3dKkSJs2mT62wHt2qUkJaUCjRpRr57nr78ap8wtWuT8YzMJ/dikR08mPXoyGdDDSY+eTHr0ZNKT/Z6M3W5P87/OnW8faydF9nbxIhs38tZbRlKXzcton5srAP37Y75KT0RERESudf78efepe+/YJS4u7pFHHtm1a9cNfnOuXLlyx44dGzVqVK5cudjY2K1bt44ZM+bUqVOO1YSEhOeee27jxo3mDwGMHz9+1KhR7kl4eHjevGnczJaeiIgIa5TD/PxzdajonhQqdI6rT+bcuVbX/qZ28mT86tXrgQsXWrtaz3v2/JiUFA3Eni+4hPFN2Aicp2AwEX/iPNv43Ll9uXJdgnrOP+iqgwf3rl79l2NcpMg9YPzYnDr1/erVV4/DyDT0Y5MePZn06MlkQA8nPXoy6dGTSU92ejJ2u/3SpUvW9NovJf+9TLWTQm6tc+d44AHjEg+gCvvW0NKPSwDt2zN9OjbrxgoRERERsXDt9nUZP378wIEDU1JSPvroo3HjxjnC+Pj4t99++5NPPjHXpmHcuHElSpRwT+rWrdu2bdsaNWq49nZ8//33J0+eLF68uHsZ8NJLLz333HOOcUxMTKlSpUJCQvxdB/dmKCkpKSIiIjg42Nvb27qWkwwbZv1FbOfOIkBwcHBqqveVK9ZV4MoV39DQ0IQErlwx9hG3avXg3XdDcnKrOT29WAPE4teCtbsxTo0bN66yvz9vvukKnJ56qkq1alUc46pV+f13+5EjNqBv39TBgxtlqi/p+rFJj55MevRkMqCHkx49mfToyaQn+z0Zu90endYFvml8L/mPZaqdFOhdvFtq6VLb4cPGz1hpjkYQXIgLQOrDD6fMnYvdjh6XfnIypIeTAT2c9OjJZEAPJwN6OBnIig8nvZfvsihLc/bhhx9+8cUXHeOxY8euXr16+/btjml4eLhRlz5L79gV9uvX7/3333clO3bsuLZ9nDt37ty5c7sn3t7eN/WL083WZz+HDlkTIDnZ5u3tfeFC2k8mKsrm5eVt2RJUuLC3t2cqgwaxbClwGZ/WrNxKXVdBnjwUL+4NlCnD0aOuGKBUKeN/hEqV+PNP/vyT/PkJDPQA4yCLzEM/NunRk0mPnkwG9HDSoyeTHj2Z9GSnJ2O329P873Ln28eZaicFehfvXzt82H///oKpqTZg+/YiEOjI7yIynJCSnACiy5f/8f/+L/nbb90/KDn8JydjejgZ0MNJj55MBvRwMqCHk4Gs9XDSe/kuiypZsqT71PIiXZ06dVztY9eeiX+mvPnGtDR3oMi/lzcv8fHWMCoqN+ncmwekpHDpknW1QH47zzzDnDnAFbw78PX3POxecPmyc1C9uql9HBhIgQLGFPD0pHJlUyIiIiJCZmgfZ6qdFOhdvH9n2TLbc8952u3WV93yEbOGlpU5CNjvvtt3w4aQIkUsNTmZfnIyoIeTAT2c9OjJZEAPJwN6OBnIig8nvZfvsqg6deq4T1NSUtynycnJrnG+fPncVm7aX385D8N10KXTt0NSUhq9Y+D8+TxABj+2UVGm9rGfH95vvMLkyQAeHgvbfBm2vIWxDMAbbzgHb77Jvn3OY+UCAvj4Yzwy4w5jERERyXTufPs4s+2k0Lt4/8bs2Vx7+khuEpbRvg7bAHvJkrZ167zTavFLTv7JuS49nAzo4aRHTyYDejgZ0MPJQNZ6OOm9fJdFlSxZsk6dOlu3bnVMN23a5FpKTU396aefXNOaNWs6BkeOHClXrpwr37BhQ5MmTRzjsLAkA9C3AAAgAElEQVSwjRs3jhgxIn/+/K4C4OTJk7Nnz3ZNbTbbfffd57Yut8bFi9bE4bffimLefVysGKdPG1+wo6NNzeVXPMYzfrxz8umnAYU6sdxYdWjd2jmoWZNDh4iKIjWVggXVOxYREZEbdefbx9pJkaUlJvLVV8bleDt3mlYBT5K/pFtTNgCJ+fJ5rFrlXbq0tUhERERErufZZ5/t0aOHY7xt27bHH398wIABqampkydPPnDggKusV69ernF6Ll++PH78+I8++qhr164tW7asXLlyQkLCli1bxowZ4zrtDQgNDS2iN8Zug3T2seDhYQdiY40kf34uXzbq3XcfP8HkF2Nedk4+/pg+fWoed85cfHxM51HYbOh3IBEREblZd759rJ0UWVrv3ixaZA0datSgUEH7CwcGtTy9DLD7+v7y2msPVq1qrRMRERGRG9C9e/eFCxeuWLHCMZ02bdq0adPMJTRp0qR3796WMD1xcXEzZ86cOXOmdQGAQoUKffDBB9ZUboU//7QmDnFx3oD7kd2+vgQEmNrHjttD+jBnMk8507feYsgQoFQpJk/mzTc5exagRAnGj8fPz1klIiIi8s9kineWnn32WdfYsZNi69atmzdv7tu37z/bSVGyZMnHHnts6dKle/bs2bZt27Rp0+rWraudFLdcXByLF1tDl6lT2fDAiJanZwN4e6csXhxdqZK1SERERERu2MKFCx955BFrelWbNm2WLVvmcQOnEvj6+mZcVq1atW+//bZixYrWBbkV1q+3Jg6XLqXRPna/4C46mq1b6cTiWQxwRi+/zIgRroInnuDECZKSSEriyBG6dXOtiIiIiPxDd373MdpJkTVt3sykSaSmWnOHwoV54Lt3ePddAA8PvvjC3qwZq1db60RERETkhvn4+CxatGj9+vVz5szZtGnTmTNngMDAwAYNGvTu3bt58+bWD6QjODj4+PHjK1as+P7773fv3n38+PHY2NjcuXMXLVr0/vvv79ixY+fOnbPTydGZjaenNXFIc/exl9tvbFFRhLJ6FN09SQXmBjzde+xYY1lERETkNsgU7WNg4cKFvXv3/uqrr6wLALRp02bevHkZb5FwcOykSE2vqQnVqlX78ssvtZPiX/rtNxo2JCnJSGw2OnRwjgMDeTVwpverV/dBTJtG586mahERERH5p5o1a9asWTNreo2yZcvar73U+KrixYsPHjx48ODB1gW5/SZMsCYOcXG5uKZ9nCePMc2//bvBv3fKRRLwKf2ujJ2IzWYsi4iIiNwGmaV9rJ0UWcuyZdZucOHCLFlydbJ0KY/8n3M8fjyPPXZ1QUREREQkp/P0xHVfeNmyHDniHKd5eIVr93FdNnf7so2PPQFYxCOPMWNJ8etvrxERERH5lzJL+9hBOymyhM2bGTPGGnbseHW0fj3dujlPtRg2zP0sNhERERERcfWOgUKFjPbx2bN5we7ePvbzc+4+rsGutbTwSYoDVtKqJ5+n4ul+LLKIiIjIbaJ/Xy0359AhGje2hpMmMWkSAFu20L49V64A9O3Lu+/qfToREREREZfkZFP7eMDVO/CAhAQvu926+7hAAe7mYATBBYkCNtDkEb5KIheYbtUTERERuU0y1+5jyfzCwkhMNCUffMDTTwOwfz8tWxIXB9C2LTNmqHcsIiIiIuJuyxbTtFIl0/T3353fph18fSmVenQdQUU5C+zKW69t/IoEnMchBwQYlSIiIiK3idrHcqPsdqZM4cknTaGvL61bA3DsGMHBnD8P8PDDLFxouiVaREREREQgMtI0/d//TNOzZ20XLxrTYpzq8HFQPo4DO7m3SfyaOPK5VrX7WERERP4DOrxCbtS1vWPg11+pUAEiIwkJ4e+/Ae67jxUr8PGxloqIiIiI5HgLFxrjggXx8CBXLiOJiiIq6uoq5zt/EpzvzJ/AASqFEB6Nsd/YZiOf0UkWERERuV3UPpYbtXatNXnxRapXh9hYQkM5cADg7rtZswZ/f2upiIiIiIhgOgiuQgWA2rWNJCbG2T7OR8xaWgSc2AMcoUwQ685S1KiD/Pnx0C9zIiIicvvpG4dc39q1tG3LypWmME8eunaFhATat2frVoASJYiIoEgRU52IiIiIiFx18KAxPnUKIG9eI7l82RYdTR7iV9K6LlsBe2BgEOv+ppRRBOjkChEREfmv6HRauY4jR2jd2nQ9NFC/PrNnU6ViMl268+23AAULEh5OmTKmOhERERERuSolhd9/N6bDhwOmU98uXeLyxcTldGzMD0By/oJe69YduqeiUXGV2sciIiLy39DuY7mOH36w9o6Bd96hSmU7gwfz9dcAvr6sXk21atY6ERERERG5avdu0zQwECBPHiM5dzr5C7q3IAyIId/5+WFUr161qlHgEmAcgywiIiJyG6l9LOlKSeG11+jd25rXqkWDBvDSS8yaBeDtzddfU6+etU5EREREJFv7/Xe6dqVhQxo25IkniI62FlicPm2aBgWB2+5jG6ltlw/sxFIgnjytWOXXpA7pdIq1+1hERET+Gzq8QtL1ySeMHWsNFy8mJASvie/y9tsANhvz5xMcbK0TEREREcnWUlJo3tx5fjHw44+cO8fChaYaixdfNMY+PhQsCMbuY/tknmz69+dAIrnas+wXr0aOY5HVPhYREZE7SLuPJV2bNlmTp56iUyfyLZrFCy84o6lTeeQRU5GIiIiISA5w4IDRO3bYsME0vZb7ORV33eUcxMYC9rd4cQhTgWQ8u7IggpCAAGw2SKdTnJhoTURERERuB+0+FoCdO3n6af74wxReuGCa5s/PwIHw9dcMGuSMxo3j//7PVCQiIiIikjOcOGFNIiOx27HZiIzkySf57TfsdoC8eenShZdf5uefjeLatZ2D6tV5mTdH8A6Qiq0vc5bRAbdNx2nuPr7vPmsiIiIicjuofSwA3bqxb581dNeiBZ99RpE9G+jaldRUgGef5aWXrHUiIiIiIjnDyJHWBFi2jA4deOopFi0y5b//zqFDpuTxx52DrmcmVeJVx3gIU+bT0zF2bTpOc/dxgwbWREREROR20OEVQlzcdXrHwDPPUOTYVtq25coVgD59mDDB+TadiIiIiEjO4+trTYBduwDTLmOXOXNM0zJlAPj000pThjqS4bwzncGuAtemY8cWZotSpayJiIiIyO2g9nGOlpLC0KHky2fNLRo2pGmJA7RsSVwcQNu2zJyJh354RERERCTnWrfOmgCrVxMfz7Fj1vxaVavCokU89phjOprXJjDcvcC16bhJE/fYSe1jERER+W/o8IocbflyJk2yhmFhpl3FAQHUKnTc6+Fgzp0DaNyYBQvw0k+OiIiIiORcR49aE4fNm5kyxRpea8QIbKtW0qOH41y4iQwdyShLjWv3ccWKphyoUsWaiIiIiNwmagLmXImJbNliDcuVIyTEHJ07R6MQjh8HqFWLFStMN0aLiIiIiOQ827dbE5fvvrMm12qcsoHOnUlOBuz9Bwz79H2wngvnah8HBppyICbGmoiIiIjcJjp/ICfavp3KlfHx4a23TLmXF+PGmRJiYwkNZf9+gIoVWbuW/PnNFSIiIiIiOc7Bg9bEZdUq0/SBB0xToHflX1pObUNiIkDXrrZPpucvYO0d43Z4hY8PJUualrp3N01FREREbh+1j3OiZ55J4/tus2acO0e3bm5RYiIdOji3KBcvTkQERYu6LYuIiIiI5FDz5xvjpk3TvVJ6yhR+/pk9e/j1V+dffy7eMedMS9ulSwBt2jB3Lp6ero3G7txDyyaPli1NUxEREZHbR4dXZH9XrjhPLXb5/XfT1KF7d/PG4pQUevRg/XqAgADCwihb1m1ZRERERCSnSE7m8GFSU/H3p1gxgLJl2bXLuXrkCHa7W7WbKlXw8KBatavzAwdoHUJ0NEDTpixahLc3EBDA4cOuDzm5dh9zzWHHlSubpiIiIiK3j3YfZ3MzZhAQQIkSpr8c31fdNW1Kly5uc7udxx9nyRKAvHlZvZp77nFbFhERERHJKTZvplgxKlWiShWKF6dVKxITWbHCKOjQAX9/Y+qucWO3yZEjBAURGQlQvz7Ll+Pj41hx7xS7uO8+rluXQYPw8MDbm9dfp0QJY0lERETktlL7ODtLSODZZ4mPt+buNm3i9GnWr8fPzy19+WVmzADw9mbpUurXd1sTEREREclBRo0yvcy3ejXTphlToFYtHn3UlDhUqYKn59XJyZM0a8bffwPUqsXq1e7fv697eIXNxvTpREURFcWoUUYuIiIicrvp8IrsyW7nyBEOHMBxqFp6ChTggQccL8y5mTDBeaeezca8eTRvbl4WEREREclB9u2zJt98Y5recw9RUabE4cSJq6Nz5wgO5q+/AKpUISzM0jA+dsx95nTtluT09jiLiIiI3D7afZwNRUdTvz7ly1/nSo2AAKZMuaZ3PHs2w4c7xx9/nPY+ChERERGRnOHy5TROJXbcD+JSsyb9+5sSh1deAeDiRZo3Z+9egLJliYigSBFTHfTpYwkgnS3JIiIiIv8x7T7OhubPZ/Nma1ikCPv3mxJ/f7eX6RyWLWPgQOd4zBgef9y0KiIiIiKSw4SHWxOLBx7AZsPXlypVrN+3778fLl2iVSt++w2gWDHWraNkSVMRQNp3VGuvsYiIiGQGah9nK1eusGsXs2dbc6BmzevtX/juO7p2JTUV4Jlnrm6WEBERERHJ/q5cYdMmzp4FKFCARo3w9QXS2Hps4ToWuU4dU/vY05NaVRPp0IEffwS46y7WraNCBaPCTZpf1L30u5qIiIhkAvpKkn2cOkWjRhw6ZM2B2rWZNMkammzbRtu2JCYC9OrF++9js1lrRERERESyI7udli359lsjuecefvkFX19ee80I0zRunHMwYQIXL/Lrr6SmUrQor72YdNeTXYmIAPD3JyyMatXcPmdybfs4nT6ziIiIyH9N7ePsY+7cNHrHo0bx+uvW0OrAAVq0IDYWoHVrZs3CQ4dii4iIiEhOsWOHqXcM7N5NeDgdOhAXZ8qv5erzFi3KihVX09RUevdj2TKAvHlZvZr77ru6loZr28cPPWRNRERERO4ItY+ztkuX+OUXLl0C2LjRugrUqWNNrP7+m5AQ50t3jRqxaNE1t+mJiIiIiGRnR49aE2DVKtq0sYbXqlHDmmC3M2QI8+cD5MrF8uXXbQYXLWpNzpyxJiIiIiJ3hNrHWVhkJA0apLHj2KFUKfr0oUULa25y/jwhIRw7BlCzJitWkCePtUZEREREJFvr29eaALNmUaqUKfnuO5o0MSXPPIOPjynBbueFF5g+HcDTk0WLCAoyV6TBZiNfPntsrHF83ODBbssiIiIid47OKMjCFi9Ot3f87rscO8aYMRmeQhEXR2go+/YBVKjA2rUUKGCtERERERHJ1lJTuXjRGjq88YZpWrmyaQq0bWtNGDOGCRMAbDbmzqVdO2tBOho2tLtPCxd2n4mIiIjcMRk0FyVTi4nhww+toUuDBtbEKjGRjh3ZvBmgWDEiIggMtNaIiIiIiGR3MTHWJD2Bgaaj4fz9eeABYwowcSIjRzrH06bRvbtpNUPNmhnt44CAjI9KFhEREfnv6PCKLCk2lnr12L/fSPz9uesu52DAgOudrpaSQq9ezmugCxQgPJxy5aw1IiIiIiI5wJo1pmmtWuzYYUocevUCWLaMsWM5dIiiRRk6FD8/t4qZM3nuOef4vfcYNMht7fqefDJ19+59Z85Uu+suj+ee05FyIiIiklmofZwlRUSYesfAU08xdqwpSZfjKo+vvoKr10Dfc4+1RkREREQkZ9iwwTQdP56WLU2JQ6VKACVKMHWqdQngyy+NfvHIkUYf+YZ5eNC+/aHQ0Mre3npDVERERDIRfTXJepKSmDzZGjZubE3S9eqrfPIJgJcXS5bcwDkXIiIiIiLZ1pYtpmnDhqapS0ZXUq9YQa9e2O0Azz1nnF8hIiIikvWpfZz19Olj3SIxdSohIaYkXe+/z5tvwtWrPDL6FiwiIiIiks2dP286quLll/HzY9gwI3FxP/XYZP16unQhJQXgsceYMAGbzVojIiIikmWpfZzFXLzIggWmpH9/Bg82Jen67DPju/DkyXTrZloVEREREclhvv/eNC1bFtJ6sa9UKWvi9NNPtG1LYiJA9+5MnaresYiIiGQzOvs4s4uJYcEC/v7bOY2Odr4V5xIUZJqma8UKBgxwjkePZsgQ06qIiIiISM4zY4ZpGhoK0KQJgYGcPm3kae+72L6d0FDi4wHatWPOHDw9rTUiIiIiWZzax5ldq1Zs2mQNXaZPp2tXa5iGjRuNV+qefppXX7UWiIiIiIjkMNu2sWaNMS1fnhIlAPz9+fVXFizgwgVsNu69l0cfNcqc9u0jJISLFwGCgliwAG9va42IiIhI1qf2caZ29GhGvePixY3rnTOyfTtt2jhfqevRg4kT9UqdiIiIiMj69abpww8b49KleeEFY2r1118EBXHuHMCDD7JsGT4+1hoRERGRbEHt48wiKoqZMzl2zBSePWuaWrRqZU3ScPAgzZsTGwvQqhWzZ+OhA69FRERE5FaqV+9Gj22w273i4v738stet3A/Q+7ctGnD66+n+z03Pp4XXuCnn6hTh/feI18+gNRURowwlfXpY5qm68QJgoI4eRKgdm1WrcLX11ojIiIikl2ofZxZtGnDjz9aQ3d58tCmjXNss1GzJs8+aypIw4kThIQQGQnw0EMsWqRX6kRERETkltu/35qkzwb+1uxf++03SpUybvqwGDWKjz8G2L4db2/neP58U83//mfafZyuyEiCgjh8GKBqVcLCKFDAWiMiIiKSjah9nCmcOnWd3jFQsSILF1rDjFy4QEgIR48C3HsvK1eSN6+1RkREREQkW/jxx3Tbx7NmGeMZM5ztY8sZcSEhpmnaoqMJCXE2y8uVIyKCwoWtNSIiIiLZi9rHd9KGDSxYQFyc88qNjHXubE0yEhdHaCh79wJUqKBtESIiIiKSvX3+OStWAFSvziefULkywOXLPPEE588bZUlJad8D0q2bNbFyfMHesQOgRAnWr3detCciIiKSral9fMfs2EFwMCkp1tzHh759TYmHB3Xr0ru3KcxIYiKdOvHrrwCBgYSHExhorRERERERuUU+/fRG33NLTk7esWN7rVq1vbxuwW8iYWHMnu0cJyU528Tff89jj/H99wAffWQUZODVVylTxhqaJCTQvj0//wxw112sW0e5ctYaERERkezoFnxpk39mzZo0esdAmTJMnWoNb0JKCr17Ex4OUKAAYWGUL2+tERERERG5dTp1wv/GDjROSrL7+Z0MDa11S67kyJs37e6wYx8FsGWLKU/PffdZE5OkJB59lPXrAfLnJzycKlWsNSIiIiLZlNrH19ep041eOGe3e549W3/aNM80X4izOHDAmjj06GFNboLdzhNPsGgRQJ48rFzJvfdaa0REREREsoXgYBo2tJ5iDFy5QlAQ1aqxeLF16VoNGtCihTU0pKTQp4/zXAxfX9asoXZta42IiIhI9qX28fWtW2dN0ucBRa3ZDXjgAZo1w2bjvvvo2NG6ehNef53p0wG8vFiyhIceshaIiIiIiGQXPj5s3Mju3URHEx1Nu3bG0vr1zu3CLp07p9FN3r6dGjXw9LTmTnY7gwfz5ZcAuXOzfDkNGlhrRERERLI1tY8zhQ4dePFFa3jTPviAsWMBbDbmzqVlS2uBiIiIiEj24uHhfN0uJYWCBblwwVrg8vTT5MtnOuyialVq1TKmVnY7w4YxcyaAlxdffUWzZtYaERERkezOwxrIf87fn06drOFNmzuXZ591jj/88AaujhYRERERyT48PZkwwRq6dO/Ogw8yYgSlSzuTvHl5+21TjdWoUUycCGCzMW8ebdpYC0RERERyAO0+vr7Ro/HxsYZpSklJ2b9/f5UqVTzTff/NyteXli3/9b3N33xD//7O8Rtv8OSTplURERERkRygXz/i49P4LvzQQ8yfD1C5MocPc+QIycmUKUPu3NZKw3vvMWqUczxjBl27mlZFREREcgy1j6/vmWdu/CLp1NWr/wwNreTtfaPt41vg++/p0oWUFIAnn+T1160FIiIiIiI5Q9261gRo0sQYe3hQvrwxTdsnn/D8887xxIkMGGBaFREREclJdHhFFrdjB23akJAA0K0bkyZhs1lrRERERERyhrp1GTbM9O5gkyYMHWpMr2/+fAYPdo5Hj77JD4uIiIhkN2ofZ2XHj9O8OTExAC1b8tlneOh/UBERERHJuWw2JkwgJsb5V3w8GzZw113WsnQtW0afPtjtAMOH8+qr1gIRERGRHEbdxqysWDFatgR46CEWL8bb21ogIiIiIpLzeHuTLx/58pEnj3UpIxERPPqo81C4wYN5+2292CciIiKis4+zMi8vPv2UGjXo35+8ea2rIiIiIiJygzZton17rlwB6NmTjz9W71hEREQEtY+zPA8Phg2zhiIiIiIicuOSkujTh/h4gA4dmD1bh8KJiIiIOOhbkYiIiIiI5Gze3ixfTmAgISF8+SVe2mQjIiIi4qQvRiIiIiIikuPdcw8//USRIuTObV0SERERycHUPhYREREREYFy5ayJiIiISI6nwytEREREREREREREJA1qH4uIiIiIiIiIiIhIGtQ+FhGR/2/vTqOjqNIGjt/OYkIICSgwIQRCEFwQVGRRIoqAgALiBoorgUQdOCKozIgDCi6IOqgwjKIDIuJRXEBHFg06QBRZlHiAEGS3wxqECGQB6aSX90O/lJeb6iKdVJLqyv/3IafuUp3Kk6fCw+3qKgAAAAAAAB0sHwMAAAAAAAAAdLB8DAAAAAAAAADQwfIxAAAAAAAAAEAHy8cAAAAAAAAAAB0sHwMAAAAAAAAAdLB8DAAAAAAAAADQwfIxAAAAAAAAAEAHy8cAAAAAAAAAAB0sHwMAAAAAAAAAdLB8DAAAAAAAAADQwfIxAAAAAAAAAEAHy8cAAAAAAAAAAB0sHwMAAAAAAAAAdLB8DAAAAAAAAADQwfIxAAAAAAAAAEAHy8cAAAAAAAAAAB0sHwMAAAAAAAAAdLB8DAAAAAAAAADQwfIxAAAAAAAAAEAHy8cAAAAAAAAAAB0sHwMAAAAAAAAAdLB8DAAAAAAAAADQwfIxAAAAAAAAAEAHy8cAAAAAAAAAAB0sHwMAAAAAAAAAdLB8DAAAAAAAAADQwfIxAAAAAAAAAEAHy8cAAAAAAAAAAB0sHwMAAAAAAAAAdLB8DAAAAAAAAADQwfIxAAAAAAAAAEAHy8cAAAAAAAAAAB0sHwMAAAAAAAAAdLB8DAAAAAAAAADQwfIxAAAAAAAAAEBHhNoBic/nE0IUFRWpAwGUlZWdOnWqqKgoMjJSHavzCI4BgmOA4BggOIEQGQMExwDBMRCKwfH5fP4qzl/RoZpQMJuFyBggOIEQmUCIjAGCEwiRCYTIBGK/yASqn1k+NlJcXCyEaNGihToAAACAEFFSUhIbG6v2wiQUzAAAADaj1M8sHxtJTEzcv39/gwYNHA6HOqanqKioRYsW+/fvj4uLU8fqPIJjgOAYIDgGCE4gRMYAwTFAcAyEYnB8Pp/H4ykqKkpISOAC5OpDwWwWImOA4ARCZAIhMgYITiBEJhAiE4j9IhOofmb52EhYWFhSUpLaey5xcXG2yRvTERwDBMcAwTFAcAIhMgYIjgGCYyC0guPz+bxeb1xcnNfr9Xg86jBMQsFsLiJjgOAEQmQCITIGCE4gRCYQIhOInSITqH7m0XkAAAAAAAAAAB0sHwMAAAAAAAAAdIQ/88wzDok6jiCFh4ffcMMNERHcFUQHwTFAcAwQHAMEJxAiY4DgGCA4BkIxOP5btvnO8J7hOWPB8rU+nzes8IAQYsyYMer+qB6hmEs1g8gYIDiBEJlAiIwBghMIkQmEyARiv8jo1s8Ol8sVFhbmcDj8X9WdAAAAgBDkr3f9X/2LxW632+12l5WVlZaWulwul8s16PFpXo87Yt96IcSePXvUlwAAAADqjED1MzevAAAAAAAAAADoYPkYAAAAAAAAAKCD5WMAAAAAAAAAgA6WjwEAAAAAAAAAOur08rHb7c7KyvrnP/951113paSkOCRpaWnq7LPt3Lnz6aef7tq1a9OmTc8777ymTZtedtllQ4cOfeedd44dO6bODiAvL0/+prrGjRun7lYjgg1Oq1at5DmBtGrVSt3zXNasWZOent62bdvY2NjY2Ni2bdtmZGSsXbtWnVeDaj04dsocv99+++2ll17q1atX8+bN69WrFxkZ2ahRo44dO44cOXLNmjXq7IqxQeb4mRgcy2ZO5SJTVFQ0Y8aMPn36JCQkREVFNWzY8PLLL3/yySd//fVXdWqF2SZtTAyOZdPm+PHjixcvHjdu3PXXX6+dHU2aNOnevfukSZMOHDig7iDJzc0dPXp0u3bt4uPj69Wr16pVq3vvvferr75S51WY1TLHCsGxbOYgWMH+FTK97NFY7UQTFgiOZU+0YCPjZ2LNo7Fa2tR6ZGyWMyYWPBqr5YywQHCsmTZWqHY0lkobK0TGTjmzc+fO9957b9SoUV26dImKipJ/BHVqMCyVMxXicrnKysrcbrf/yXp1itPpVMNxxrBhw9TZZ5SVlY0dOzYiIkLd54wlS5ao+wRgcACaJ598Ut2tRhgcm25wkpOT1Xl6kpOT1T0DKysry8jIUF/ijIceesjtdqv71IhaD47BAWhCJXN8Pt/ChQvr16+vzpY88MADZWVl6m6B2SZzfGYHx+AANLWSOQYHFigyK1asaNasmTpbCCHEeeedN336dHWHc7FT2pgbHIMD0NRK2jRo0EA9DklMTMzcuXPVfXw+n8/3zDPPhIeHqzsIIYS45ZZbSkpK1B0MWTNzrBAcK2SO1+t1u91lZWUul+vUqVPFxcXHjx8/evTooUOH8vLyduzYkZOT06r3gy1vuLd166UKyx8AACAASURBVNatW7dW94fP5zP8Ver+FTK97PFZ9UTzWSA4Bgegqe4TTZfBgelGxmd2zeOzatrUemQMDkATKjljbsHjs2rO+CwQHIMD0NR82lih2vFZMm2sEBk75UyPHj3UqWeoUyvGgjkjC1Q/1+mrjyvB6/Xefvvt06dPd7vd6hgqoGnTpmpXYBkZGXPmzFF7z5g9e7bBKReKggqObezateu+++47efKkOiD54IMPXn75ZbU3MNtkTnUExx6ys7MHDhyYn5+vDgghhCgtLR07duxbb72lDhiyTdpUR3Csyev1ql2SU6dOpaenZ2ZmKv2TJ09+4YUXPB6P0u+3ZMmSQYMG+Xw+dSAwa2aORYIDGAiq7LHmiVZ9ggqOPVRHzWOPtKmOyNhDdRQ89sgZUT3BsSCLVDsWTBuLRMaCKhcZ01kwZyqkjl993KRJk5tvvvmZZ55ZvHhxYmKiFpZAb+I9//zzUvDEtdde+9FHH/3000+5ubmZmZmvvvpqjx49MjMz1d0CkN+QufPOO516jh07pu5WI5xBBmf//v3qoTudTqdz7ty52o5CiPfff1/dM4ClS5fKOw4ZMuTnn3/Ozs4ePHiw3P/VV1+pe1Y/Z20Hx2mjzHnuuee0CUKI2267be3atbm5uTNnzoyMjNT6L7zwQnXPAOyUOaYHx2nVzHEGGZnu3btrE2JiYmbOnLlly5bVq1f3799f7s/Ly1P3DMBOaWN6cJxWTRv/pVi9e/eeNWtWdnb2li1b3n///ZSUFO1ohRBdu3aVd9m0aZP84aGePXuuWbMmJydn1KhR0k7irbfekvcyYNnMsUJwnBbInEBXT3D1cVCcQf4VMr3sseyJ5rNAcJwWONF0OYOMjOk1j2XTptYj47RLzphe8Fg2Z3wWCI7TkmljhWrHmmljhcg47ZIzPp+vX79+Xbp0GTly5Ny5c9PT0+XJysyKsGbOyALVz3V6+Vj5keVPk+n+FS4oKIiJidHmPP744+qMIDmlM0r3O9aiYIMTSL9+/bQdk5KSSktL1RkB9OzZU9vxwgsv1D6QVVpaKt8PrlevXmfvVxNqPTh2ypxHHnlEm1CvXr3Tp09rQyNGjNCGoqOjpZ2M2ClzTA+OZTMnqMgoV1JMnDhRGzp58uT555+vDT311FPSfkZskzbVERzLps3gwYNzcnKUzr179yqfSjt58qQ2Onz4cK0/Li7uxIkT2lBqaqo21KZNmwoWRZbNHCsExwqZE6j8Zfk4KEH9FTJQ6bLHsieazwLBscKJpivYyJhe81g2bWo9MvbImeooeCybMz4LBMeaaWOFaseaaWOFyNgmZ3xnn4CTJk2SZ0qzKsqaOSMLVD/X6ZtXBHuj6/nz5586dcq/nZyc/MorrwghTpw4kZ+f73K5zpoavOXLl6ekpERFRTVo0OCiiy4aNmzYqlWr1Ek1KNjg6MrNzV2+fLnWfOyxx+Q3yQ0UFBRkZWVpzdtuu017KywyMvK2227ThlatWvX7779rzZpRu8FRhHrmyO/1hYeHy0GIjo7WtuUiyYDNMsfc4CgslTlBRWbv3r1y8/LLL9e2Y2Ji2rRpozU///xzbduAndLG9OAoLJU2n332WYcOHZTOli1bXnfddXJPcXGxf8Pr9S5atEjr79OnT3x8vNa86667tO3du3dv3LhRawZi5cyp9eAoLJU5CFZQf4UCqXTZY+UTTdR2cBSWOtGCjYy5NY+V06Z2I6MI3ZwxveCxcs6I2g6OwjppU+vVjmXTptYjowjdnPEL6gQ0ZtmcqYg6vXwcLDnFU1NTp0yZkpyc3KhRo8TExPr163ft2vW9997zVfZeMIcPH87LyystLS0pKdm1a9f8+fN79eo1dOjQP/74Q50aOqZNm6Ztx8XFyW+eG8vOzpYjedlll0mDon379tq2z+fLzs6WBkNGpYOjCPXMGTZsWGxsrH+7pKRk7Nixhw8fPnXq1NKlS+fPn69NGzlypLZtwGaZY25wFKGbOfJ/loQQv0oPj/Z4PPv27dOau3fvPnHihNYMxE5pY3pwFCGRNvJvMyYmRruF6M6dO4uKirQhg1+0EGLDhg1yU1coZk6NBUcREpmDalXpsicUT7RgVTo4ipA+0cyteeyUNuZGRhG6OWN6wWOnnDE9OArrp02NVTshlzY1FhlF6OaM6UIuZ2QsHwchJydH2/7kk0+ee+457Y+vx+PZsGHDiBEjBgwYUPUrkTWffPLJsGHD1N4QcejQoQULFmjNhx9+OC4uTho3In/SQZR7fojSVCaHhKoEpyJCKHMSEhKWL1+elJTkb86cObNZs2b169f3P9pVCBEWFjZ+/PjRo0eftVsANsscc4NTESGROZdccol8vkybNu2rr746efLkwYMHH3300cOHD2tDPp/v4MGDWjMQO6WN6cGpCEulzb59+1auXKk17777bu16AdN/0aa/YHWryeBUhKUyB9WqKmVPrSRnTapKcCoiVE40c2seO6WNuZGpiJDIGdMLHjvljOnBqQjrpE1NVjumv2C1qsnIVERI5IzpaiXUZmH5OAjypePeAE9s/Prrr8eMGaP2BhYVFXXnnXfOnj37p59+2r59e2Zm5t133y1P+Oyzz2rrwv4qmjlzZmlpqX87MjIyqLAUFhbKzXr16slN+Q7UQohKvGVa66oSHD87ZU5qaurq1au7dOmiDghx/vnnf/XVV1OnTg0Lq9AfK/tljonB8bNB5kRFRcmnTEFBwYABA2JjY5OSkt5++21pohDlUkKXndLG9OD4hUranDx5cujQodqbuPHx8c8884w2avov2vQXrFY1HBy/UMkcVLeqlD3VlJzWUZXg+NnmRDOx5rFZ2pgYGT8b5IzpBY+dcsb04PiFRNrUcLVj+gtWnxqOjJ8NcsZ01RTqmvHnoxVxTsplxe3bt3/vvfcuvfTSzZs3Dxs2bPfu3f7+2bNnT5gwoUWLFvJkXQkJCQcPHrzgggu0nosvvrhfv37Jycmvvvqq1rlgwQL57tohoaSk5J133tGaQ4cO1d4zrwT58v7yzZBT9eDYLHNee+218ePHu91udUCIY8eO3XTTTUOHDp0zZ47/MalBsUHmmBsc22TOs88+u2vXro8//lgdECIsLEx+e0/5+F5FhHramB6cUEmbgoKCW265Zf369f5mdHT0okWL5FtGKkz/RZv+giaqleCESuagulW97JGZkpzWUfXg2OlEM7fmkYV62pgbGdvkjOkFjyzUc8b04IRE2tRKtSMz/QXNUiuRsWXOmM6UUNeYIN6lhPJRspkzZ3bu3Ll+/fqpqamvvfaa1u/1elesWCFNDCg6Olo+nTQTJkyQm5s2bZKbIeHdd989fvy41hw3bpw0eG7yndqFEMo9cZRmw4YN5ab1VTE4wl6Zs2DBgnHjxmkF8UMPPbR27drc3NzZs2drP+PHH39cwQ+22CxzzA2OsFHmRERELFiw4NNPP+3Ro0dUVJS/s1GjRhkZGW+++aY8U/fnVdgsbcwNjgiRtNm9e3e3bt204i82NnbJkiW9e/eW55j+izb9BatJrQRHhEjmoAZUseypjuS0jioGR9joRDO35rFT2pgbGWGjnDG34LFTzgizgyNCIW1qpdox/QWrQ61ERtglZ0xXHaGuMVx9HISkpCT5/hWdOnXStjt37qxtCyHy8/PlZrDi4uIaN25cUFDgb1rtkvVz8ng806dP15p9+/aVn/daEcobPkeOHJGbv/32m9ysyXeHqq7qwTEQipnz+uuva9u9evX6z3/+49++7LLLoqOjH3jgAX9z0aJFO3fuvOiii7TJumyWOeYGx0AoZo4QYsiQIUOGDCkrK/v999/DwsKaNGnicDief/55bULDhg1btmwp7aHPZmnjZ1ZwDFgnbdatWzdo0CDtSBISEpYuXSr/G+1n+i/a9BesDrUVHAPWyRzUgKqXPTWZnDWs6sExEHInmrk1j53SxtzIGAi5nPEzq+CxU85ozAqOAYukTW1VO6a/oOlqKzIGQitnTFeToTYdVx8HQVkj9ng82rbyYaIGDRrIzWAVFRVpeSyEOP/886XBELBw4cK8vDyt+be//e3PsYrp3LmzfLfyrVu3SoNiy5Yt2rbD4VB+LxZX9eAYCMXM2b59u7Z91VVXSSOiY8eOcjM3N1du6rJZ5pgbHAOhmDmayMjIhISEpk2bOhwOr9f74YcfakM9evSoyHMPbJY2sqoHx4BF0ubzzz/v1auXdiTt2rVbv369bvF30UUXyZ8iMvhFCyF0bzGpsH7m1GJwDFgkc1Azql72WP9Eq7SqB8dAyJ1o5tY8dkobcyNjIORyRlb1gsdOOaOoenAMWCFtarHasXja1GJkDIRWzpjO4jljjOXjINx+++1y84cfftDdFkJcccUV2nZaWprjjBtuuOHPSUJkZGRkZWXJPX5TpkyRmzWTxyaSb+Vx5ZVX3njjjdLgWQIFp3HjxnLzv//9b1lZmX+7tLT0yy+/1IZ69uyp+5kIy6p6cIS9MicyMlLb3rhxozSifpIlPDxc2w4UHJtljrnBETbKHK/XK5cdmmeffXbnzp1ac+TIkdJgwMjYLG3MDY6wdtpMnz59yJAhp0+f9jd79eq1Zs2a5OTks2f9v7CwsDvvvFNrfvvtt/L1Dp999pm23aZNG/n/5IGCY/HMqd3gCGtnDmpM1csei59oVVH14AgbnWjm1jx2ShtzIyNslDPmFjx2yhlhdnCEhdOmdqsdK6dN7UZG2CVnKi1QZKycM+dU129eIb/nL19BXFJSog1FR0cnJCQIIW6++eZLLrlEewd41KhRp0+fbteu3ebNm5944okzu4oLL7wwNTVVaxrIzs5+9913O3XqdM8993Tr1u2CCy7Yu3fvvHnzFixYoM1xOBxpaWl/7lODggqO5rvvvtuwYYPWrMRN3PyefPJJ7Smcv/7667333vv000/7fL6pU6fu3btXnqZt16TaDY6dMqdLly7ffPONv3PFihUjR45MS0uLjY398ccfx48ff2ZX4XA4KvhPi50yx/TgWDlzgopMaWlpy5YtBw8ePHDgwHbt2kVGRu7atWv27NmLFy/Wdrzxxhv79eunNY3ZKW1MD45l02bs2LEzZszQmr179541a9aJEyeUD8ElJCREn3kszJgxY+bPn+//8FBxcfHtt98+ZcqUBg0azJo1a926ddoujz/+uKNiF+NYNnOsEBzLZg4qIai/Qhqzyh7Lnmh+tRscK59oQUXG9JrHymlTu5GxTc6YXvBYOWdEbQfHmmljhWrHmmljhcjYJmeEEAUFBSUlJf5tZaZ8YiYlJUVEnHuJ1Zo5UyEul6usrMztdnu9Xl/do4ZDT48ePbT569atO++889QZkoiIiOXLl//5DXw++TkG8kv5fD75IuVAxowZI+9Sk9RD0aP8RD6fb+DAgdpoixYtysrKlAkyg+Aoo7qGDRum7FJj1EPRU/4nMis4dsqc//3vf+qYnvvuu0/+FgbBUUZ1hUrmmB4cK2eOehx6tB9HeapAea1bt87Pzz/rGxhGRhnVFSppY3pwLJs26kEEsGrVKnmvSZMmqTPO1rNnT4/HI+9iEBxlVFetZI56EAFUa3CskDler9ftdpeVlblcrlOnThUXFx8/fvzo0aOHDh3Ky8vbsWNHTk5Oq94Ptrzh3tatW7du3VrdH2eovzk95c8Os8oeZVRXrZxofuqh6Cn/E5kVHCucaIGox6Gn+moeZVRXbaWNehx6qi8ytskZ0wseZVRXbeWMr7aDY820UY8ggGqtdpRRXTWfNuoRBFCtkbFTzpzzV+zndDp1dwmJnJEFqp/D1MOEoWuuuWbp0qWB7s8SHx//6aef9u3bVx0IwPgWyeHh4f/4xz/eeOMNdcDCtm/fvmzZMq05duzYirz9EsicOXPS09PV3jPS09PnzJmj9lqYicGxU+b07t179uzZ9erVUwckt9566zvvvKP2BmabzDE9OHbKHAN9+/Zdv369cp3XOdkmbYxVIjg2S5vJkydPnDhR/oSvbODAgUuWLAkLC6I6slPmmBscm2UOgmVi2SPsdaIJU4NjmxPN9JpH2CVtTI+MbXLGWCUKHmGXnDmnSgTHTmljbrUjbJQ25kbGTjljuhDNmUpWKnVZnz599uzZ8+abby5dunTXrl2FhYVxcXGXXHLJzTff/MgjjzRp0kTdIbCsrKysrKxvv/32p59+2rVrV0FBgdvtjo+Pb9u2bY8ePdLT09u2bavuY22vv/6678xbOvHx8Q899NDZ48GJiIiYM2fO8OHD33333e++++7w4cNCiGbNml1//fXp6enXXnutuoO1mRgcm2VORkbGTTfdNG/evJUrV27fvv348eNutzs2NjY5OblLly733ntvz5491X0M2SlzzA2ObTInKipq3rx5WVlZ2dnZR44cOX78eExMjP9XPHTo0KBiorFN2pgeHNukjeaFF16466673n777ZUrVx44cMDtdjdt2rRbt24PPvhg//791dnnYpvM8TMxOPbLHATFxLJH2O5EMzE4djrRzK15hI3SxtzI2CZnTC94hI1yxvTg2CZt/EysdoSN0kaYGhmb5Yy5QjRnHC6XKywszOFw+L+q4wAAAEAI8n/+zv/V4/F4PB632+12u8vKykpLS10ul8vlGvT4NK/HHbFvvRBiz5496ksAAAAAdUag+rmiV54DAAAAAAAAAOoUlo8BAAAAAAAAADpYPgYAAAAAAAAA6GD5GAAAAAAAAACgg+VjAAAAAAAAAIAOlo8BAAAAAAAAADpYPgYAAAAAAAAA6GD5GAAAAAAAAACgg+VjAAAAAAAAAIAOlo8BoNqlpaU5zpaVlaVOsq/HHntM/tmXLVumzqgsl8uVlJSkvXKzZs2Ki4vVSQAAAAgdVM7yz07lDMAKWD4GAH2tWrWSKrfKmDx5svqidc/WrVtnzZqlNbt27TpgwABpvEqioqImTJigNQ8fPjxlyhRpHAAAADWBytkUVM4ArInlYwBANRo/frzb7daaTz31lDRoghEjRjRt2lRrzpgx4+DBg9I4AAAAEBqonAFYE8vHAIDqsmHDhqVLl2rNlJSUW2+9VRo3QVRU1MiRI7Xm6dOnX3rpJWkcAAAACAFUzgAsi+VjAKh2EyZMWH22jh07qpPsaOrUqXIzIyMjPDxc7jFFRkZGWNif/5zNnTu3oKBAGgcAAEDIoHL2o3IGYB0Ol8sVFhbmcDj8X9VxAKirsrOzT58+rfYKMXr06E2bNsk9w4cPHzFihNzj17Jly5YtW6q9dUZeXl6bNm08Ho+/GRYWtnfv3qSkpLNnmaNv377ffvut1nzxxRflO7sBqJt8Pp/X6/V/9Xg8Ho/H7Xa73e6ysrLS0lKXy+VyuQY9Ps3rcUfsWy+E2LNnj/oSAICKoXKuIipnAFYQqH6OUCcCAIQQQnTu3FntEkIIER8fr/S0bNmye/fuSifmzZunVcBCiKuvvrqaKmAhxODBg+Ui+N1336UIBgAAqDFUzlVE5QzAyrh5BQBUu7S0NOXR0llZWfKErKwsZUJaWpoQ4vTp0zNnzrz22msbN27coEGDDh06TJw48bfffpP33bZt26hRoy655JJ69eqdf/75qampr7322h9//CHP0eV0OqdOndq/f/+UlJT4+PioqKjExMTU1NSJEydu3bpVnR28Dz/8UG4a37vN5XJ99NFH999//5VXXnnBBRdERUVFRkY2bNjw0ksvvfnmm5966qnPPvvsyJEj6m5nDBo0SG46nc61a9fKPQAAAAgJVM6CyhmAxXD1MQBY1NatWwcPHrx9+3atJzc3Nzc395133lm8eHG3bt2EEG+88cbf//537QHNp0+fXrdu3bp162bPnv3NN98E+gDg77//PmbMmI8//li+xkEIkZ+fn5+fv27dupdeemno0KFvvvlmo0aN5AkVt23btt27d8s9vXv3lpuy77///v7779+/f7/SX1hYWFhYuH379szMTH/PihUrevXqdfYsIYRISEho167dL7/8ovUsXrw4NTVVmgIAAADbonKmcgZQfbj6GACsKC8v78Ybb5QrYE1BQUG/fv0OHDgwderUJ554QquAZTt27Ljjjjt0h7Zs2dKxY8cPP/xQqYBlPp9vwYIFXbt2dTqd6ljFyB+IE0LExsYGeubJtm3b+vXrV74C1lVaWqp2nXHdddfJzW+++UZuAgAAwK6onHVROQMwC8vHAGBF33333eHDh9XeM4qLi2+55ZaJEyeqA5Kff/75448/Vjrz8/P79+9fwYpz9+7dt95668mTJ9WBCli/fr3cbN++faAnR7/44ou6D1oJ1hVXXCE3t2zZUpHPIQIAACDUUTkHi8oZQFBYPgYA67rpppsWLVr0xRdfDBgwQBnatGmT1+sNCwt77LHHMjMz582bl5ycrMxR7qEmhHjiiScOHDgg9zRp0mTChAkLFy7MzMz817/+dfHFF8ujW7ZsefHFF+WeClIesX3ppZfKTdmqVavkZmJi4tSpUxcvXrxq1aolS5bMmjVr9OjRHTt2DAs7xz9Y7dq1k5tutzs3N1fuAQAAgI1ROVM5A6gm3PsYACzq9ttv//zzz/3bAwcOTElJUepXIcSMGTMeffRR/3anTp06dOggj/70009yc8eOHZ988onc07Zt2++//z4hIcHf7Nev38MPP9yjR48ff/xRm/Pvf/97/Pjx5Z+abSwvL09uGjw5uqCgQG4uWLDg+uuvl3v8CgoKFi5c2Lx5c3XgjPLfwul0dunSRekEAACA/VA5y6icAZjrHG9JAQBqy6uvvqptR0RElH+cRatWrUaNGqU127dvr1xGcezYseLiYq355Zdf+nw+aVxMnjxZq4D9oqKitKrar6SkZMWKFXLPORUWFioff2vatKnclDVs2FBu7tixQ25qGjdu/Ne//lWp8mVNmjRRevLz85UeAAAA2BKVs4zKGYC5WD4GACu6+OKL27RpI/ckJibKTSHETTfdpHwwrfycwsJCbXv16tXSiBBC3HfffY5yHnjgAWXa999/r/QYKykpUXrq1aun9Gi6d+8uNx9++OErr7wyPT39lVde+eKLL7Zt22bwoBJZTEyM0lO5e88BAAAgtFA5UzkDqFbcvAIArEi5k5rQK/Iuuugipee8885TeuRHSFf6moJDhw6pXUFSrt2QjR8/fsmSJfJxbt68efPmzVqzQYMG3bt3v+eee+6+++7yP6DG4FsAAADAxqictSaVM4DqwNXHAGBF5e+YFhkZqfTExcUpPcbk6ymCcuzYMbXLUPl63eBRzl27dl20aFH5D9BpiouLv/766wcffPDyyy/fs2ePOnxG+W9Rv359pQcAAAD2Q+WsoXIGUB1YPgYAKzrn45KFEOHh4WqXIeVeaRUnX+BQEQ0bNoyKipJ7jh49KjcVgwYNcjqdc+fOvfPOO5s1a6YOn7Fjx4477rjD6/WqA0IIIY4cOaL0KDenAwAAgC1ROZdH5QzARNy8AgDqivJF4fz581NSUpTO8spf0GHM4XC0atVKfpRH+SdfK+rXrz98+PDhw4cLIQoLC3fv3u10Ojdu3PjBBx/s379fm5aTk7NmzZrrrrvuzz3PKP8tKvKjAQAAAOVROQOAhuVjAKgrunfvvnTpUrnnyJEj5R/3oXC73RERQf9jccUVV8hF8LZt26TBc4iPj+/UqVOnTp0GDx48YsQI5UEoGzdu1C2Cf/nlF7kZHh7evn17uQcAAACoICpnANCc+yMeAAB7GDRokMPhkHuef/75H3/8Ue6R5eTkPPHEE127dlUHKuDqq6+Wm7m5uYE+Ovfyyy9//vnnLpdLHRBC6N2X7dSpU0qPn/zMECFEhw4dyt9IDgAAAKgIKmcA0AT9thgAIERdeumlQ4YM+fTTT7WeoqKibt269e/ff8CAAUlJSfXr1z9x4sTevXs3b968atWqffv2CSGSk5P/fIkK69Onj9wsKSnZtGnTVVddJXf6ZWVlPf300zExMddff32nTp0uvvjixo0bx8TEFBUV5eTkvPXWW8r85s2bKz1+q1evlpv9+vWTmwAAAEDFUTkDgIblYwCoQ15//fU1a9YcPHhQ6/H5fMuWLVu2bJk0ywQdOnRISUlxOp1az8qVK3WLYL9Tp05lZmZmZmaqA2eLiIjQrW7z8/OVT/kNGjRIbgIAAABBoXIGAD9uXgEAdUjz5s2//vrrFi1aqAPV4L777pObixcvlpuVM2nSpKZNm6q95V48JSUlNTVV7gEAAACCQuUMAH4sHwNA3dKhQ4fNmzenpaVFRkaqY+Vcc801zz77rNpbMSNGjAgL+/NfmTVr1hw6dEga/39JSUnKfeV0xcbGTps2beLEieqAEEKIhQsXys309HS5CQAAAFQClTMACG5eAQB1UKNGjd57770pU6Z88sknP/zwQ05OzrFjxwoLC6Ojoxs2bNi6det27dpde+21vXv3TkxMVHeusJSUlFtvvfWLL77wN71e7/z588ePH3/2LDFnzpyXXnopKysrOzs7JyfH6XT+9ttvJ0+edDgc9evXT0xMbNeuXe/evQcPHty4cWNlX7/9+/evXLlSa0ZHRz/yyCPSOAAAAFBJVM4A4HC5XGFhYQ6Hw/9VHQcAoLI2bNggP366devWu3btki+sMMWkSZOef/55rTlq1Kg333xTGgdQR/l8Pq/X6//q8Xg8Ho/b7Xa73WVlZaWlpS6Xy+VyDXp8mtfjjti3XgixZ88e9SUAAKgpVM4Aal2g+tnkv0QAAGi6dOlyyy23aM1ff/3VlPu4yU6fPj1r1iytGRUV9Y9//EMaBwAAAEIAlTMAy2L5GABQjaZOnRoR8eeNkl5++WVp0ARz5849evSo1hw7dmzz5s2lcQAAACA0UDkDsCaWjwEA1eiyyy4bOXKk1vzxxx+XLVsmjVeJy+WaOnWq1vzLX/4yYcIEaRwAAAAIGVTOAKyJex8DAADAhgLdu417HwMAAADlYlf2rwAAACBJREFUBaqfufoYAAAAAAAAAKCD5WMAAAAAAAAAgI7/A/ZFZdk5ai/zAAAAAElFTkSuQmCC;" parent="1" vertex="1">
          <mxGeometry x="300" y="320" width="1898" height="934" as="geometry" />
        </mxCell>
        <mxCell id="Y0J4Bvf2A7eISHMYI4dC-2" value="" style="ellipse;whiteSpace=wrap;html=1;aspect=fixed;fillColor=none;strokeColor=#FF8000;strokeWidth=3;" parent="1" vertex="1">
          <mxGeometry x="610" y="870" width="90" height="90" as="geometry" />
        </mxCell>
        <mxCell id="Y0J4Bvf2A7eISHMYI4dC-3" value="" style="ellipse;whiteSpace=wrap;html=1;aspect=fixed;fillColor=none;strokeColor=#FF8000;strokeWidth=3;rotation=30;" parent="1" vertex="1">
          <mxGeometry x="673.17" y="808.17" width="90" height="90" as="geometry" />
        </mxCell>
        <mxCell id="Y0J4Bvf2A7eISHMYI4dC-4" value="" style="ellipse;whiteSpace=wrap;html=1;aspect=fixed;fillColor=none;strokeColor=#FF8000;strokeWidth=3;" parent="1" vertex="1">
          <mxGeometry x="930" y="440" width="170" height="170" as="geometry" />
        </mxCell>
        <mxCell id="Y0J4Bvf2A7eISHMYI4dC-5" value="" style="ellipse;whiteSpace=wrap;html=1;aspect=fixed;fillColor=none;strokeColor=#FF8000;strokeWidth=3;" parent="1" vertex="1">
          <mxGeometry x="1630" y="740" width="180" height="180" as="geometry" />
        </mxCell>
        <mxCell id="Y0J4Bvf2A7eISHMYI4dC-6" value="" style="ellipse;whiteSpace=wrap;html=1;aspect=fixed;fillColor=none;strokeColor=#33001A;strokeWidth=3;" parent="1" vertex="1">
          <mxGeometry x="1420" y="970" width="180" height="180" as="geometry" />
        </mxCell>
        <mxCell id="CwNWlLyLNx8Dmg8on26z-1" value="&lt;b&gt;&lt;font style=&quot;font-size: 50px;&quot;&gt;Fast DDS sensor&lt;/font&gt;&lt;/b&gt;" style="text;html=1;strokeColor=none;fillColor=default;align=center;verticalAlign=middle;whiteSpace=wrap;rounded=0;" vertex="1" parent="1">
          <mxGeometry x="560" y="300" width="490" height="30" as="geometry" />
        </mxCell>
        <mxCell id="CwNWlLyLNx8Dmg8on26z-2" value="&lt;b&gt;&lt;font style=&quot;font-size: 50px;&quot;&gt;Connext DDS sensor&lt;/font&gt;&lt;/b&gt;" style="text;html=1;strokeColor=none;fillColor=default;align=center;verticalAlign=middle;whiteSpace=wrap;rounded=0;" vertex="1" parent="1">
          <mxGeometry x="1530" y="300" width="510" height="30" as="geometry" />
        </mxCell>
      </root>
    </mxGraphModel>
  </diagram>
</mxfile>
